<svg width="1235" height="810" viewBox="0 0 1235 810" fill="none" xmlns="http://www.w3.org/2000/svg">
<rect x="574" y="-48" width="704" height="899" fill="#3C5190"/>
<circle cx="847.707" cy="85.1791" r="413.972" transform="rotate(120 847.707 85.1791)" stroke="white" stroke-opacity="0.15"/>
<circle cx="888.076" cy="216.846" r="413.972" transform="rotate(120 888.076 216.846)" stroke="white" stroke-opacity="0.15"/>
<circle cx="926.179" cy="339.179" r="413.972" transform="rotate(120 926.179 339.179)" stroke="white" stroke-opacity="0.15"/>
<path d="M761.828 812.746C563.828 698.431 495.988 445.25 610.304 247.25C724.591 49.2977 977.75 7.32601 1175.8 121.67C1373.8 235.985 1441.64 489.167 1327.32 687.166C1213.04 885.119 959.878 927.09 761.828 812.746Z" stroke="white" stroke-opacity="0.15"/>
<circle cx="1009.18" cy="611.848" r="413.972" transform="rotate(120 1009.18 611.848)" stroke="white" stroke-opacity="0.15"/>
<circle cx="1049.55" cy="743.515" r="413.972" transform="rotate(120 1049.55 743.515)" stroke="white" stroke-opacity="0.15"/>
<circle cx="1089.92" cy="875.182" r="413.972" transform="rotate(120 1089.92 875.182)" stroke="white" stroke-opacity="0.15"/>
<path d="M638.296 874.193C637.911 875.629 636.887 876.9 635.205 877.993C633.519 879.088 631.202 879.984 628.301 880.668C622.5 882.035 614.468 882.53 604.763 882.159C585.361 881.417 559.382 877.217 531.433 869.728C503.484 862.239 478.886 852.887 461.712 843.829C453.122 839.298 446.414 834.853 442.073 830.768C439.903 828.725 438.344 826.791 437.432 825C436.522 823.213 436.27 821.599 436.655 820.163C437.04 818.727 438.064 817.455 439.746 816.362C441.432 815.267 443.749 814.371 446.65 813.688C452.451 812.321 460.483 811.825 470.188 812.197C489.59 812.939 515.569 817.139 543.518 824.628C571.467 832.116 596.065 841.469 613.239 850.527C621.829 855.058 628.537 859.503 632.878 863.587C635.048 865.63 636.607 867.564 637.519 869.355C638.429 871.143 638.681 872.756 638.296 874.193Z" stroke="#DD4C44"/>
<path d="M518.631 107.374C519.497 104.544 523.503 104.544 524.369 107.374L529.309 123.516C529.918 125.506 532.32 126.287 533.982 125.034L547.467 114.879C549.831 113.099 553.071 115.453 552.109 118.251L546.617 134.214C545.94 136.183 547.424 138.225 549.506 138.19L566.385 137.9C569.343 137.849 570.581 141.658 568.158 143.356L554.332 153.043C552.627 154.237 552.627 156.763 554.332 157.957L568.158 167.644C570.581 169.342 569.343 173.151 566.385 173.1L549.506 172.81C547.424 172.775 545.94 174.817 546.617 176.786L552.109 192.749C553.071 195.547 549.831 197.901 547.467 196.121L533.982 185.966C532.32 184.713 529.918 185.494 529.309 187.484L524.369 203.626C523.503 206.456 519.497 206.456 518.631 203.626L513.691 187.484C513.082 185.494 510.681 184.713 509.018 185.966L495.533 196.121C493.169 197.901 489.929 195.547 490.891 192.749L496.383 176.786C497.06 174.817 495.576 172.775 493.494 172.81L476.616 173.1C473.657 173.151 472.419 169.342 474.843 167.644L488.668 157.957C490.373 156.763 490.373 154.237 488.668 153.043L474.843 143.356C472.419 141.658 473.657 137.849 476.616 137.9L493.494 138.19C495.576 138.225 497.06 136.183 496.383 134.214L490.891 118.251C489.929 115.453 493.169 113.099 495.533 114.879L509.018 125.034C510.681 126.287 513.082 125.506 513.691 123.516L518.631 107.374Z" fill="#DD4C44"/>
<path d="M639.376 118.72C641.328 119.136 642.896 120.112 644.08 121.648C645.264 123.152 645.856 124.88 645.856 126.832C645.856 129.648 644.864 131.888 642.88 133.552C640.928 135.184 638.192 136 634.672 136H618.976V102.304H634.144C637.568 102.304 640.24 103.088 642.16 104.656C644.112 106.224 645.088 108.352 645.088 111.04C645.088 113.024 644.56 114.672 643.504 115.984C642.48 117.296 641.104 118.208 639.376 118.72ZM627.184 115.936H632.56C633.904 115.936 634.928 115.648 635.632 115.072C636.368 114.464 636.736 113.584 636.736 112.432C636.736 111.28 636.368 110.4 635.632 109.792C634.928 109.184 633.904 108.88 632.56 108.88H627.184V115.936ZM633.232 129.376C634.608 129.376 635.664 129.072 636.4 128.464C637.168 127.824 637.552 126.912 637.552 125.728C637.552 124.544 637.152 123.616 636.352 122.944C635.584 122.272 634.512 121.936 633.136 121.936H627.184V129.376H633.232ZM675.865 122.176C675.865 122.944 675.817 123.744 675.721 124.576H657.145C657.273 126.24 657.801 127.52 658.729 128.416C659.689 129.28 660.857 129.712 662.233 129.712C664.281 129.712 665.705 128.848 666.505 127.12H675.241C674.793 128.88 673.977 130.464 672.793 131.872C671.641 133.28 670.185 134.384 668.425 135.184C666.665 135.984 664.697 136.384 662.521 136.384C659.897 136.384 657.561 135.824 655.513 134.704C653.465 133.584 651.865 131.984 650.713 129.904C649.561 127.824 648.985 125.392 648.985 122.608C648.985 119.824 649.545 117.392 650.665 115.312C651.817 113.232 653.417 111.632 655.465 110.512C657.513 109.392 659.865 108.832 662.521 108.832C665.113 108.832 667.417 109.376 669.433 110.464C671.449 111.552 673.017 113.104 674.137 115.12C675.289 117.136 675.865 119.488 675.865 122.176ZM667.465 120.016C667.465 118.608 666.985 117.488 666.025 116.656C665.065 115.824 663.865 115.408 662.425 115.408C661.049 115.408 659.881 115.808 658.921 116.608C657.993 117.408 657.417 118.544 657.193 120.016H667.465ZM688.403 113.68C689.363 112.208 690.563 111.056 692.003 110.224C693.443 109.36 695.043 108.928 696.803 108.928V117.616H694.547C692.499 117.616 690.963 118.064 689.939 118.96C688.915 119.824 688.403 121.36 688.403 123.568V136H680.195V109.216H688.403V113.68ZM710.902 108.832C712.79 108.832 714.438 109.216 715.846 109.984C717.286 110.752 718.39 111.76 719.158 113.008V109.216H727.366V135.952C727.366 138.416 726.87 140.64 725.878 142.624C724.918 144.64 723.43 146.24 721.414 147.424C719.43 148.608 716.95 149.2 713.974 149.2C710.006 149.2 706.79 148.256 704.326 146.368C701.862 144.512 700.454 141.984 700.102 138.784H708.214C708.47 139.808 709.078 140.608 710.038 141.184C710.998 141.792 712.182 142.096 713.59 142.096C715.286 142.096 716.63 141.6 717.622 140.608C718.646 139.648 719.158 138.096 719.158 135.952V132.16C718.358 133.408 717.254 134.432 715.846 135.232C714.438 136 712.79 136.384 710.902 136.384C708.694 136.384 706.694 135.824 704.902 134.704C703.11 133.552 701.686 131.936 700.63 129.856C699.606 127.744 699.094 125.312 699.094 122.56C699.094 119.808 699.606 117.392 700.63 115.312C701.686 113.232 703.11 111.632 704.902 110.512C706.694 109.392 708.694 108.832 710.902 108.832ZM719.158 122.608C719.158 120.56 718.582 118.944 717.43 117.76C716.31 116.576 714.934 115.984 713.302 115.984C711.67 115.984 710.278 116.576 709.126 117.76C708.006 118.912 707.446 120.512 707.446 122.56C707.446 124.608 708.006 126.24 709.126 127.456C710.278 128.64 711.67 129.232 713.302 129.232C714.934 129.232 716.31 128.64 717.43 127.456C718.582 126.272 719.158 124.656 719.158 122.608ZM731.672 122.56C731.672 119.808 732.184 117.392 733.208 115.312C734.264 113.232 735.688 111.632 737.48 110.512C739.272 109.392 741.272 108.832 743.48 108.832C745.368 108.832 747.016 109.216 748.424 109.984C749.864 110.752 750.968 111.76 751.736 113.008V109.216H759.944V136H751.736V132.208C750.936 133.456 749.816 134.464 748.376 135.232C746.968 136 745.32 136.384 743.432 136.384C741.256 136.384 739.272 135.824 737.48 134.704C735.688 133.552 734.264 131.936 733.208 129.856C732.184 127.744 731.672 125.312 731.672 122.56ZM751.736 122.608C751.736 120.56 751.16 118.944 750.008 117.76C748.888 116.576 747.512 115.984 745.88 115.984C744.248 115.984 742.856 116.576 741.704 117.76C740.584 118.912 740.024 120.512 740.024 122.56C740.024 124.608 740.584 126.24 741.704 127.456C742.856 128.64 744.248 129.232 745.88 129.232C747.512 129.232 748.888 128.64 750.008 127.456C751.16 126.272 751.736 124.656 751.736 122.608ZM774.09 113.008C774.858 111.76 775.962 110.752 777.402 109.984C778.842 109.216 780.49 108.832 782.346 108.832C784.554 108.832 786.554 109.392 788.346 110.512C790.138 111.632 791.546 113.232 792.57 115.312C793.626 117.392 794.154 119.808 794.154 122.56C794.154 125.312 793.626 127.744 792.57 129.856C791.546 131.936 790.138 133.552 788.346 134.704C786.554 135.824 784.554 136.384 782.346 136.384C780.458 136.384 778.81 136.016 777.402 135.28C775.994 134.512 774.89 133.504 774.09 132.256V136H765.882V100.48H774.09V113.008ZM785.802 122.56C785.802 120.512 785.226 118.912 784.074 117.76C782.954 116.576 781.562 115.984 779.898 115.984C778.266 115.984 776.874 116.576 775.722 117.76C774.602 118.944 774.042 120.56 774.042 122.608C774.042 124.656 774.602 126.272 775.722 127.456C776.874 128.64 778.266 129.232 779.898 129.232C781.53 129.232 782.922 128.64 784.074 127.456C785.226 126.24 785.802 124.608 785.802 122.56ZM824.908 109.216V136H816.7V132.352C815.868 133.536 814.732 134.496 813.292 135.232C811.884 135.936 810.316 136.288 808.588 136.288C806.54 136.288 804.732 135.84 803.164 134.944C801.596 134.016 800.38 132.688 799.516 130.96C798.652 129.232 798.22 127.2 798.22 124.864V109.216H806.38V123.76C806.38 125.552 806.844 126.944 807.772 127.936C808.7 128.928 809.948 129.424 811.516 129.424C813.116 129.424 814.38 128.928 815.308 127.936C816.236 126.944 816.7 125.552 816.7 123.76V109.216H824.908ZM847.124 108.928C850.26 108.928 852.756 109.952 854.612 112C856.5 114.016 857.444 116.8 857.444 120.352V136H849.284V121.456C849.284 119.664 848.82 118.272 847.892 117.28C846.964 116.288 845.716 115.792 844.148 115.792C842.58 115.792 841.332 116.288 840.404 117.28C839.476 118.272 839.012 119.664 839.012 121.456V136H830.804V109.216H839.012V112.768C839.844 111.584 840.964 110.656 842.372 109.984C843.78 109.28 845.364 108.928 847.124 108.928ZM873.324 108.832C875.212 108.832 876.86 109.216 878.268 109.984C879.708 110.752 880.812 111.76 881.58 113.008V109.216H889.788V135.952C889.788 138.416 889.292 140.64 888.3 142.624C887.34 144.64 885.852 146.24 883.836 147.424C881.852 148.608 879.372 149.2 876.396 149.2C872.428 149.2 869.212 148.256 866.748 146.368C864.284 144.512 862.876 141.984 862.524 138.784H870.636C870.892 139.808 871.5 140.608 872.46 141.184C873.42 141.792 874.604 142.096 876.012 142.096C877.708 142.096 879.052 141.6 880.044 140.608C881.068 139.648 881.58 138.096 881.58 135.952V132.16C880.78 133.408 879.676 134.432 878.268 135.232C876.86 136 875.212 136.384 873.324 136.384C871.116 136.384 869.116 135.824 867.324 134.704C865.532 133.552 864.108 131.936 863.052 129.856C862.028 127.744 861.516 125.312 861.516 122.56C861.516 119.808 862.028 117.392 863.052 115.312C864.108 113.232 865.532 111.632 867.324 110.512C869.116 109.392 871.116 108.832 873.324 108.832ZM881.58 122.608C881.58 120.56 881.004 118.944 879.852 117.76C878.732 116.576 877.356 115.984 875.724 115.984C874.092 115.984 872.7 116.576 871.548 117.76C870.428 118.912 869.868 120.512 869.868 122.56C869.868 124.608 870.428 126.24 871.548 127.456C872.7 128.64 874.092 129.232 875.724 129.232C877.356 129.232 878.732 128.64 879.852 127.456C881.004 126.272 881.58 124.656 881.58 122.608ZM914.106 113.008C914.874 111.76 915.978 110.752 917.418 109.984C918.858 109.216 920.506 108.832 922.362 108.832C924.57 108.832 926.57 109.392 928.362 110.512C930.154 111.632 931.562 113.232 932.586 115.312C933.642 117.392 934.17 119.808 934.17 122.56C934.17 125.312 933.642 127.744 932.586 129.856C931.562 131.936 930.154 133.552 928.362 134.704C926.57 135.824 924.57 136.384 922.362 136.384C920.474 136.384 918.826 136.016 917.418 135.28C916.01 134.512 914.906 133.504 914.106 132.256V136H905.898V100.48H914.106V113.008ZM925.818 122.56C925.818 120.512 925.242 118.912 924.09 117.76C922.97 116.576 921.578 115.984 919.914 115.984C918.282 115.984 916.89 116.576 915.738 117.76C914.618 118.944 914.058 120.56 914.058 122.608C914.058 124.656 914.618 126.272 915.738 127.456C916.89 128.64 918.282 129.232 919.914 129.232C921.546 129.232 922.938 128.64 924.09 127.456C925.242 126.24 925.818 124.608 925.818 122.56ZM963.724 122.176C963.724 122.944 963.676 123.744 963.58 124.576H945.004C945.132 126.24 945.66 127.52 946.588 128.416C947.548 129.28 948.716 129.712 950.092 129.712C952.14 129.712 953.564 128.848 954.364 127.12H963.1C962.652 128.88 961.836 130.464 960.652 131.872C959.5 133.28 958.044 134.384 956.284 135.184C954.524 135.984 952.556 136.384 950.38 136.384C947.756 136.384 945.42 135.824 943.372 134.704C941.324 133.584 939.724 131.984 938.572 129.904C937.42 127.824 936.844 125.392 936.844 122.608C936.844 119.824 937.404 117.392 938.524 115.312C939.676 113.232 941.276 111.632 943.324 110.512C945.372 109.392 947.724 108.832 950.38 108.832C952.972 108.832 955.276 109.376 957.292 110.464C959.308 111.552 960.876 113.104 961.996 115.12C963.148 117.136 963.724 119.488 963.724 122.176ZM955.324 120.016C955.324 118.608 954.844 117.488 953.884 116.656C952.924 115.824 951.724 115.408 950.284 115.408C948.908 115.408 947.74 115.808 946.78 116.608C945.852 117.408 945.276 118.544 945.052 120.016H955.324ZM976.262 113.68C977.222 112.208 978.422 111.056 979.862 110.224C981.302 109.36 982.902 108.928 984.662 108.928V117.616H982.406C980.358 117.616 978.822 118.064 977.798 118.96C976.774 119.824 976.262 121.36 976.262 123.568V136H968.054V109.216H976.262V113.68ZM999.481 136.384C997.145 136.384 995.065 135.984 993.241 135.184C991.417 134.384 989.977 133.296 988.921 131.92C987.865 130.512 987.273 128.944 987.145 127.216H995.257C995.353 128.144 995.785 128.896 996.553 129.472C997.321 130.048 998.265 130.336 999.385 130.336C1000.41 130.336 1001.19 130.144 1001.74 129.76C1002.31 129.344 1002.6 128.816 1002.6 128.176C1002.6 127.408 1002.2 126.848 1001.4 126.496C1000.6 126.112 999.305 125.696 997.513 125.248C995.593 124.8 993.993 124.336 992.713 123.856C991.433 123.344 990.329 122.56 989.401 121.504C988.473 120.416 988.009 118.96 988.009 117.136C988.009 115.6 988.425 114.208 989.257 112.96C990.121 111.68 991.369 110.672 993.001 109.936C994.665 109.2 996.633 108.832 998.905 108.832C1002.27 108.832 1004.91 109.664 1006.83 111.328C1008.78 112.992 1009.9 115.2 1010.19 117.952H1002.6C1002.47 117.024 1002.06 116.288 1001.35 115.744C1000.68 115.2 999.785 114.928 998.665 114.928C997.705 114.928 996.969 115.12 996.457 115.504C995.945 115.856 995.689 116.352 995.689 116.992C995.689 117.76 996.089 118.336 996.889 118.72C997.721 119.104 999.001 119.488 1000.73 119.872C1002.71 120.384 1004.33 120.896 1005.58 121.408C1006.83 121.888 1007.91 122.688 1008.84 123.808C1009.8 124.896 1010.3 126.368 1010.33 128.224C1010.33 129.792 1009.88 131.2 1008.99 132.448C1008.12 133.664 1006.86 134.624 1005.19 135.328C1003.56 136.032 1001.66 136.384 999.481 136.384ZM1013.72 122.56C1013.72 119.808 1014.23 117.392 1015.26 115.312C1016.31 113.232 1017.74 111.632 1019.53 110.512C1021.32 109.392 1023.32 108.832 1025.53 108.832C1027.42 108.832 1029.06 109.216 1030.47 109.984C1031.91 110.752 1033.02 111.76 1033.78 113.008V109.216H1041.99V136H1033.78V132.208C1032.98 133.456 1031.86 134.464 1030.42 135.232C1029.02 136 1027.37 136.384 1025.48 136.384C1023.3 136.384 1021.32 135.824 1019.53 134.704C1017.74 133.552 1016.31 131.936 1015.26 129.856C1014.23 127.744 1013.72 125.312 1013.72 122.56ZM1033.78 122.608C1033.78 120.56 1033.21 118.944 1032.06 117.76C1030.94 116.576 1029.56 115.984 1027.93 115.984C1026.3 115.984 1024.9 116.576 1023.75 117.76C1022.63 118.912 1022.07 120.512 1022.07 122.56C1022.07 124.608 1022.63 126.24 1023.75 127.456C1024.9 128.64 1026.3 129.232 1027.93 129.232C1029.56 129.232 1030.94 128.64 1032.06 127.456C1033.21 126.272 1033.78 124.656 1033.78 122.608ZM1082.11 108.928C1085.43 108.928 1088.07 109.936 1090.03 111.952C1092.01 113.968 1093 116.768 1093 120.352V136H1084.84V121.456C1084.84 119.728 1084.38 118.4 1083.45 117.472C1082.55 116.512 1081.31 116.032 1079.71 116.032C1078.11 116.032 1076.84 116.512 1075.91 117.472C1075.02 118.4 1074.57 119.728 1074.57 121.456V136H1066.41V121.456C1066.41 119.728 1065.95 118.4 1065.02 117.472C1064.12 116.512 1062.87 116.032 1061.27 116.032C1059.67 116.032 1058.41 116.512 1057.48 117.472C1056.59 118.4 1056.14 119.728 1056.14 121.456V136H1047.93V109.216H1056.14V112.576C1056.97 111.456 1058.06 110.576 1059.4 109.936C1060.75 109.264 1062.27 108.928 1063.96 108.928C1065.98 108.928 1067.77 109.36 1069.34 110.224C1070.94 111.088 1072.19 112.32 1073.08 113.92C1074.01 112.448 1075.27 111.248 1076.87 110.32C1078.47 109.392 1080.22 108.928 1082.11 108.928ZM1097.11 122.56C1097.11 119.808 1097.62 117.392 1098.65 115.312C1099.7 113.232 1101.13 111.632 1102.92 110.512C1104.71 109.392 1106.71 108.832 1108.92 108.832C1110.81 108.832 1112.45 109.216 1113.86 109.984C1115.3 110.752 1116.41 111.76 1117.17 113.008V109.216H1125.38V136H1117.17V132.208C1116.37 133.456 1115.25 134.464 1113.81 135.232C1112.41 136 1110.76 136.384 1108.87 136.384C1106.69 136.384 1104.71 135.824 1102.92 134.704C1101.13 133.552 1099.7 131.936 1098.65 129.856C1097.62 127.744 1097.11 125.312 1097.11 122.56ZM1117.17 122.608C1117.17 120.56 1116.6 118.944 1115.45 117.76C1114.33 116.576 1112.95 115.984 1111.32 115.984C1109.69 115.984 1108.29 116.576 1107.14 117.76C1106.02 118.912 1105.46 120.512 1105.46 122.56C1105.46 124.608 1106.02 126.24 1107.14 127.456C1108.29 128.64 1109.69 129.232 1111.32 129.232C1112.95 129.232 1114.33 128.64 1115.45 127.456C1116.6 126.272 1117.17 124.656 1117.17 122.608ZM635.344 208L627.184 196.768V208H618.976V172.48H627.184V192.112L635.296 181.216H645.424L634.288 194.656L645.52 208H635.344ZM647.016 194.56C647.016 191.808 647.528 189.392 648.552 187.312C649.608 185.232 651.032 183.632 652.824 182.512C654.616 181.392 656.616 180.832 658.824 180.832C660.712 180.832 662.36 181.216 663.768 181.984C665.208 182.752 666.312 183.76 667.08 185.008V181.216H675.288V208H667.08V204.208C666.28 205.456 665.16 206.464 663.72 207.232C662.312 208 660.664 208.384 658.776 208.384C656.6 208.384 654.616 207.824 652.824 206.704C651.032 205.552 649.608 203.936 648.552 201.856C647.528 199.744 647.016 197.312 647.016 194.56ZM667.08 194.608C667.08 192.56 666.504 190.944 665.352 189.76C664.232 188.576 662.856 187.984 661.224 187.984C659.592 187.984 658.2 188.576 657.048 189.76C655.928 190.912 655.368 192.512 655.368 194.56C655.368 196.608 655.928 198.24 657.048 199.456C658.2 200.64 659.592 201.232 661.224 201.232C662.856 201.232 664.232 200.64 665.352 199.456C666.504 198.272 667.08 196.656 667.08 194.608ZM715.402 180.928C718.73 180.928 721.37 181.936 723.322 183.952C725.306 185.968 726.298 188.768 726.298 192.352V208H718.138V193.456C718.138 191.728 717.674 190.4 716.746 189.472C715.85 188.512 714.602 188.032 713.002 188.032C711.402 188.032 710.138 188.512 709.21 189.472C708.314 190.4 707.866 191.728 707.866 193.456V208H699.706V193.456C699.706 191.728 699.242 190.4 698.314 189.472C697.418 188.512 696.17 188.032 694.57 188.032C692.97 188.032 691.706 188.512 690.778 189.472C689.882 190.4 689.434 191.728 689.434 193.456V208H681.226V181.216H689.434V184.576C690.266 183.456 691.354 182.576 692.698 181.936C694.042 181.264 695.562 180.928 697.258 180.928C699.274 180.928 701.066 181.36 702.634 182.224C704.234 183.088 705.482 184.32 706.378 185.92C707.306 184.448 708.57 183.248 710.17 182.32C711.77 181.392 713.514 180.928 715.402 180.928ZM736.167 178.432C734.727 178.432 733.543 178.016 732.615 177.184C731.719 176.32 731.271 175.264 731.271 174.016C731.271 172.736 731.719 171.68 732.615 170.848C733.543 169.984 734.727 169.552 736.167 169.552C737.575 169.552 738.727 169.984 739.623 170.848C740.551 171.68 741.015 172.736 741.015 174.016C741.015 175.264 740.551 176.32 739.623 177.184C738.727 178.016 737.575 178.432 736.167 178.432ZM740.247 181.216V208H732.039V181.216H740.247ZM767.263 208.384C764.927 208.384 762.847 207.984 761.023 207.184C759.199 206.384 757.759 205.296 756.703 203.92C755.647 202.512 755.055 200.944 754.927 199.216H763.039C763.135 200.144 763.567 200.896 764.335 201.472C765.103 202.048 766.047 202.336 767.167 202.336C768.191 202.336 768.975 202.144 769.519 201.76C770.095 201.344 770.383 200.816 770.383 200.176C770.383 199.408 769.983 198.848 769.183 198.496C768.383 198.112 767.087 197.696 765.295 197.248C763.375 196.8 761.775 196.336 760.495 195.856C759.215 195.344 758.111 194.56 757.183 193.504C756.255 192.416 755.791 190.96 755.791 189.136C755.791 187.6 756.207 186.208 757.039 184.96C757.903 183.68 759.151 182.672 760.783 181.936C762.447 181.2 764.415 180.832 766.687 180.832C770.047 180.832 772.687 181.664 774.607 183.328C776.559 184.992 777.679 187.2 777.967 189.952H770.383C770.255 189.024 769.839 188.288 769.135 187.744C768.463 187.2 767.567 186.928 766.447 186.928C765.487 186.928 764.751 187.12 764.239 187.504C763.727 187.856 763.471 188.352 763.471 188.992C763.471 189.76 763.871 190.336 764.671 190.72C765.503 191.104 766.783 191.488 768.511 191.872C770.495 192.384 772.111 192.896 773.359 193.408C774.607 193.888 775.695 194.688 776.623 195.808C777.583 196.896 778.079 198.368 778.111 200.224C778.111 201.792 777.663 203.2 776.767 204.448C775.903 205.664 774.639 206.624 772.975 207.328C771.343 208.032 769.439 208.384 767.263 208.384ZM808.38 194.176C808.38 194.944 808.332 195.744 808.236 196.576H789.66C789.788 198.24 790.316 199.52 791.244 200.416C792.204 201.28 793.372 201.712 794.748 201.712C796.796 201.712 798.22 200.848 799.02 199.12H807.756C807.308 200.88 806.492 202.464 805.308 203.872C804.156 205.28 802.7 206.384 800.94 207.184C799.18 207.984 797.212 208.384 795.036 208.384C792.412 208.384 790.076 207.824 788.028 206.704C785.98 205.584 784.38 203.984 783.228 201.904C782.076 199.824 781.5 197.392 781.5 194.608C781.5 191.824 782.06 189.392 783.18 187.312C784.332 185.232 785.932 183.632 787.98 182.512C790.028 181.392 792.38 180.832 795.036 180.832C797.628 180.832 799.932 181.376 801.948 182.464C803.964 183.552 805.532 185.104 806.652 187.12C807.804 189.136 808.38 191.488 808.38 194.176ZM799.98 192.016C799.98 190.608 799.5 189.488 798.54 188.656C797.58 187.824 796.38 187.408 794.94 187.408C793.564 187.408 792.396 187.808 791.436 188.608C790.508 189.408 789.932 190.544 789.708 192.016H799.98ZM829.078 208L820.918 196.768V208H812.71V172.48H820.918V192.112L829.03 181.216H839.158L828.022 194.656L839.254 208H829.078ZM840.75 194.56C840.75 191.808 841.262 189.392 842.286 187.312C843.342 185.232 844.766 183.632 846.558 182.512C848.35 181.392 850.35 180.832 852.558 180.832C854.446 180.832 856.094 181.216 857.502 181.984C858.942 182.752 860.046 183.76 860.814 185.008V181.216H869.022V208H860.814V204.208C860.014 205.456 858.894 206.464 857.454 207.232C856.046 208 854.398 208.384 852.51 208.384C850.334 208.384 848.35 207.824 846.558 206.704C844.766 205.552 843.342 203.936 842.286 201.856C841.262 199.744 840.75 197.312 840.75 194.56ZM860.814 194.608C860.814 192.56 860.238 190.944 859.086 189.76C857.966 188.576 856.59 187.984 854.958 187.984C853.326 187.984 851.934 188.576 850.782 189.76C849.662 190.912 849.102 192.512 849.102 194.56C849.102 196.608 849.662 198.24 850.782 199.456C851.934 200.64 853.326 201.232 854.958 201.232C856.59 201.232 857.966 200.64 859.086 199.456C860.238 198.272 860.814 196.656 860.814 194.608ZM883.168 185.68C884.128 184.208 885.328 183.056 886.768 182.224C888.208 181.36 889.808 180.928 891.568 180.928V189.616H889.312C887.264 189.616 885.728 190.064 884.704 190.96C883.68 191.824 883.168 193.36 883.168 195.568V208H874.96V181.216H883.168V185.68ZM893.86 194.56C893.86 191.808 894.372 189.392 895.396 187.312C896.452 185.232 897.876 183.632 899.668 182.512C901.46 181.392 903.46 180.832 905.668 180.832C907.556 180.832 909.204 181.216 910.612 181.984C912.052 182.752 913.156 183.76 913.924 185.008V181.216H922.132V208H913.924V204.208C913.124 205.456 912.004 206.464 910.564 207.232C909.156 208 907.508 208.384 905.62 208.384C903.444 208.384 901.46 207.824 899.668 206.704C897.876 205.552 896.452 203.936 895.396 201.856C894.372 199.744 893.86 197.312 893.86 194.56ZM913.924 194.608C913.924 192.56 913.348 190.944 912.196 189.76C911.076 188.576 909.7 187.984 908.068 187.984C906.436 187.984 905.044 188.576 903.892 189.76C902.772 190.912 902.212 192.512 902.212 194.56C902.212 196.608 902.772 198.24 903.892 199.456C905.044 200.64 906.436 201.232 908.068 201.232C909.7 201.232 911.076 200.64 912.196 199.456C913.348 198.272 913.924 196.656 913.924 194.608ZM944.39 180.928C947.526 180.928 950.022 181.952 951.878 184C953.766 186.016 954.71 188.8 954.71 192.352V208H946.55V193.456C946.55 191.664 946.086 190.272 945.158 189.28C944.23 188.288 942.982 187.792 941.414 187.792C939.846 187.792 938.598 188.288 937.67 189.28C936.742 190.272 936.278 191.664 936.278 193.456V208H928.07V181.216H936.278V184.768C937.11 183.584 938.23 182.656 939.638 181.984C941.046 181.28 942.63 180.928 944.39 180.928ZM970.59 180.832C972.478 180.832 974.126 181.216 975.534 181.984C976.974 182.752 978.078 183.76 978.846 185.008V181.216H987.054V207.952C987.054 210.416 986.558 212.64 985.566 214.624C984.606 216.64 983.118 218.24 981.102 219.424C979.118 220.608 976.638 221.2 973.662 221.2C969.694 221.2 966.478 220.256 964.014 218.368C961.55 216.512 960.142 213.984 959.79 210.784H967.902C968.158 211.808 968.766 212.608 969.726 213.184C970.686 213.792 971.87 214.096 973.278 214.096C974.974 214.096 976.318 213.6 977.31 212.608C978.334 211.648 978.846 210.096 978.846 207.952V204.16C978.046 205.408 976.942 206.432 975.534 207.232C974.126 208 972.478 208.384 970.59 208.384C968.382 208.384 966.382 207.824 964.59 206.704C962.798 205.552 961.374 203.936 960.318 201.856C959.294 199.744 958.782 197.312 958.782 194.56C958.782 191.808 959.294 189.392 960.318 187.312C961.374 185.232 962.798 183.632 964.59 182.512C966.382 181.392 968.382 180.832 970.59 180.832ZM978.846 194.608C978.846 192.56 978.27 190.944 977.118 189.76C975.998 188.576 974.622 187.984 972.99 187.984C971.358 187.984 969.966 188.576 968.814 189.76C967.694 190.912 967.134 192.512 967.134 194.56C967.134 196.608 967.694 198.24 968.814 199.456C969.966 200.64 971.358 201.232 972.99 201.232C974.622 201.232 975.998 200.64 977.118 199.456C978.27 198.272 978.846 196.656 978.846 194.608ZM1007.24 178.432C1005.8 178.432 1004.62 178.016 1003.69 177.184C1002.8 176.32 1002.35 175.264 1002.35 174.016C1002.35 172.736 1002.8 171.68 1003.69 170.848C1004.62 169.984 1005.8 169.552 1007.24 169.552C1008.65 169.552 1009.8 169.984 1010.7 170.848C1011.63 171.68 1012.09 172.736 1012.09 174.016C1012.09 175.264 1011.63 176.32 1010.7 177.184C1009.8 178.016 1008.65 178.432 1007.24 178.432ZM1011.37 211.456C1011.37 214.752 1010.54 217.12 1008.88 218.56C1007.21 220.032 1004.89 220.768 1001.92 220.768H998.7V213.808H1000.67C1001.56 213.808 1002.2 213.632 1002.59 213.28C1002.97 212.928 1003.16 212.352 1003.16 211.552V181.216H1011.37V211.456ZM1043.72 181.216V208H1035.51V204.352C1034.68 205.536 1033.54 206.496 1032.1 207.232C1030.7 207.936 1029.13 208.288 1027.4 208.288C1025.35 208.288 1023.54 207.84 1021.98 206.944C1020.41 206.016 1019.19 204.688 1018.33 202.96C1017.46 201.232 1017.03 199.2 1017.03 196.864V181.216H1025.19V195.76C1025.19 197.552 1025.66 198.944 1026.58 199.936C1027.51 200.928 1028.76 201.424 1030.33 201.424C1031.93 201.424 1033.19 200.928 1034.12 199.936C1035.05 198.944 1035.51 197.552 1035.51 195.76V181.216H1043.72ZM1059.79 180.832C1061.68 180.832 1063.33 181.216 1064.74 181.984C1066.18 182.752 1067.28 183.76 1068.05 185.008V181.216H1076.26V207.952C1076.26 210.416 1075.76 212.64 1074.77 214.624C1073.81 216.64 1072.32 218.24 1070.3 219.424C1068.32 220.608 1065.84 221.2 1062.86 221.2C1058.9 221.2 1055.68 220.256 1053.22 218.368C1050.75 216.512 1049.34 213.984 1048.99 210.784H1057.1C1057.36 211.808 1057.97 212.608 1058.93 213.184C1059.89 213.792 1061.07 214.096 1062.48 214.096C1064.18 214.096 1065.52 213.6 1066.51 212.608C1067.54 211.648 1068.05 210.096 1068.05 207.952V204.16C1067.25 205.408 1066.14 206.432 1064.74 207.232C1063.33 208 1061.68 208.384 1059.79 208.384C1057.58 208.384 1055.58 207.824 1053.79 206.704C1052 205.552 1050.58 203.936 1049.52 201.856C1048.5 199.744 1047.98 197.312 1047.98 194.56C1047.98 191.808 1048.5 189.392 1049.52 187.312C1050.58 185.232 1052 183.632 1053.79 182.512C1055.58 181.392 1057.58 180.832 1059.79 180.832ZM1068.05 194.608C1068.05 192.56 1067.47 190.944 1066.32 189.76C1065.2 188.576 1063.82 187.984 1062.19 187.984C1060.56 187.984 1059.17 188.576 1058.02 189.76C1056.9 190.912 1056.34 192.512 1056.34 194.56C1056.34 196.608 1056.9 198.24 1058.02 199.456C1059.17 200.64 1060.56 201.232 1062.19 201.232C1063.82 201.232 1065.2 200.64 1066.32 199.456C1067.47 198.272 1068.05 196.656 1068.05 194.608ZM1080.56 194.56C1080.56 191.808 1081.07 189.392 1082.1 187.312C1083.15 185.232 1084.58 183.632 1086.37 182.512C1088.16 181.392 1090.16 180.832 1092.37 180.832C1094.26 180.832 1095.91 181.216 1097.31 181.984C1098.75 182.752 1099.86 183.76 1100.63 185.008V181.216H1108.83V208H1100.63V204.208C1099.83 205.456 1098.71 206.464 1097.27 207.232C1095.86 208 1094.21 208.384 1092.32 208.384C1090.15 208.384 1088.16 207.824 1086.37 206.704C1084.58 205.552 1083.15 203.936 1082.1 201.856C1081.07 199.744 1080.56 197.312 1080.56 194.56ZM1100.63 194.608C1100.63 192.56 1100.05 190.944 1098.9 189.76C1097.78 188.576 1096.4 187.984 1094.77 187.984C1093.14 187.984 1091.75 188.576 1090.59 189.76C1089.47 190.912 1088.91 192.512 1088.91 194.56C1088.91 196.608 1089.47 198.24 1090.59 199.456C1091.75 200.64 1093.14 201.232 1094.77 201.232C1096.4 201.232 1097.78 200.64 1098.9 199.456C1100.05 198.272 1100.63 196.656 1100.63 194.608Z" fill="white"/>
<path d="M684.668 283.538C685.124 283.61 685.538 283.796 685.91 284.096C686.294 284.396 686.594 284.768 686.81 285.212C687.038 285.656 687.152 286.13 687.152 286.634C687.152 287.27 686.99 287.846 686.666 288.362C686.342 288.866 685.868 289.268 685.244 289.568C684.632 289.856 683.906 290 683.066 290H678.386V277.454H682.886C683.738 277.454 684.464 277.598 685.064 277.886C685.664 278.162 686.114 278.54 686.414 279.02C686.714 279.5 686.864 280.04 686.864 280.64C686.864 281.384 686.66 282.002 686.252 282.494C685.856 282.974 685.328 283.322 684.668 283.538ZM680.024 282.872H682.778C683.546 282.872 684.14 282.692 684.56 282.332C684.98 281.972 685.19 281.474 685.19 280.838C685.19 280.202 684.98 279.704 684.56 279.344C684.14 278.984 683.534 278.804 682.742 278.804H680.024V282.872ZM682.922 288.65C683.738 288.65 684.374 288.458 684.83 288.074C685.286 287.69 685.514 287.156 685.514 286.472C685.514 285.776 685.274 285.23 684.794 284.834C684.314 284.426 683.672 284.222 682.868 284.222H680.024V288.65H682.922ZM698.425 284.69C698.425 285.002 698.407 285.332 698.371 285.68H690.487C690.547 286.652 690.877 287.414 691.477 287.966C692.089 288.506 692.827 288.776 693.691 288.776C694.399 288.776 694.987 288.614 695.455 288.29C695.935 287.954 696.271 287.51 696.463 286.958H698.227C697.963 287.906 697.435 288.68 696.643 289.28C695.851 289.868 694.867 290.162 693.691 290.162C692.755 290.162 691.915 289.952 691.171 289.532C690.439 289.112 689.863 288.518 689.443 287.75C689.023 286.97 688.813 286.07 688.813 285.05C688.813 284.03 689.017 283.136 689.425 282.368C689.833 281.6 690.403 281.012 691.135 280.604C691.879 280.184 692.731 279.974 693.691 279.974C694.627 279.974 695.455 280.178 696.175 280.586C696.895 280.994 697.447 281.558 697.831 282.278C698.227 282.986 698.425 283.79 698.425 284.69ZM696.733 284.348C696.733 283.724 696.595 283.19 696.319 282.746C696.043 282.29 695.665 281.948 695.185 281.72C694.717 281.48 694.195 281.36 693.619 281.36C692.791 281.36 692.083 281.624 691.495 282.152C690.919 282.68 690.589 283.412 690.505 284.348H696.733ZM702.225 281.738C702.513 281.174 702.921 280.736 703.449 280.424C703.989 280.112 704.643 279.956 705.411 279.956V281.648H704.979C703.143 281.648 702.225 282.644 702.225 284.636V290H700.587V280.136H702.225V281.738ZM710.794 290.162C710.038 290.162 709.36 290.036 708.76 289.784C708.16 289.52 707.686 289.16 707.338 288.704C706.99 288.236 706.798 287.702 706.762 287.102H708.454C708.502 287.594 708.73 287.996 709.138 288.308C709.558 288.62 710.104 288.776 710.776 288.776C711.4 288.776 711.892 288.638 712.252 288.362C712.612 288.086 712.792 287.738 712.792 287.318C712.792 286.886 712.6 286.568 712.216 286.364C711.832 286.148 711.238 285.938 710.434 285.734C709.702 285.542 709.102 285.35 708.634 285.158C708.178 284.954 707.782 284.66 707.446 284.276C707.122 283.88 706.96 283.364 706.96 282.728C706.96 282.224 707.11 281.762 707.41 281.342C707.71 280.922 708.136 280.592 708.688 280.352C709.24 280.1 709.87 279.974 710.578 279.974C711.67 279.974 712.552 280.25 713.224 280.802C713.896 281.354 714.256 282.11 714.304 283.07H712.666C712.63 282.554 712.42 282.14 712.036 281.828C711.664 281.516 711.16 281.36 710.524 281.36C709.936 281.36 709.468 281.486 709.12 281.738C708.772 281.99 708.598 282.32 708.598 282.728C708.598 283.052 708.7 283.322 708.904 283.538C709.12 283.742 709.384 283.91 709.696 284.042C710.02 284.162 710.464 284.3 711.028 284.456C711.736 284.648 712.312 284.84 712.756 285.032C713.2 285.212 713.578 285.488 713.89 285.86C714.214 286.232 714.382 286.718 714.394 287.318C714.394 287.858 714.244 288.344 713.944 288.776C713.644 289.208 713.218 289.55 712.666 289.802C712.126 290.042 711.502 290.162 710.794 290.162ZM716.094 285.032C716.094 284.024 716.298 283.142 716.706 282.386C717.114 281.618 717.672 281.024 718.38 280.604C719.1 280.184 719.898 279.974 720.774 279.974C721.638 279.974 722.388 280.16 723.024 280.532C723.66 280.904 724.134 281.372 724.446 281.936V280.136H726.102V290H724.446V288.164C724.122 288.74 723.636 289.22 722.988 289.604C722.352 289.976 721.608 290.162 720.756 290.162C719.88 290.162 719.088 289.946 718.38 289.514C717.672 289.082 717.114 288.476 716.706 287.696C716.298 286.916 716.094 286.028 716.094 285.032ZM724.446 285.05C724.446 284.306 724.296 283.658 723.996 283.106C723.696 282.554 723.288 282.134 722.772 281.846C722.268 281.546 721.71 281.396 721.098 281.396C720.486 281.396 719.928 281.54 719.424 281.828C718.92 282.116 718.518 282.536 718.218 283.088C717.918 283.64 717.768 284.288 717.768 285.032C717.768 285.788 717.918 286.448 718.218 287.012C718.518 287.564 718.92 287.99 719.424 288.29C719.928 288.578 720.486 288.722 721.098 288.722C721.71 288.722 722.268 288.578 722.772 288.29C723.288 287.99 723.696 287.564 723.996 287.012C724.296 286.448 724.446 285.794 724.446 285.05ZM740.732 279.956C741.5 279.956 742.184 280.118 742.784 280.442C743.384 280.754 743.858 281.228 744.206 281.864C744.554 282.5 744.728 283.274 744.728 284.186V290H743.108V284.42C743.108 283.436 742.862 282.686 742.37 282.17C741.89 281.642 741.236 281.378 740.408 281.378C739.556 281.378 738.878 281.654 738.374 282.206C737.87 282.746 737.618 283.532 737.618 284.564V290H735.998V284.42C735.998 283.436 735.752 282.686 735.26 282.17C734.78 281.642 734.126 281.378 733.298 281.378C732.446 281.378 731.768 281.654 731.264 282.206C730.76 282.746 730.508 283.532 730.508 284.564V290H728.87V280.136H730.508V281.558C730.832 281.042 731.264 280.646 731.804 280.37C732.356 280.094 732.962 279.956 733.622 279.956C734.45 279.956 735.182 280.142 735.818 280.514C736.454 280.886 736.928 281.432 737.24 282.152C737.516 281.456 737.972 280.916 738.608 280.532C739.244 280.148 739.952 279.956 740.732 279.956ZM746.803 285.032C746.803 284.024 747.007 283.142 747.415 282.386C747.823 281.618 748.381 281.024 749.089 280.604C749.809 280.184 750.607 279.974 751.483 279.974C752.347 279.974 753.097 280.16 753.733 280.532C754.369 280.904 754.843 281.372 755.155 281.936V280.136H756.811V290H755.155V288.164C754.831 288.74 754.345 289.22 753.697 289.604C753.061 289.976 752.317 290.162 751.465 290.162C750.589 290.162 749.797 289.946 749.089 289.514C748.381 289.082 747.823 288.476 747.415 287.696C747.007 286.916 746.803 286.028 746.803 285.032ZM755.155 285.05C755.155 284.306 755.005 283.658 754.705 283.106C754.405 282.554 753.997 282.134 753.481 281.846C752.977 281.546 752.419 281.396 751.807 281.396C751.195 281.396 750.637 281.54 750.133 281.828C749.629 282.116 749.227 282.536 748.927 283.088C748.627 283.64 748.477 284.288 748.477 285.032C748.477 285.788 748.627 286.448 748.927 287.012C749.227 287.564 749.629 287.99 750.133 288.29C750.637 288.578 751.195 288.722 751.807 288.722C752.419 288.722 752.977 288.578 753.481 288.29C753.997 287.99 754.405 287.564 754.705 287.012C755.005 286.448 755.155 285.794 755.155 285.05ZM769.886 290L766.016 285.644V290H764.378V276.68H766.016V284.51L769.814 280.136H772.1L767.456 285.05L772.118 290H769.886ZM774.488 278.534C774.176 278.534 773.912 278.426 773.696 278.21C773.48 277.994 773.372 277.73 773.372 277.418C773.372 277.106 773.48 276.842 773.696 276.626C773.912 276.41 774.176 276.302 774.488 276.302C774.788 276.302 775.04 276.41 775.244 276.626C775.46 276.842 775.568 277.106 775.568 277.418C775.568 277.73 775.46 277.994 775.244 278.21C775.04 278.426 774.788 278.534 774.488 278.534ZM775.28 280.136V290H773.642V280.136H775.28ZM780.07 281.486V287.3C780.07 287.78 780.172 288.122 780.376 288.326C780.58 288.518 780.934 288.614 781.438 288.614H782.644V290H781.168C780.256 290 779.572 289.79 779.116 289.37C778.66 288.95 778.432 288.26 778.432 287.3V281.486H777.154V280.136H778.432V277.652H780.07V280.136H782.644V281.486H780.07ZM784.016 285.032C784.016 284.024 784.22 283.142 784.628 282.386C785.036 281.618 785.594 281.024 786.302 280.604C787.022 280.184 787.82 279.974 788.696 279.974C789.56 279.974 790.31 280.16 790.946 280.532C791.582 280.904 792.056 281.372 792.368 281.936V280.136H794.024V290H792.368V288.164C792.044 288.74 791.558 289.22 790.91 289.604C790.274 289.976 789.53 290.162 788.678 290.162C787.802 290.162 787.01 289.946 786.302 289.514C785.594 289.082 785.036 288.476 784.628 287.696C784.22 286.916 784.016 286.028 784.016 285.032ZM792.368 285.05C792.368 284.306 792.218 283.658 791.918 283.106C791.618 282.554 791.21 282.134 790.694 281.846C790.19 281.546 789.632 281.396 789.02 281.396C788.408 281.396 787.85 281.54 787.346 281.828C786.842 282.116 786.44 282.536 786.14 283.088C785.84 283.64 785.69 284.288 785.69 285.032C785.69 285.788 785.84 286.448 786.14 287.012C786.44 287.564 786.842 287.99 787.346 288.29C787.85 288.578 788.408 288.722 789.02 288.722C789.632 288.722 790.19 288.578 790.694 288.29C791.21 287.99 791.618 287.564 791.918 287.012C792.218 286.448 792.368 285.794 792.368 285.05ZM814.731 280.136L811.653 290H809.961L807.585 282.17L805.209 290H803.517L800.421 280.136H802.095L804.363 288.416L806.811 280.136H808.485L810.879 288.434L813.111 280.136H814.731ZM825.105 280.136V290H823.467V288.542C823.155 289.046 822.717 289.442 822.153 289.73C821.601 290.006 820.989 290.144 820.317 290.144C819.549 290.144 818.859 289.988 818.247 289.676C817.635 289.352 817.149 288.872 816.789 288.236C816.441 287.6 816.267 286.826 816.267 285.914V280.136H817.887V285.698C817.887 286.67 818.133 287.42 818.625 287.948C819.117 288.464 819.789 288.722 820.641 288.722C821.517 288.722 822.207 288.452 822.711 287.912C823.215 287.372 823.467 286.586 823.467 285.554V280.136H825.105ZM828.752 278.534C828.44 278.534 828.176 278.426 827.96 278.21C827.756 277.994 827.654 277.73 827.654 277.418C827.654 277.106 827.756 276.842 827.96 276.626C828.176 276.41 828.44 276.302 828.752 276.302C829.064 276.302 829.322 276.41 829.526 276.626C829.742 276.842 829.85 277.106 829.85 277.418C829.85 277.73 829.742 277.994 829.526 278.21C829.322 278.426 829.064 278.534 828.752 278.534ZM829.562 292.142C829.562 293.018 829.34 293.66 828.896 294.068C828.452 294.476 827.804 294.68 826.952 294.68H825.998V293.294H826.682C827.138 293.294 827.456 293.204 827.636 293.024C827.828 292.844 827.924 292.538 827.924 292.106V280.136H829.562V292.142ZM841.083 280.136V290H839.445V288.542C839.133 289.046 838.695 289.442 838.131 289.73C837.579 290.006 836.967 290.144 836.295 290.144C835.527 290.144 834.837 289.988 834.225 289.676C833.613 289.352 833.127 288.872 832.767 288.236C832.419 287.6 832.245 286.826 832.245 285.914V280.136H833.865V285.698C833.865 286.67 834.111 287.42 834.603 287.948C835.095 288.464 835.767 288.722 836.619 288.722C837.495 288.722 838.185 288.452 838.689 287.912C839.193 287.372 839.445 286.586 839.445 285.554V280.136H841.083ZM843.237 285.032C843.237 284.024 843.441 283.142 843.849 282.386C844.257 281.618 844.815 281.024 845.523 280.604C846.243 280.184 847.047 279.974 847.935 279.974C848.703 279.974 849.417 280.154 850.077 280.514C850.737 280.862 851.241 281.324 851.589 281.9V276.68H853.245V290H851.589V288.146C851.265 288.734 850.785 289.22 850.149 289.604C849.513 289.976 848.769 290.162 847.917 290.162C847.041 290.162 846.243 289.946 845.523 289.514C844.815 289.082 844.257 288.476 843.849 287.696C843.441 286.916 843.237 286.028 843.237 285.032ZM851.589 285.05C851.589 284.306 851.439 283.658 851.139 283.106C850.839 282.554 850.431 282.134 849.915 281.846C849.411 281.546 848.853 281.396 848.241 281.396C847.629 281.396 847.071 281.54 846.567 281.828C846.063 282.116 845.661 282.536 845.361 283.088C845.061 283.64 844.911 284.288 844.911 285.032C844.911 285.788 845.061 286.448 845.361 287.012C845.661 287.564 846.063 287.99 846.567 288.29C847.071 288.578 847.629 288.722 848.241 288.722C848.853 288.722 849.411 288.578 849.915 288.29C850.431 287.99 850.839 287.564 851.139 287.012C851.439 286.448 851.589 285.794 851.589 285.05ZM861.521 290L857.651 285.644V290H856.013V276.68H857.651V284.51L861.449 280.136H863.735L859.091 285.05L863.753 290H861.521ZM864.665 285.032C864.665 284.024 864.869 283.142 865.277 282.386C865.685 281.618 866.243 281.024 866.951 280.604C867.671 280.184 868.469 279.974 869.345 279.974C870.209 279.974 870.959 280.16 871.595 280.532C872.231 280.904 872.705 281.372 873.017 281.936V280.136H874.673V290H873.017V288.164C872.693 288.74 872.207 289.22 871.559 289.604C870.923 289.976 870.179 290.162 869.327 290.162C868.451 290.162 867.659 289.946 866.951 289.514C866.243 289.082 865.685 288.476 865.277 287.696C864.869 286.916 864.665 286.028 864.665 285.032ZM873.017 285.05C873.017 284.306 872.867 283.658 872.567 283.106C872.267 282.554 871.859 282.134 871.343 281.846C870.839 281.546 870.281 281.396 869.669 281.396C869.057 281.396 868.499 281.54 867.995 281.828C867.491 282.116 867.089 282.536 866.789 283.088C866.489 283.64 866.339 284.288 866.339 285.032C866.339 285.788 866.489 286.448 866.789 287.012C867.089 287.564 867.491 287.99 867.995 288.29C868.499 288.578 869.057 288.722 869.669 288.722C870.281 288.722 870.839 288.578 871.343 288.29C871.859 287.99 872.267 287.564 872.567 287.012C872.867 286.448 873.017 285.794 873.017 285.05ZM882.247 279.956C883.447 279.956 884.419 280.322 885.163 281.054C885.907 281.774 886.279 282.818 886.279 284.186V290H884.659V284.42C884.659 283.436 884.413 282.686 883.921 282.17C883.429 281.642 882.757 281.378 881.905 281.378C881.041 281.378 880.351 281.648 879.835 282.188C879.331 282.728 879.079 283.514 879.079 284.546V290H877.441V280.136H879.079V281.54C879.403 281.036 879.841 280.646 880.393 280.37C880.957 280.094 881.575 279.956 882.247 279.956ZM906.479 277.544V290H904.841V280.712L900.701 290H899.549L895.391 280.694V290H893.753V277.544H895.517L900.125 287.84L904.733 277.544H906.479ZM918.005 280.136V290H916.367V288.542C916.055 289.046 915.617 289.442 915.053 289.73C914.501 290.006 913.889 290.144 913.217 290.144C912.449 290.144 911.759 289.988 911.147 289.676C910.535 289.352 910.049 288.872 909.689 288.236C909.341 287.6 909.167 286.826 909.167 285.914V280.136H910.787V285.698C910.787 286.67 911.033 287.42 911.525 287.948C912.017 288.464 912.689 288.722 913.541 288.722C914.417 288.722 915.107 288.452 915.611 287.912C916.115 287.372 916.367 286.586 916.367 285.554V280.136H918.005ZM920.159 285.032C920.159 284.024 920.363 283.142 920.771 282.386C921.179 281.618 921.737 281.024 922.445 280.604C923.165 280.184 923.969 279.974 924.857 279.974C925.625 279.974 926.339 280.154 926.999 280.514C927.659 280.862 928.163 281.324 928.511 281.9V276.68H930.167V290H928.511V288.146C928.187 288.734 927.707 289.22 927.071 289.604C926.435 289.976 925.691 290.162 924.839 290.162C923.963 290.162 923.165 289.946 922.445 289.514C921.737 289.082 921.179 288.476 920.771 287.696C920.363 286.916 920.159 286.028 920.159 285.032ZM928.511 285.05C928.511 284.306 928.361 283.658 928.061 283.106C927.761 282.554 927.353 282.134 926.837 281.846C926.333 281.546 925.775 281.396 925.163 281.396C924.551 281.396 923.993 281.54 923.489 281.828C922.985 282.116 922.583 282.536 922.283 283.088C921.983 283.64 921.833 284.288 921.833 285.032C921.833 285.788 921.983 286.448 922.283 287.012C922.583 287.564 922.985 287.99 923.489 288.29C923.993 288.578 924.551 288.722 925.163 288.722C925.775 288.722 926.333 288.578 926.837 288.29C927.353 287.99 927.761 287.564 928.061 287.012C928.361 286.448 928.511 285.794 928.511 285.05ZM932.323 285.032C932.323 284.024 932.527 283.142 932.935 282.386C933.343 281.618 933.901 281.024 934.609 280.604C935.329 280.184 936.127 279.974 937.003 279.974C937.867 279.974 938.617 280.16 939.253 280.532C939.889 280.904 940.363 281.372 940.675 281.936V280.136H942.331V290H940.675V288.164C940.351 288.74 939.865 289.22 939.217 289.604C938.581 289.976 937.837 290.162 936.985 290.162C936.109 290.162 935.317 289.946 934.609 289.514C933.901 289.082 933.343 288.476 932.935 287.696C932.527 286.916 932.323 286.028 932.323 285.032ZM940.675 285.05C940.675 284.306 940.525 283.658 940.225 283.106C939.925 282.554 939.517 282.134 939.001 281.846C938.497 281.546 937.939 281.396 937.327 281.396C936.715 281.396 936.157 281.54 935.653 281.828C935.149 282.116 934.747 282.536 934.447 283.088C934.147 283.64 933.997 284.288 933.997 285.032C933.997 285.788 934.147 286.448 934.447 287.012C934.747 287.564 935.149 287.99 935.653 288.29C936.157 288.578 936.715 288.722 937.327 288.722C937.939 288.722 938.497 288.578 939.001 288.29C939.517 287.99 939.925 287.564 940.225 287.012C940.525 286.448 940.675 285.794 940.675 285.05ZM956.18 283.538C956.636 283.61 957.05 283.796 957.422 284.096C957.806 284.396 958.106 284.768 958.322 285.212C958.55 285.656 958.664 286.13 958.664 286.634C958.664 287.27 958.502 287.846 958.178 288.362C957.854 288.866 957.38 289.268 956.756 289.568C956.144 289.856 955.418 290 954.578 290H949.898V277.454H954.398C955.25 277.454 955.976 277.598 956.576 277.886C957.176 278.162 957.626 278.54 957.926 279.02C958.226 279.5 958.376 280.04 958.376 280.64C958.376 281.384 958.172 282.002 957.764 282.494C957.368 282.974 956.84 283.322 956.18 283.538ZM951.536 282.872H954.29C955.058 282.872 955.652 282.692 956.072 282.332C956.492 281.972 956.702 281.474 956.702 280.838C956.702 280.202 956.492 279.704 956.072 279.344C955.652 278.984 955.046 278.804 954.254 278.804H951.536V282.872ZM954.434 288.65C955.25 288.65 955.886 288.458 956.342 288.074C956.798 287.69 957.026 287.156 957.026 286.472C957.026 285.776 956.786 285.23 956.306 284.834C955.826 284.426 955.184 284.222 954.38 284.222H951.536V288.65H954.434ZM969.937 284.69C969.937 285.002 969.919 285.332 969.883 285.68H961.999C962.059 286.652 962.389 287.414 962.989 287.966C963.601 288.506 964.339 288.776 965.203 288.776C965.911 288.776 966.499 288.614 966.967 288.29C967.447 287.954 967.783 287.51 967.975 286.958H969.739C969.475 287.906 968.947 288.68 968.155 289.28C967.363 289.868 966.379 290.162 965.203 290.162C964.267 290.162 963.427 289.952 962.683 289.532C961.951 289.112 961.375 288.518 960.955 287.75C960.535 286.97 960.325 286.07 960.325 285.05C960.325 284.03 960.529 283.136 960.937 282.368C961.345 281.6 961.915 281.012 962.647 280.604C963.391 280.184 964.243 279.974 965.203 279.974C966.139 279.974 966.967 280.178 967.687 280.586C968.407 280.994 968.959 281.558 969.343 282.278C969.739 282.986 969.937 283.79 969.937 284.69ZM968.245 284.348C968.245 283.724 968.107 283.19 967.831 282.746C967.555 282.29 967.177 281.948 966.697 281.72C966.229 281.48 965.707 281.36 965.131 281.36C964.303 281.36 963.595 281.624 963.007 282.152C962.431 282.68 962.101 283.412 962.017 284.348H968.245ZM973.737 281.738C974.025 281.174 974.433 280.736 974.961 280.424C975.501 280.112 976.155 279.956 976.923 279.956V281.648H976.491C974.655 281.648 973.737 282.644 973.737 284.636V290H972.099V280.136H973.737V281.738ZM984.322 290L980.452 285.644V290H978.814V276.68H980.452V284.51L984.25 280.136H986.536L981.892 285.05L986.554 290H984.322ZM992.379 290.162C991.455 290.162 990.615 289.952 989.859 289.532C989.115 289.112 988.527 288.518 988.095 287.75C987.675 286.97 987.465 286.07 987.465 285.05C987.465 284.042 987.681 283.154 988.113 282.386C988.557 281.606 989.157 281.012 989.913 280.604C990.669 280.184 991.515 279.974 992.451 279.974C993.387 279.974 994.233 280.184 994.989 280.604C995.745 281.012 996.339 281.6 996.771 282.368C997.215 283.136 997.437 284.03 997.437 285.05C997.437 286.07 997.209 286.97 996.753 287.75C996.309 288.518 995.703 289.112 994.935 289.532C994.167 289.952 993.315 290.162 992.379 290.162ZM992.379 288.722C992.967 288.722 993.519 288.584 994.035 288.308C994.551 288.032 994.965 287.618 995.277 287.066C995.601 286.514 995.763 285.842 995.763 285.05C995.763 284.258 995.607 283.586 995.295 283.034C994.983 282.482 994.575 282.074 994.071 281.81C993.567 281.534 993.021 281.396 992.433 281.396C991.833 281.396 991.281 281.534 990.777 281.81C990.285 282.074 989.889 282.482 989.589 283.034C989.289 283.586 989.139 284.258 989.139 285.05C989.139 285.854 989.283 286.532 989.571 287.084C989.871 287.636 990.267 288.05 990.759 288.326C991.251 288.59 991.791 288.722 992.379 288.722ZM1011.45 279.956C1012.22 279.956 1012.91 280.118 1013.51 280.442C1014.11 280.754 1014.58 281.228 1014.93 281.864C1015.28 282.5 1015.45 283.274 1015.45 284.186V290H1013.83V284.42C1013.83 283.436 1013.58 282.686 1013.09 282.17C1012.61 281.642 1011.96 281.378 1011.13 281.378C1010.28 281.378 1009.6 281.654 1009.1 282.206C1008.59 282.746 1008.34 283.532 1008.34 284.564V290H1006.72V284.42C1006.72 283.436 1006.47 282.686 1005.98 282.17C1005.5 281.642 1004.85 281.378 1004.02 281.378C1003.17 281.378 1002.49 281.654 1001.99 282.206C1001.48 282.746 1001.23 283.532 1001.23 284.564V290H999.591V280.136H1001.23V281.558C1001.55 281.042 1001.99 280.646 1002.53 280.37C1003.08 280.094 1003.68 279.956 1004.34 279.956C1005.17 279.956 1005.9 280.142 1006.54 280.514C1007.18 280.886 1007.65 281.432 1007.96 282.152C1008.24 281.456 1008.69 280.916 1009.33 280.532C1009.97 280.148 1010.67 279.956 1011.45 279.956ZM1019.77 281.954C1020.1 281.39 1020.58 280.922 1021.21 280.55C1021.86 280.166 1022.61 279.974 1023.46 279.974C1024.34 279.974 1025.13 280.184 1025.84 280.604C1026.56 281.024 1027.12 281.618 1027.53 282.386C1027.94 283.142 1028.14 284.024 1028.14 285.032C1028.14 286.028 1027.94 286.916 1027.53 287.696C1027.12 288.476 1026.56 289.082 1025.84 289.514C1025.13 289.946 1024.34 290.162 1023.46 290.162C1022.62 290.162 1021.88 289.976 1021.23 289.604C1020.6 289.22 1020.11 288.746 1019.77 288.182V294.68H1018.14V280.136H1019.77V281.954ZM1026.47 285.032C1026.47 284.288 1026.32 283.64 1026.02 283.088C1025.72 282.536 1025.31 282.116 1024.8 281.828C1024.29 281.54 1023.73 281.396 1023.12 281.396C1022.52 281.396 1021.96 281.546 1021.45 281.846C1020.94 282.134 1020.54 282.56 1020.22 283.124C1019.92 283.676 1019.77 284.318 1019.77 285.05C1019.77 285.794 1019.92 286.448 1020.22 287.012C1020.54 287.564 1020.94 287.99 1021.45 288.29C1021.96 288.578 1022.52 288.722 1023.12 288.722C1023.73 288.722 1024.29 288.578 1024.8 288.29C1025.31 287.99 1025.72 287.564 1026.02 287.012C1026.32 286.448 1026.47 285.788 1026.47 285.032ZM1039.3 284.69C1039.3 285.002 1039.28 285.332 1039.25 285.68H1031.36C1031.42 286.652 1031.75 287.414 1032.35 287.966C1032.96 288.506 1033.7 288.776 1034.57 288.776C1035.27 288.776 1035.86 288.614 1036.33 288.29C1036.81 287.954 1037.15 287.51 1037.34 286.958H1039.1C1038.84 287.906 1038.31 288.68 1037.52 289.28C1036.73 289.868 1035.74 290.162 1034.57 290.162C1033.63 290.162 1032.79 289.952 1032.05 289.532C1031.31 289.112 1030.74 288.518 1030.32 287.75C1029.9 286.97 1029.69 286.07 1029.69 285.05C1029.69 284.03 1029.89 283.136 1030.3 282.368C1030.71 281.6 1031.28 281.012 1032.01 280.604C1032.75 280.184 1033.61 279.974 1034.57 279.974C1035.5 279.974 1036.33 280.178 1037.05 280.586C1037.77 280.994 1038.32 281.558 1038.71 282.278C1039.1 282.986 1039.3 283.79 1039.3 284.69ZM1037.61 284.348C1037.61 283.724 1037.47 283.19 1037.19 282.746C1036.92 282.29 1036.54 281.948 1036.06 281.72C1035.59 281.48 1035.07 281.36 1034.49 281.36C1033.67 281.36 1032.96 281.624 1032.37 282.152C1031.79 282.68 1031.46 283.412 1031.38 284.348H1037.61ZM1043.46 281.486V287.3C1043.46 287.78 1043.56 288.122 1043.77 288.326C1043.97 288.518 1044.32 288.614 1044.83 288.614H1046.03V290H1044.56C1043.65 290 1042.96 289.79 1042.51 289.37C1042.05 288.95 1041.82 288.26 1041.82 287.3V281.486H1040.54V280.136H1041.82V277.652H1043.46V280.136H1046.03V281.486H1043.46ZM1048.86 278.534C1048.55 278.534 1048.29 278.426 1048.07 278.21C1047.86 277.994 1047.75 277.73 1047.75 277.418C1047.75 277.106 1047.86 276.842 1048.07 276.626C1048.29 276.41 1048.55 276.302 1048.86 276.302C1049.16 276.302 1049.42 276.41 1049.62 276.626C1049.84 276.842 1049.94 277.106 1049.94 277.418C1049.94 277.73 1049.84 277.994 1049.62 278.21C1049.42 278.426 1049.16 278.534 1048.86 278.534ZM1049.66 280.136V290H1048.02V280.136H1049.66ZM1055.94 290.162C1055.18 290.162 1054.51 290.036 1053.91 289.784C1053.31 289.52 1052.83 289.16 1052.48 288.704C1052.14 288.236 1051.94 287.702 1051.91 287.102H1053.6C1053.65 287.594 1053.88 287.996 1054.28 288.308C1054.7 288.62 1055.25 288.776 1055.92 288.776C1056.55 288.776 1057.04 288.638 1057.4 288.362C1057.76 288.086 1057.94 287.738 1057.94 287.318C1057.94 286.886 1057.75 286.568 1057.36 286.364C1056.98 286.148 1056.38 285.938 1055.58 285.734C1054.85 285.542 1054.25 285.35 1053.78 285.158C1053.32 284.954 1052.93 284.66 1052.59 284.276C1052.27 283.88 1052.11 283.364 1052.11 282.728C1052.11 282.224 1052.26 281.762 1052.56 281.342C1052.86 280.922 1053.28 280.592 1053.83 280.352C1054.39 280.1 1055.02 279.974 1055.72 279.974C1056.82 279.974 1057.7 280.25 1058.37 280.802C1059.04 281.354 1059.4 282.11 1059.45 283.07H1057.81C1057.78 282.554 1057.57 282.14 1057.18 281.828C1056.81 281.516 1056.31 281.36 1055.67 281.36C1055.08 281.36 1054.61 281.486 1054.27 281.738C1053.92 281.99 1053.74 282.32 1053.74 282.728C1053.74 283.052 1053.85 283.322 1054.05 283.538C1054.27 283.742 1054.53 283.91 1054.84 284.042C1055.17 284.162 1055.61 284.3 1056.17 284.456C1056.88 284.648 1057.46 284.84 1057.9 285.032C1058.35 285.212 1058.72 285.488 1059.04 285.86C1059.36 286.232 1059.53 286.718 1059.54 287.318C1059.54 287.858 1059.39 288.344 1059.09 288.776C1058.79 289.208 1058.36 289.55 1057.81 289.802C1057.27 290.042 1056.65 290.162 1055.94 290.162ZM1062.7 278.534C1062.39 278.534 1062.12 278.426 1061.91 278.21C1061.69 277.994 1061.58 277.73 1061.58 277.418C1061.58 277.106 1061.69 276.842 1061.91 276.626C1062.12 276.41 1062.39 276.302 1062.7 276.302C1063 276.302 1063.25 276.41 1063.45 276.626C1063.67 276.842 1063.78 277.106 1063.78 277.418C1063.78 277.73 1063.67 277.994 1063.45 278.21C1063.25 278.426 1063 278.534 1062.7 278.534ZM1063.49 280.136V290H1061.85V280.136H1063.49ZM1067.97 287.732L1065.96 292.574H1064.86L1066.17 287.732H1067.97ZM684.668 310.538C685.124 310.61 685.538 310.796 685.91 311.096C686.294 311.396 686.594 311.768 686.81 312.212C687.038 312.656 687.152 313.13 687.152 313.634C687.152 314.27 686.99 314.846 686.666 315.362C686.342 315.866 685.868 316.268 685.244 316.568C684.632 316.856 683.906 317 683.066 317H678.386V304.454H682.886C683.738 304.454 684.464 304.598 685.064 304.886C685.664 305.162 686.114 305.54 686.414 306.02C686.714 306.5 686.864 307.04 686.864 307.64C686.864 308.384 686.66 309.002 686.252 309.494C685.856 309.974 685.328 310.322 684.668 310.538ZM680.024 309.872H682.778C683.546 309.872 684.14 309.692 684.56 309.332C684.98 308.972 685.19 308.474 685.19 307.838C685.19 307.202 684.98 306.704 684.56 306.344C684.14 305.984 683.534 305.804 682.742 305.804H680.024V309.872ZM682.922 315.65C683.738 315.65 684.374 315.458 684.83 315.074C685.286 314.69 685.514 314.156 685.514 313.472C685.514 312.776 685.274 312.23 684.794 311.834C684.314 311.426 683.672 311.222 682.868 311.222H680.024V315.65H682.922ZM698.425 311.69C698.425 312.002 698.407 312.332 698.371 312.68H690.487C690.547 313.652 690.877 314.414 691.477 314.966C692.089 315.506 692.827 315.776 693.691 315.776C694.399 315.776 694.987 315.614 695.455 315.29C695.935 314.954 696.271 314.51 696.463 313.958H698.227C697.963 314.906 697.435 315.68 696.643 316.28C695.851 316.868 694.867 317.162 693.691 317.162C692.755 317.162 691.915 316.952 691.171 316.532C690.439 316.112 689.863 315.518 689.443 314.75C689.023 313.97 688.813 313.07 688.813 312.05C688.813 311.03 689.017 310.136 689.425 309.368C689.833 308.6 690.403 308.012 691.135 307.604C691.879 307.184 692.731 306.974 693.691 306.974C694.627 306.974 695.455 307.178 696.175 307.586C696.895 307.994 697.447 308.558 697.831 309.278C698.227 309.986 698.425 310.79 698.425 311.69ZM696.733 311.348C696.733 310.724 696.595 310.19 696.319 309.746C696.043 309.29 695.665 308.948 695.185 308.72C694.717 308.48 694.195 308.36 693.619 308.36C692.791 308.36 692.083 308.624 691.495 309.152C690.919 309.68 690.589 310.412 690.505 311.348H696.733ZM702.225 308.738C702.513 308.174 702.921 307.736 703.449 307.424C703.989 307.112 704.643 306.956 705.411 306.956V308.648H704.979C703.143 308.648 702.225 309.644 702.225 311.636V317H700.587V307.136H702.225V308.738ZM712.81 317L708.94 312.644V317H707.302V303.68H708.94V311.51L712.738 307.136H715.024L710.38 312.05L715.042 317H712.81ZM720.868 317.162C719.944 317.162 719.104 316.952 718.348 316.532C717.604 316.112 717.016 315.518 716.584 314.75C716.164 313.97 715.954 313.07 715.954 312.05C715.954 311.042 716.17 310.154 716.602 309.386C717.046 308.606 717.646 308.012 718.402 307.604C719.158 307.184 720.004 306.974 720.94 306.974C721.876 306.974 722.722 307.184 723.478 307.604C724.234 308.012 724.828 308.6 725.26 309.368C725.704 310.136 725.926 311.03 725.926 312.05C725.926 313.07 725.698 313.97 725.242 314.75C724.798 315.518 724.192 316.112 723.424 316.532C722.656 316.952 721.804 317.162 720.868 317.162ZM720.868 315.722C721.456 315.722 722.008 315.584 722.524 315.308C723.04 315.032 723.454 314.618 723.766 314.066C724.09 313.514 724.252 312.842 724.252 312.05C724.252 311.258 724.096 310.586 723.784 310.034C723.472 309.482 723.064 309.074 722.56 308.81C722.056 308.534 721.51 308.396 720.922 308.396C720.322 308.396 719.77 308.534 719.266 308.81C718.774 309.074 718.378 309.482 718.078 310.034C717.778 310.586 717.628 311.258 717.628 312.05C717.628 312.854 717.772 313.532 718.06 314.084C718.36 314.636 718.756 315.05 719.248 315.326C719.74 315.59 720.28 315.722 720.868 315.722ZM729.717 303.68V317H728.079V303.68H729.717ZM731.897 312.032C731.897 311.024 732.101 310.142 732.509 309.386C732.917 308.618 733.475 308.024 734.183 307.604C734.903 307.184 735.701 306.974 736.577 306.974C737.441 306.974 738.191 307.16 738.827 307.532C739.463 307.904 739.937 308.372 740.249 308.936V307.136H741.905V317H740.249V315.164C739.925 315.74 739.439 316.22 738.791 316.604C738.155 316.976 737.411 317.162 736.559 317.162C735.683 317.162 734.891 316.946 734.183 316.514C733.475 316.082 732.917 315.476 732.509 314.696C732.101 313.916 731.897 313.028 731.897 312.032ZM740.249 312.05C740.249 311.306 740.099 310.658 739.799 310.106C739.499 309.554 739.091 309.134 738.575 308.846C738.071 308.546 737.513 308.396 736.901 308.396C736.289 308.396 735.731 308.54 735.227 308.828C734.723 309.116 734.321 309.536 734.021 310.088C733.721 310.64 733.571 311.288 733.571 312.032C733.571 312.788 733.721 313.448 734.021 314.012C734.321 314.564 734.723 314.99 735.227 315.29C735.731 315.578 736.289 315.722 736.901 315.722C737.513 315.722 738.071 315.578 738.575 315.29C739.091 314.99 739.499 314.564 739.799 314.012C740.099 313.448 740.249 312.794 740.249 312.05ZM746.311 308.972C746.647 308.384 747.139 307.904 747.787 307.532C748.435 307.16 749.173 306.974 750.001 306.974C750.889 306.974 751.687 307.184 752.395 307.604C753.103 308.024 753.661 308.618 754.069 309.386C754.477 310.142 754.681 311.024 754.681 312.032C754.681 313.028 754.477 313.916 754.069 314.696C753.661 315.476 753.097 316.082 752.377 316.514C751.669 316.946 750.877 317.162 750.001 317.162C749.149 317.162 748.399 316.976 747.751 316.604C747.115 316.232 746.635 315.758 746.311 315.182V317H744.673V303.68H746.311V308.972ZM753.007 312.032C753.007 311.288 752.857 310.64 752.557 310.088C752.257 309.536 751.849 309.116 751.333 308.828C750.829 308.54 750.271 308.396 749.659 308.396C749.059 308.396 748.501 308.546 747.985 308.846C747.481 309.134 747.073 309.56 746.761 310.124C746.461 310.676 746.311 311.318 746.311 312.05C746.311 312.794 746.461 313.448 746.761 314.012C747.073 314.564 747.481 314.99 747.985 315.29C748.501 315.578 749.059 315.722 749.659 315.722C750.271 315.722 750.829 315.578 751.333 315.29C751.849 314.99 752.257 314.564 752.557 314.012C752.857 313.448 753.007 312.788 753.007 312.032ZM761.139 317.162C760.215 317.162 759.375 316.952 758.619 316.532C757.875 316.112 757.287 315.518 756.855 314.75C756.435 313.97 756.225 313.07 756.225 312.05C756.225 311.042 756.441 310.154 756.873 309.386C757.317 308.606 757.917 308.012 758.673 307.604C759.429 307.184 760.275 306.974 761.211 306.974C762.147 306.974 762.993 307.184 763.749 307.604C764.505 308.012 765.099 308.6 765.531 309.368C765.975 310.136 766.197 311.03 766.197 312.05C766.197 313.07 765.969 313.97 765.513 314.75C765.069 315.518 764.463 316.112 763.695 316.532C762.927 316.952 762.075 317.162 761.139 317.162ZM761.139 315.722C761.727 315.722 762.279 315.584 762.795 315.308C763.311 315.032 763.725 314.618 764.037 314.066C764.361 313.514 764.523 312.842 764.523 312.05C764.523 311.258 764.367 310.586 764.055 310.034C763.743 309.482 763.335 309.074 762.831 308.81C762.327 308.534 761.781 308.396 761.193 308.396C760.593 308.396 760.041 308.534 759.537 308.81C759.045 309.074 758.649 309.482 758.349 310.034C758.049 310.586 757.899 311.258 757.899 312.05C757.899 312.854 758.043 313.532 758.331 314.084C758.631 314.636 759.027 315.05 759.519 315.326C760.011 315.59 760.551 315.722 761.139 315.722ZM769.989 308.738C770.277 308.174 770.685 307.736 771.213 307.424C771.753 307.112 772.407 306.956 773.175 306.956V308.648H772.743C770.907 308.648 769.989 309.644 769.989 311.636V317H768.351V307.136H769.989V308.738ZM774.454 312.032C774.454 311.024 774.658 310.142 775.066 309.386C775.474 308.618 776.032 308.024 776.74 307.604C777.46 307.184 778.258 306.974 779.134 306.974C779.998 306.974 780.748 307.16 781.384 307.532C782.02 307.904 782.494 308.372 782.806 308.936V307.136H784.462V317H782.806V315.164C782.482 315.74 781.996 316.22 781.348 316.604C780.712 316.976 779.968 317.162 779.116 317.162C778.24 317.162 777.448 316.946 776.74 316.514C776.032 316.082 775.474 315.476 775.066 314.696C774.658 313.916 774.454 313.028 774.454 312.032ZM782.806 312.05C782.806 311.306 782.656 310.658 782.356 310.106C782.056 309.554 781.648 309.134 781.132 308.846C780.628 308.546 780.07 308.396 779.458 308.396C778.846 308.396 778.288 308.54 777.784 308.828C777.28 309.116 776.878 309.536 776.578 310.088C776.278 310.64 776.128 311.288 776.128 312.032C776.128 312.788 776.278 313.448 776.578 314.012C776.878 314.564 777.28 314.99 777.784 315.29C778.288 315.578 778.846 315.722 779.458 315.722C780.07 315.722 780.628 315.578 781.132 315.29C781.648 314.99 782.056 314.564 782.356 314.012C782.656 313.448 782.806 312.794 782.806 312.05ZM790.722 317.162C789.966 317.162 789.288 317.036 788.688 316.784C788.088 316.52 787.614 316.16 787.266 315.704C786.918 315.236 786.726 314.702 786.69 314.102H788.382C788.43 314.594 788.658 314.996 789.066 315.308C789.486 315.62 790.032 315.776 790.704 315.776C791.328 315.776 791.82 315.638 792.18 315.362C792.54 315.086 792.72 314.738 792.72 314.318C792.72 313.886 792.528 313.568 792.144 313.364C791.76 313.148 791.166 312.938 790.362 312.734C789.63 312.542 789.03 312.35 788.562 312.158C788.106 311.954 787.71 311.66 787.374 311.276C787.05 310.88 786.888 310.364 786.888 309.728C786.888 309.224 787.038 308.762 787.338 308.342C787.638 307.922 788.064 307.592 788.616 307.352C789.168 307.1 789.798 306.974 790.506 306.974C791.598 306.974 792.48 307.25 793.152 307.802C793.824 308.354 794.184 309.11 794.232 310.07H792.594C792.558 309.554 792.348 309.14 791.964 308.828C791.592 308.516 791.088 308.36 790.452 308.36C789.864 308.36 789.396 308.486 789.048 308.738C788.7 308.99 788.526 309.32 788.526 309.728C788.526 310.052 788.628 310.322 788.832 310.538C789.048 310.742 789.312 310.91 789.624 311.042C789.948 311.162 790.392 311.3 790.956 311.456C791.664 311.648 792.24 311.84 792.684 312.032C793.128 312.212 793.506 312.488 793.818 312.86C794.142 313.232 794.31 313.718 794.322 314.318C794.322 314.858 794.172 315.344 793.872 315.776C793.572 316.208 793.146 316.55 792.594 316.802C792.054 317.042 791.43 317.162 790.722 317.162ZM797.48 305.534C797.168 305.534 796.904 305.426 796.688 305.21C796.472 304.994 796.364 304.73 796.364 304.418C796.364 304.106 796.472 303.842 796.688 303.626C796.904 303.41 797.168 303.302 797.48 303.302C797.78 303.302 798.032 303.41 798.236 303.626C798.452 303.842 798.56 304.106 798.56 304.418C798.56 304.73 798.452 304.994 798.236 305.21C798.032 305.426 797.78 305.534 797.48 305.534ZM798.272 307.136V317H796.634V307.136H798.272ZM815.493 317L813.855 315.344C813.243 315.98 812.589 316.454 811.893 316.766C811.197 317.066 810.411 317.216 809.535 317.216C808.671 317.216 807.903 317.06 807.231 316.748C806.571 316.436 806.055 315.992 805.683 315.416C805.323 314.84 805.143 314.168 805.143 313.4C805.143 312.524 805.389 311.756 805.881 311.096C806.385 310.424 807.123 309.896 808.095 309.512C807.711 309.056 807.435 308.636 807.267 308.252C807.099 307.868 807.015 307.448 807.015 306.992C807.015 306.464 807.147 305.99 807.411 305.57C807.687 305.138 808.077 304.802 808.581 304.562C809.085 304.322 809.667 304.202 810.327 304.202C810.975 304.202 811.539 304.328 812.019 304.58C812.499 304.832 812.859 305.186 813.099 305.642C813.339 306.086 813.447 306.584 813.423 307.136H811.785C811.797 306.644 811.659 306.26 811.371 305.984C811.083 305.696 810.711 305.552 810.255 305.552C809.775 305.552 809.385 305.69 809.085 305.966C808.797 306.23 808.653 306.572 808.653 306.992C808.653 307.352 808.749 307.7 808.941 308.036C809.145 308.372 809.481 308.786 809.949 309.278L813.693 313.04L814.017 312.536L815.241 310.484H817.005L815.529 313.04C815.325 313.4 815.085 313.778 814.809 314.174L817.635 317H815.493ZM809.535 315.812C810.183 315.812 810.765 315.686 811.281 315.434C811.809 315.182 812.307 314.792 812.775 314.264L809.085 310.556C807.549 311.144 806.781 312.074 806.781 313.346C806.781 314.054 807.033 314.642 807.537 315.11C808.053 315.578 808.719 315.812 809.535 315.812ZM830.25 310.538C830.706 310.61 831.12 310.796 831.492 311.096C831.876 311.396 832.176 311.768 832.392 312.212C832.62 312.656 832.734 313.13 832.734 313.634C832.734 314.27 832.572 314.846 832.248 315.362C831.924 315.866 831.45 316.268 830.826 316.568C830.214 316.856 829.488 317 828.648 317H823.968V304.454H828.468C829.32 304.454 830.046 304.598 830.646 304.886C831.246 305.162 831.696 305.54 831.996 306.02C832.296 306.5 832.446 307.04 832.446 307.64C832.446 308.384 832.242 309.002 831.834 309.494C831.438 309.974 830.91 310.322 830.25 310.538ZM825.606 309.872H828.36C829.128 309.872 829.722 309.692 830.142 309.332C830.562 308.972 830.772 308.474 830.772 307.838C830.772 307.202 830.562 306.704 830.142 306.344C829.722 305.984 829.116 305.804 828.324 305.804H825.606V309.872ZM828.504 315.65C829.32 315.65 829.956 315.458 830.412 315.074C830.868 314.69 831.096 314.156 831.096 313.472C831.096 312.776 830.856 312.23 830.376 311.834C829.896 311.426 829.254 311.222 828.45 311.222H825.606V315.65H828.504ZM844.007 311.69C844.007 312.002 843.989 312.332 843.953 312.68H836.069C836.129 313.652 836.459 314.414 837.059 314.966C837.671 315.506 838.409 315.776 839.273 315.776C839.981 315.776 840.569 315.614 841.037 315.29C841.517 314.954 841.853 314.51 842.045 313.958H843.809C843.545 314.906 843.017 315.68 842.225 316.28C841.433 316.868 840.449 317.162 839.273 317.162C838.337 317.162 837.497 316.952 836.753 316.532C836.021 316.112 835.445 315.518 835.025 314.75C834.605 313.97 834.395 313.07 834.395 312.05C834.395 311.03 834.599 310.136 835.007 309.368C835.415 308.6 835.985 308.012 836.717 307.604C837.461 307.184 838.313 306.974 839.273 306.974C840.209 306.974 841.037 307.178 841.757 307.586C842.477 307.994 843.029 308.558 843.413 309.278C843.809 309.986 844.007 310.79 844.007 311.69ZM842.315 311.348C842.315 310.724 842.177 310.19 841.901 309.746C841.625 309.29 841.247 308.948 840.767 308.72C840.299 308.48 839.777 308.36 839.201 308.36C838.373 308.36 837.665 308.624 837.077 309.152C836.501 309.68 836.171 310.412 836.087 311.348H842.315ZM847.807 308.738C848.095 308.174 848.503 307.736 849.031 307.424C849.571 307.112 850.225 306.956 850.993 306.956V308.648H850.561C848.725 308.648 847.807 309.644 847.807 311.636V317H846.169V307.136H847.807V308.738ZM858.392 317L854.522 312.644V317H852.884V303.68H854.522V311.51L858.32 307.136H860.606L855.962 312.05L860.624 317H858.392ZM866.45 317.162C865.526 317.162 864.686 316.952 863.93 316.532C863.186 316.112 862.598 315.518 862.166 314.75C861.746 313.97 861.536 313.07 861.536 312.05C861.536 311.042 861.752 310.154 862.184 309.386C862.628 308.606 863.228 308.012 863.984 307.604C864.74 307.184 865.586 306.974 866.522 306.974C867.458 306.974 868.304 307.184 869.06 307.604C869.816 308.012 870.41 308.6 870.842 309.368C871.286 310.136 871.508 311.03 871.508 312.05C871.508 313.07 871.28 313.97 870.824 314.75C870.38 315.518 869.774 316.112 869.006 316.532C868.238 316.952 867.386 317.162 866.45 317.162ZM866.45 315.722C867.038 315.722 867.59 315.584 868.106 315.308C868.622 315.032 869.036 314.618 869.348 314.066C869.672 313.514 869.834 312.842 869.834 312.05C869.834 311.258 869.678 310.586 869.366 310.034C869.054 309.482 868.646 309.074 868.142 308.81C867.638 308.534 867.092 308.396 866.504 308.396C865.904 308.396 865.352 308.534 864.848 308.81C864.356 309.074 863.96 309.482 863.66 310.034C863.36 310.586 863.21 311.258 863.21 312.05C863.21 312.854 863.354 313.532 863.642 314.084C863.942 314.636 864.338 315.05 864.83 315.326C865.322 315.59 865.862 315.722 866.45 315.722ZM878.467 306.956C879.667 306.956 880.639 307.322 881.383 308.054C882.127 308.774 882.499 309.818 882.499 311.186V317H880.879V311.42C880.879 310.436 880.633 309.686 880.141 309.17C879.649 308.642 878.977 308.378 878.125 308.378C877.261 308.378 876.571 308.648 876.055 309.188C875.551 309.728 875.299 310.514 875.299 311.546V317H873.661V307.136H875.299V308.54C875.623 308.036 876.061 307.646 876.613 307.37C877.177 307.094 877.795 306.956 878.467 306.956ZM887.173 308.486V314.3C887.173 314.78 887.275 315.122 887.479 315.326C887.683 315.518 888.037 315.614 888.541 315.614H889.747V317H888.271C887.359 317 886.675 316.79 886.219 316.37C885.763 315.95 885.535 315.26 885.535 314.3V308.486H884.257V307.136H885.535V304.652H887.173V307.136H889.747V308.486H887.173ZM893.37 308.738C893.658 308.174 894.066 307.736 894.594 307.424C895.134 307.112 895.788 306.956 896.556 306.956V308.648H896.124C894.288 308.648 893.37 309.644 893.37 311.636V317H891.732V307.136H893.37V308.738ZM899.293 305.534C898.981 305.534 898.717 305.426 898.501 305.21C898.285 304.994 898.177 304.73 898.177 304.418C898.177 304.106 898.285 303.842 898.501 303.626C898.717 303.41 898.981 303.302 899.293 303.302C899.593 303.302 899.845 303.41 900.049 303.626C900.265 303.842 900.373 304.106 900.373 304.418C900.373 304.73 900.265 304.994 900.049 305.21C899.845 305.426 899.593 305.534 899.293 305.534ZM900.085 307.136V317H898.447V307.136H900.085ZM904.514 308.972C904.85 308.384 905.342 307.904 905.99 307.532C906.638 307.16 907.376 306.974 908.204 306.974C909.092 306.974 909.89 307.184 910.598 307.604C911.306 308.024 911.864 308.618 912.272 309.386C912.68 310.142 912.884 311.024 912.884 312.032C912.884 313.028 912.68 313.916 912.272 314.696C911.864 315.476 911.3 316.082 910.58 316.514C909.872 316.946 909.08 317.162 908.204 317.162C907.352 317.162 906.602 316.976 905.954 316.604C905.318 316.232 904.838 315.758 904.514 315.182V317H902.876V303.68H904.514V308.972ZM911.21 312.032C911.21 311.288 911.06 310.64 910.76 310.088C910.46 309.536 910.052 309.116 909.536 308.828C909.032 308.54 908.474 308.396 907.862 308.396C907.262 308.396 906.704 308.546 906.188 308.846C905.684 309.134 905.276 309.56 904.964 310.124C904.664 310.676 904.514 311.318 904.514 312.05C904.514 312.794 904.664 313.448 904.964 314.012C905.276 314.564 905.684 314.99 906.188 315.29C906.704 315.578 907.262 315.722 907.862 315.722C908.474 315.722 909.032 315.578 909.536 315.29C910.052 314.99 910.46 314.564 910.76 314.012C911.06 313.448 911.21 312.788 911.21 312.032ZM923.788 307.136V317H922.15V315.542C921.838 316.046 921.4 316.442 920.836 316.73C920.284 317.006 919.672 317.144 919 317.144C918.232 317.144 917.542 316.988 916.93 316.676C916.318 316.352 915.832 315.872 915.472 315.236C915.124 314.6 914.95 313.826 914.95 312.914V307.136H916.57V312.698C916.57 313.67 916.816 314.42 917.308 314.948C917.8 315.464 918.472 315.722 919.324 315.722C920.2 315.722 920.89 315.452 921.394 314.912C921.898 314.372 922.15 313.586 922.15 312.554V307.136H923.788ZM930.046 317.162C929.29 317.162 928.612 317.036 928.012 316.784C927.412 316.52 926.938 316.16 926.59 315.704C926.242 315.236 926.05 314.702 926.014 314.102H927.706C927.754 314.594 927.982 314.996 928.39 315.308C928.81 315.62 929.356 315.776 930.028 315.776C930.652 315.776 931.144 315.638 931.504 315.362C931.864 315.086 932.044 314.738 932.044 314.318C932.044 313.886 931.852 313.568 931.468 313.364C931.084 313.148 930.49 312.938 929.686 312.734C928.954 312.542 928.354 312.35 927.886 312.158C927.43 311.954 927.034 311.66 926.698 311.276C926.374 310.88 926.212 310.364 926.212 309.728C926.212 309.224 926.362 308.762 926.662 308.342C926.962 307.922 927.388 307.592 927.94 307.352C928.492 307.1 929.122 306.974 929.83 306.974C930.922 306.974 931.804 307.25 932.476 307.802C933.148 308.354 933.508 309.11 933.556 310.07H931.918C931.882 309.554 931.672 309.14 931.288 308.828C930.916 308.516 930.412 308.36 929.776 308.36C929.188 308.36 928.72 308.486 928.372 308.738C928.024 308.99 927.85 309.32 927.85 309.728C927.85 310.052 927.952 310.322 928.156 310.538C928.372 310.742 928.636 310.91 928.948 311.042C929.272 311.162 929.716 311.3 930.28 311.456C930.988 311.648 931.564 311.84 932.008 312.032C932.452 312.212 932.83 312.488 933.142 312.86C933.466 313.232 933.634 313.718 933.646 314.318C933.646 314.858 933.496 315.344 933.196 315.776C932.896 316.208 932.47 316.55 931.918 316.802C931.378 317.042 930.754 317.162 930.046 317.162ZM936.804 305.534C936.492 305.534 936.228 305.426 936.012 305.21C935.796 304.994 935.688 304.73 935.688 304.418C935.688 304.106 935.796 303.842 936.012 303.626C936.228 303.41 936.492 303.302 936.804 303.302C937.104 303.302 937.356 303.41 937.56 303.626C937.776 303.842 937.884 304.106 937.884 304.418C937.884 304.73 937.776 304.994 937.56 305.21C937.356 305.426 937.104 305.534 936.804 305.534ZM937.596 307.136V317H935.958V307.136H937.596Z" fill="white"/>
<g clip-path="url(#clip0_230_3)">
<path d="M786.354 427.729C787.058 427.182 787.214 426.869 787.527 426.713C810.452 421.021 832.368 423.546 852.494 436.322C857.584 439.536 861.736 444.001 864.871 449.325C871.691 460.68 870.374 474.531 861.618 484.384C857.083 489.545 851.844 493.688 844.958 495.246C842.374 493.288 839.867 491.25 837.283 489.604C833.055 486.939 828.436 485.918 823.507 487.4C819.829 488.414 817.484 490.759 817.486 493.264C817.489 496.551 819.683 498.744 822.501 499.53C826.415 500.629 830.485 501.259 834.477 501.654C837.06 501.891 839.799 501.502 842.381 501.27C849.904 511.451 845.298 523.578 831.608 529.904C830.042 528.963 828.397 527.944 826.753 527.082C820.568 524.024 814.149 523.392 807.813 526.438C805.388 527.609 803.199 529.329 803.28 532.538C803.36 534.964 805.554 537.158 808.998 538.1C814.478 539.514 819.956 538.893 825.355 537.724C827.232 537.256 829.11 536.789 830.91 536.242C843.055 551.515 840.493 573.504 822.968 580.062C824.065 581.002 824.849 581.942 825.631 582.099C826.571 582.256 827.744 581.71 828.604 581.163C836.504 575.77 841.897 568.81 842.123 558.871C842.35 551.436 840.544 544.469 837.25 537.735C836.78 536.796 836.309 535.856 835.917 534.838C835.839 534.76 835.917 534.525 835.995 533.978C836.777 533.352 837.637 532.492 838.653 531.789C850.776 522.957 853.429 514.664 848.485 500.024C849.736 499.399 851.144 498.617 852.552 497.993C860.609 494.009 866.787 488.145 870.848 480.01C877.488 466.79 875.361 451.84 865.254 440.325C859.77 434.06 853.113 429.435 845.519 426.063C827.12 417.985 808.257 416.01 788.774 421.862C787.757 422.095 786.74 422.486 785.723 422.719C785.567 422.72 785.332 422.641 784.627 422.405C786.659 419.12 789.396 416.853 792.055 414.508C794.557 412.162 797.294 409.895 800.109 407.394C797.838 405.591 795.959 405.903 794.16 406.762C792.127 407.856 789.936 408.793 788.294 410.278C783.915 414.343 779.537 418.566 775.471 423.101C772.344 426.698 773.208 429.438 777.435 430.694C786.438 433.286 795.518 435.799 804.599 438.311C806.087 438.704 807.573 438.784 809.53 439.02C809.293 435.811 807.413 435.184 805.691 434.556C799.272 432.515 793.087 430.24 786.354 427.729ZM807.975 532.542C814.075 527.852 820.884 527.937 825.976 532.559C820.029 533.806 814.474 535.131 807.975 532.542ZM822.261 493.972C827.971 490.456 833.294 491.4 837.603 496.648C832.125 497.112 827.194 497.342 822.261 493.972Z" fill="white"/>
</g>
<defs>
<clipPath id="clip0_230_3">
<rect width="150.296" height="150.296" fill="white" transform="matrix(0.707107 -0.707107 -0.707107 -0.707107 819.276 591.551)"/>
</clipPath>
</defs>
</svg>
