<svg width="767" height="810" viewBox="0 0 767 810" fill="none" xmlns="http://www.w3.org/2000/svg">
<g clip-path="url(#clip0_250_4)">
<rect x="66" y="2.00003" width="704" height="810" fill="#3C5190"/>
<circle cx="375.707" cy="135.179" r="413.972" transform="rotate(120 375.707 135.179)" stroke="white" stroke-opacity="0.15"/>
<circle cx="416.076" cy="266.846" r="413.972" transform="rotate(120 416.076 266.846)" stroke="white" stroke-opacity="0.15"/>
<circle cx="456.445" cy="398.513" r="413.972" transform="rotate(120 456.445 398.513)" stroke="white" stroke-opacity="0.15"/>
<circle cx="496.814" cy="530.181" r="413.972" transform="rotate(120 496.814 530.181)" stroke="white" stroke-opacity="0.15"/>
<circle cx="537.182" cy="661.848" r="413.972" transform="rotate(120 537.182 661.848)" stroke="white" stroke-opacity="0.15"/>
<circle cx="577.552" cy="793.515" r="413.972" transform="rotate(120 577.552 793.515)" stroke="white" stroke-opacity="0.15"/>
<circle cx="617.92" cy="925.182" r="413.972" transform="rotate(120 617.92 925.182)" stroke="white" stroke-opacity="0.15"/>
<path d="M54.6313 48.3735C55.4973 45.5441 59.5027 45.5441 60.3687 48.3735L65.3089 64.5159C65.918 66.5063 68.3195 67.2866 69.9823 66.0343L83.4672 55.8787C85.8309 54.0986 89.0714 56.453 88.1088 59.251L82.6173 75.2142C81.9402 77.1826 83.4244 79.2254 85.5057 79.1897L102.385 78.8998C105.343 78.849 106.581 82.6585 104.157 84.3564L90.3318 94.043C88.627 95.2374 88.627 97.7626 90.3318 98.957L104.157 108.644C106.581 110.342 105.343 114.151 102.385 114.1L85.5057 113.81C83.4244 113.775 81.9402 115.817 82.6173 117.786L88.1088 133.749C89.0714 136.547 85.8309 138.901 83.4672 137.121L69.9823 126.966C68.3195 125.713 65.918 126.494 65.3089 128.484L60.3687 144.626C59.5027 147.456 55.4973 147.456 54.6313 144.626L49.6911 128.484C49.082 126.494 46.6805 125.713 45.0177 126.966L31.5328 137.121C29.1691 138.901 25.9286 136.547 26.8912 133.749L32.3827 117.786C33.0598 115.817 31.5756 113.775 29.4943 113.81L12.6155 114.1C9.65692 114.151 8.41915 110.342 10.8425 108.644L24.6682 98.957C26.373 97.7626 26.373 95.2374 24.6682 94.043L10.8425 84.3564C8.41915 82.6585 9.65692 78.849 12.6155 78.8998L29.4943 79.1897C31.5756 79.2254 33.0598 77.1826 32.3827 75.2142L26.8912 59.251C25.9286 56.453 29.1691 54.0986 31.5328 55.8787L45.0177 66.0343C46.6805 67.2866 49.082 66.5063 49.6911 64.5159L54.6313 48.3735Z" fill="#DD4C44"/>
<g clip-path="url(#clip1_250_4)">
<path d="M313.763 477.138C314.467 476.591 314.623 476.278 314.936 476.121C337.861 470.43 359.777 472.955 379.902 485.731C384.993 488.945 389.145 493.41 392.28 498.734C399.1 510.089 397.783 523.94 389.027 533.793C384.492 538.954 379.253 543.097 372.367 544.655C369.783 542.697 367.276 540.659 364.692 539.013C360.464 536.348 355.845 535.327 350.916 536.809C347.238 537.823 344.893 540.168 344.895 542.673C344.898 545.96 347.092 548.153 349.91 548.939C353.824 550.038 357.894 550.668 361.886 551.063C364.469 551.3 367.208 550.911 369.79 550.679C377.313 560.86 372.707 572.987 359.017 579.313C357.451 578.372 355.806 577.353 354.162 576.491C347.976 573.433 341.558 572.8 335.222 575.847C332.797 577.018 330.607 578.738 330.689 581.947C330.769 584.373 332.963 586.566 336.407 587.509C341.887 588.923 347.364 588.302 352.763 587.133C354.641 586.665 356.519 586.197 358.319 585.651C370.464 600.924 367.902 622.913 350.377 629.471C351.474 630.411 352.258 631.351 353.04 631.508C353.98 631.665 355.153 631.119 356.013 630.572C363.913 625.179 369.306 618.219 369.532 608.28C369.759 600.845 367.953 593.878 364.659 587.144C364.189 586.205 363.718 585.265 363.326 584.247C363.248 584.169 363.326 583.934 363.404 583.387C364.186 582.761 365.046 581.901 366.062 581.198C378.185 572.366 380.838 564.073 375.893 549.433C377.145 548.808 378.553 548.026 379.961 547.401C388.018 543.418 394.196 537.554 398.257 529.419C404.897 516.199 402.77 501.249 392.663 489.734C387.179 483.469 380.522 478.844 372.928 475.472C354.529 467.394 335.666 465.419 316.183 471.271C315.166 471.504 314.149 471.895 313.132 472.128C312.976 472.129 312.741 472.05 312.036 471.814C314.068 468.529 316.805 466.262 319.464 463.917C321.966 461.571 324.703 459.304 327.518 456.803C325.247 455 323.368 455.312 321.569 456.171C319.536 457.265 317.345 458.202 315.703 459.687C311.324 463.752 306.946 467.975 302.88 472.51C299.753 476.107 300.617 478.847 304.844 480.103C313.847 482.695 322.927 485.207 332.008 487.72C333.496 488.113 334.982 488.193 336.939 488.429C336.702 485.22 334.822 484.593 333.1 483.965C326.681 481.924 320.496 479.649 313.763 477.138ZM335.384 581.951C341.484 577.261 348.293 577.346 353.385 581.968C347.438 583.215 341.883 584.54 335.384 581.951ZM349.67 543.381C355.379 539.865 360.703 540.809 365.012 546.057C359.534 546.521 354.603 546.751 349.67 543.381Z" fill="white"/>
</g>
</g>
<path d="M156.168 184.336C153.704 184.336 151.496 183.936 149.544 183.136C147.592 182.336 146.024 181.152 144.84 179.584C143.688 178.016 143.08 176.128 143.016 173.92H151.752C151.88 175.168 152.312 176.128 153.048 176.8C153.784 177.44 154.744 177.76 155.928 177.76C157.144 177.76 158.104 177.488 158.808 176.944C159.512 176.368 159.864 175.584 159.864 174.592C159.864 173.76 159.576 173.072 159 172.528C158.456 171.984 157.768 171.536 156.936 171.184C156.136 170.832 154.984 170.432 153.48 169.984C151.304 169.312 149.528 168.64 148.152 167.968C146.776 167.296 145.592 166.304 144.6 164.992C143.608 163.68 143.112 161.968 143.112 159.856C143.112 156.72 144.248 154.272 146.52 152.512C148.792 150.72 151.752 149.824 155.4 149.824C159.112 149.824 162.104 150.72 164.376 152.512C166.648 154.272 167.864 156.736 168.024 159.904H159.144C159.08 158.816 158.68 157.968 157.944 157.36C157.208 156.72 156.264 156.4 155.112 156.4C154.12 156.4 153.32 156.672 152.712 157.216C152.104 157.728 151.8 158.48 151.8 159.472C151.8 160.56 152.312 161.408 153.336 162.016C154.36 162.624 155.96 163.28 158.136 163.984C160.312 164.72 162.072 165.424 163.416 166.096C164.792 166.768 165.976 167.744 166.968 169.024C167.96 170.304 168.456 171.952 168.456 173.968C168.456 175.888 167.96 177.632 166.968 179.2C166.008 180.768 164.6 182.016 162.744 182.944C160.888 183.872 158.696 184.336 156.168 184.336ZM198.755 170.176C198.755 170.944 198.707 171.744 198.611 172.576H180.035C180.163 174.24 180.691 175.52 181.619 176.416C182.579 177.28 183.747 177.712 185.123 177.712C187.171 177.712 188.595 176.848 189.395 175.12H198.131C197.683 176.88 196.867 178.464 195.683 179.872C194.531 181.28 193.075 182.384 191.315 183.184C189.555 183.984 187.587 184.384 185.411 184.384C182.787 184.384 180.451 183.824 178.403 182.704C176.355 181.584 174.755 179.984 173.603 177.904C172.451 175.824 171.875 173.392 171.875 170.608C171.875 167.824 172.435 165.392 173.555 163.312C174.707 161.232 176.307 159.632 178.355 158.512C180.403 157.392 182.755 156.832 185.411 156.832C188.003 156.832 190.307 157.376 192.323 158.464C194.339 159.552 195.907 161.104 197.027 163.12C198.179 165.136 198.755 167.488 198.755 170.176ZM190.355 168.016C190.355 166.608 189.875 165.488 188.915 164.656C187.955 163.824 186.755 163.408 185.315 163.408C183.939 163.408 182.771 163.808 181.811 164.608C180.883 165.408 180.307 166.544 180.083 168.016H190.355ZM211.293 148.48V184H203.085V148.48H211.293ZM215.61 170.56C215.61 167.808 216.122 165.392 217.146 163.312C218.202 161.232 219.626 159.632 221.418 158.512C223.21 157.392 225.21 156.832 227.418 156.832C229.306 156.832 230.954 157.216 232.362 157.984C233.802 158.752 234.906 159.76 235.674 161.008V157.216H243.882V184H235.674V180.208C234.874 181.456 233.754 182.464 232.314 183.232C230.906 184 229.258 184.384 227.37 184.384C225.194 184.384 223.21 183.824 221.418 182.704C219.626 181.552 218.202 179.936 217.146 177.856C216.122 175.744 215.61 173.312 215.61 170.56ZM235.674 170.608C235.674 168.56 235.098 166.944 233.946 165.76C232.826 164.576 231.45 163.984 229.818 163.984C228.186 163.984 226.794 164.576 225.642 165.76C224.522 166.912 223.962 168.512 223.962 170.56C223.962 172.608 224.522 174.24 225.642 175.456C226.794 176.64 228.186 177.232 229.818 177.232C231.45 177.232 232.826 176.64 233.946 175.456C235.098 174.272 235.674 172.656 235.674 170.608ZM283.996 156.928C287.324 156.928 289.964 157.936 291.916 159.952C293.9 161.968 294.892 164.768 294.892 168.352V184H286.732V169.456C286.732 167.728 286.268 166.4 285.34 165.472C284.444 164.512 283.196 164.032 281.596 164.032C279.996 164.032 278.732 164.512 277.804 165.472C276.908 166.4 276.46 167.728 276.46 169.456V184H268.3V169.456C268.3 167.728 267.836 166.4 266.908 165.472C266.012 164.512 264.764 164.032 263.164 164.032C261.564 164.032 260.3 164.512 259.372 165.472C258.476 166.4 258.028 167.728 258.028 169.456V184H249.82V157.216H258.028V160.576C258.86 159.456 259.948 158.576 261.292 157.936C262.636 157.264 264.156 156.928 265.852 156.928C267.868 156.928 269.66 157.36 271.228 158.224C272.828 159.088 274.076 160.32 274.972 161.92C275.9 160.448 277.164 159.248 278.764 158.32C280.364 157.392 282.108 156.928 283.996 156.928ZM299 170.56C299 167.808 299.512 165.392 300.536 163.312C301.592 161.232 303.016 159.632 304.808 158.512C306.6 157.392 308.6 156.832 310.808 156.832C312.696 156.832 314.344 157.216 315.752 157.984C317.192 158.752 318.296 159.76 319.064 161.008V157.216H327.272V184H319.064V180.208C318.264 181.456 317.144 182.464 315.704 183.232C314.296 184 312.648 184.384 310.76 184.384C308.584 184.384 306.6 183.824 304.808 182.704C303.016 181.552 301.592 179.936 300.536 177.856C299.512 175.744 299 173.312 299 170.56ZM319.064 170.608C319.064 168.56 318.488 166.944 317.336 165.76C316.216 164.576 314.84 163.984 313.208 163.984C311.576 163.984 310.184 164.576 309.032 165.76C307.912 166.912 307.352 168.512 307.352 170.56C307.352 172.608 307.912 174.24 309.032 175.456C310.184 176.64 311.576 177.232 313.208 177.232C314.84 177.232 316.216 176.64 317.336 175.456C318.488 174.272 319.064 172.656 319.064 170.608ZM348.138 177.04V184H343.962C340.986 184 338.666 183.28 337.002 181.84C335.338 180.368 334.506 177.984 334.506 174.688V164.032H331.242V157.216H334.506V150.688H342.714V157.216H348.09V164.032H342.714V174.784C342.714 175.584 342.906 176.16 343.29 176.512C343.674 176.864 344.314 177.04 345.21 177.04H348.138ZM361.25 170.56C361.25 167.808 361.762 165.392 362.786 163.312C363.842 161.232 365.266 159.632 367.058 158.512C368.85 157.392 370.85 156.832 373.058 156.832C374.818 156.832 376.418 157.2 377.858 157.936C379.33 158.672 380.482 159.664 381.314 160.912V148.48H389.522V184H381.314V180.16C380.546 181.44 379.442 182.464 378.002 183.232C376.594 184 374.946 184.384 373.058 184.384C370.85 184.384 368.85 183.824 367.058 182.704C365.266 181.552 363.842 179.936 362.786 177.856C361.762 175.744 361.25 173.312 361.25 170.56ZM381.314 170.608C381.314 168.56 380.738 166.944 379.586 165.76C378.466 164.576 377.09 163.984 375.458 163.984C373.826 163.984 372.434 164.576 371.282 165.76C370.162 166.912 369.602 168.512 369.602 170.56C369.602 172.608 370.162 174.24 371.282 175.456C372.434 176.64 373.826 177.232 375.458 177.232C377.09 177.232 378.466 176.64 379.586 175.456C380.738 174.272 381.314 172.656 381.314 170.608ZM393.828 170.56C393.828 167.808 394.34 165.392 395.364 163.312C396.42 161.232 397.844 159.632 399.636 158.512C401.428 157.392 403.428 156.832 405.636 156.832C407.524 156.832 409.172 157.216 410.58 157.984C412.02 158.752 413.124 159.76 413.892 161.008V157.216H422.1V184H413.892V180.208C413.092 181.456 411.972 182.464 410.532 183.232C409.124 184 407.476 184.384 405.588 184.384C403.412 184.384 401.428 183.824 399.636 182.704C397.844 181.552 396.42 179.936 395.364 177.856C394.34 175.744 393.828 173.312 393.828 170.56ZM413.892 170.608C413.892 168.56 413.316 166.944 412.164 165.76C411.044 164.576 409.668 163.984 408.036 163.984C406.404 163.984 405.012 164.576 403.86 165.76C402.74 166.912 402.18 168.512 402.18 170.56C402.18 172.608 402.74 174.24 403.86 175.456C405.012 176.64 406.404 177.232 408.036 177.232C409.668 177.232 411.044 176.64 412.164 175.456C413.316 174.272 413.892 172.656 413.892 170.608ZM442.967 177.04V184H438.791C435.815 184 433.495 183.28 431.831 181.84C430.167 180.368 429.335 177.984 429.335 174.688V164.032H426.071V157.216H429.335V150.688H437.543V157.216H442.919V164.032H437.543V174.784C437.543 175.584 437.735 176.16 438.119 176.512C438.503 176.864 439.143 177.04 440.039 177.04H442.967ZM445.907 170.56C445.907 167.808 446.419 165.392 447.443 163.312C448.499 161.232 449.923 159.632 451.715 158.512C453.507 157.392 455.507 156.832 457.715 156.832C459.603 156.832 461.251 157.216 462.659 157.984C464.099 158.752 465.203 159.76 465.971 161.008V157.216H474.179V184H465.971V180.208C465.171 181.456 464.051 182.464 462.611 183.232C461.203 184 459.555 184.384 457.667 184.384C455.491 184.384 453.507 183.824 451.715 182.704C449.923 181.552 448.499 179.936 447.443 177.856C446.419 175.744 445.907 173.312 445.907 170.56ZM465.971 170.608C465.971 168.56 465.395 166.944 464.243 165.76C463.123 164.576 461.747 163.984 460.115 163.984C458.483 163.984 457.091 164.576 455.939 165.76C454.819 166.912 454.259 168.512 454.259 170.56C454.259 172.608 454.819 174.24 455.939 175.456C457.091 176.64 458.483 177.232 460.115 177.232C461.747 177.232 463.123 176.64 464.243 175.456C465.395 174.272 465.971 172.656 465.971 170.608ZM496.437 156.928C499.573 156.928 502.069 157.952 503.925 160C505.813 162.016 506.757 164.8 506.757 168.352V184H498.597V169.456C498.597 167.664 498.133 166.272 497.205 165.28C496.277 164.288 495.029 163.792 493.461 163.792C491.893 163.792 490.645 164.288 489.717 165.28C488.789 166.272 488.325 167.664 488.325 169.456V184H480.117V157.216H488.325V160.768C489.157 159.584 490.277 158.656 491.685 157.984C493.093 157.28 494.677 156.928 496.437 156.928ZM522.636 156.832C524.524 156.832 526.172 157.216 527.58 157.984C529.02 158.752 530.124 159.76 530.892 161.008V157.216H539.1V183.952C539.1 186.416 538.604 188.64 537.612 190.624C536.652 192.64 535.164 194.24 533.148 195.424C531.164 196.608 528.684 197.2 525.708 197.2C521.74 197.2 518.524 196.256 516.06 194.368C513.596 192.512 512.188 189.984 511.836 186.784H519.948C520.204 187.808 520.812 188.608 521.772 189.184C522.732 189.792 523.916 190.096 525.324 190.096C527.02 190.096 528.364 189.6 529.356 188.608C530.38 187.648 530.892 186.096 530.892 183.952V180.16C530.092 181.408 528.988 182.432 527.58 183.232C526.172 184 524.524 184.384 522.636 184.384C520.428 184.384 518.428 183.824 516.636 182.704C514.844 181.552 513.42 179.936 512.364 177.856C511.34 175.744 510.828 173.312 510.828 170.56C510.828 167.808 511.34 165.392 512.364 163.312C513.42 161.232 514.844 159.632 516.636 158.512C518.428 157.392 520.428 156.832 522.636 156.832ZM530.892 170.608C530.892 168.56 530.316 166.944 529.164 165.76C528.044 164.576 526.668 163.984 525.036 163.984C523.404 163.984 522.012 164.576 520.86 165.76C519.74 166.912 519.18 168.512 519.18 170.56C519.18 172.608 519.74 174.24 520.86 175.456C522.012 176.64 523.404 177.232 525.036 177.232C526.668 177.232 528.044 176.64 529.164 175.456C530.316 174.272 530.892 172.656 530.892 170.608ZM160.344 256L152.184 244.768V256H143.976V220.48H152.184V240.112L160.296 229.216H170.424L159.288 242.656L170.52 256H160.344ZM198.896 242.176C198.896 242.944 198.848 243.744 198.752 244.576H180.176C180.304 246.24 180.832 247.52 181.76 248.416C182.72 249.28 183.888 249.712 185.264 249.712C187.312 249.712 188.736 248.848 189.536 247.12H198.272C197.824 248.88 197.008 250.464 195.824 251.872C194.672 253.28 193.216 254.384 191.456 255.184C189.696 255.984 187.728 256.384 185.552 256.384C182.928 256.384 180.592 255.824 178.544 254.704C176.496 253.584 174.896 251.984 173.744 249.904C172.592 247.824 172.016 245.392 172.016 242.608C172.016 239.824 172.576 237.392 173.696 235.312C174.848 233.232 176.448 231.632 178.496 230.512C180.544 229.392 182.896 228.832 185.552 228.832C188.144 228.832 190.448 229.376 192.464 230.464C194.48 231.552 196.048 233.104 197.168 235.12C198.32 237.136 198.896 239.488 198.896 242.176ZM190.496 240.016C190.496 238.608 190.016 237.488 189.056 236.656C188.096 235.824 186.896 235.408 185.456 235.408C184.08 235.408 182.912 235.808 181.952 236.608C181.024 237.408 180.448 238.544 180.224 240.016H190.496ZM237.402 228.928C240.73 228.928 243.37 229.936 245.322 231.952C247.306 233.968 248.298 236.768 248.298 240.352V256H240.138V241.456C240.138 239.728 239.674 238.4 238.746 237.472C237.85 236.512 236.602 236.032 235.002 236.032C233.402 236.032 232.138 236.512 231.21 237.472C230.314 238.4 229.866 239.728 229.866 241.456V256H221.706V241.456C221.706 239.728 221.242 238.4 220.314 237.472C219.418 236.512 218.17 236.032 216.57 236.032C214.97 236.032 213.706 236.512 212.778 237.472C211.882 238.4 211.434 239.728 211.434 241.456V256H203.226V229.216H211.434V232.576C212.266 231.456 213.354 230.576 214.698 229.936C216.042 229.264 217.562 228.928 219.258 228.928C221.274 228.928 223.066 229.36 224.634 230.224C226.234 231.088 227.482 232.32 228.378 233.92C229.306 232.448 230.57 231.248 232.17 230.32C233.77 229.392 235.514 228.928 237.402 228.928ZM262.247 233.008C263.015 231.76 264.119 230.752 265.559 229.984C266.999 229.216 268.647 228.832 270.503 228.832C272.711 228.832 274.711 229.392 276.503 230.512C278.295 231.632 279.703 233.232 280.727 235.312C281.783 237.392 282.311 239.808 282.311 242.56C282.311 245.312 281.783 247.744 280.727 249.856C279.703 251.936 278.295 253.552 276.503 254.704C274.711 255.824 272.711 256.384 270.503 256.384C268.615 256.384 266.967 256.016 265.559 255.28C264.151 254.512 263.047 253.504 262.247 252.256V256H254.039V220.48H262.247V233.008ZM273.959 242.56C273.959 240.512 273.383 238.912 272.231 237.76C271.111 236.576 269.719 235.984 268.055 235.984C266.423 235.984 265.031 236.576 263.879 237.76C262.759 238.944 262.199 240.56 262.199 242.608C262.199 244.656 262.759 246.272 263.879 247.456C265.031 248.64 266.423 249.232 268.055 249.232C269.687 249.232 271.079 248.64 272.231 247.456C273.383 246.24 273.959 244.608 273.959 242.56ZM284.985 242.56C284.985 239.808 285.497 237.392 286.521 235.312C287.577 233.232 289.001 231.632 290.793 230.512C292.585 229.392 294.585 228.832 296.793 228.832C298.681 228.832 300.329 229.216 301.737 229.984C303.177 230.752 304.281 231.76 305.049 233.008V229.216H313.257V256H305.049V252.208C304.249 253.456 303.129 254.464 301.689 255.232C300.281 256 298.633 256.384 296.745 256.384C294.569 256.384 292.585 255.824 290.793 254.704C289.001 253.552 287.577 251.936 286.521 249.856C285.497 247.744 284.985 245.312 284.985 242.56ZM305.049 242.608C305.049 240.56 304.473 238.944 303.321 237.76C302.201 236.576 300.825 235.984 299.193 235.984C297.561 235.984 296.169 236.576 295.017 237.76C293.897 238.912 293.337 240.512 293.337 242.56C293.337 244.608 293.897 246.24 295.017 247.456C296.169 248.64 297.561 249.232 299.193 249.232C300.825 249.232 302.201 248.64 303.321 247.456C304.473 246.272 305.049 244.656 305.049 242.608ZM327.403 220.48V256H319.195V220.48H327.403ZM337.479 226.432C336.039 226.432 334.855 226.016 333.927 225.184C333.031 224.32 332.583 223.264 332.583 222.016C332.583 220.736 333.031 219.68 333.927 218.848C334.855 217.984 336.039 217.552 337.479 217.552C338.887 217.552 340.039 217.984 340.935 218.848C341.863 219.68 342.327 220.736 342.327 222.016C342.327 223.264 341.863 224.32 340.935 225.184C340.039 226.016 338.887 226.432 337.479 226.432ZM341.559 229.216V256H333.351V229.216H341.559Z" fill="white"/>
<path d="M209.668 331.538C210.124 331.61 210.538 331.796 210.91 332.096C211.294 332.396 211.594 332.768 211.81 333.212C212.038 333.656 212.152 334.13 212.152 334.634C212.152 335.27 211.99 335.846 211.666 336.362C211.342 336.866 210.868 337.268 210.244 337.568C209.632 337.856 208.906 338 208.066 338H203.386V325.454H207.886C208.738 325.454 209.464 325.598 210.064 325.886C210.664 326.162 211.114 326.54 211.414 327.02C211.714 327.5 211.864 328.04 211.864 328.64C211.864 329.384 211.66 330.002 211.252 330.494C210.856 330.974 210.328 331.322 209.668 331.538ZM205.024 330.872H207.778C208.546 330.872 209.14 330.692 209.56 330.332C209.98 329.972 210.19 329.474 210.19 328.838C210.19 328.202 209.98 327.704 209.56 327.344C209.14 326.984 208.534 326.804 207.742 326.804H205.024V330.872ZM207.922 336.65C208.738 336.65 209.374 336.458 209.83 336.074C210.286 335.69 210.514 335.156 210.514 334.472C210.514 333.776 210.274 333.23 209.794 332.834C209.314 332.426 208.672 332.222 207.868 332.222H205.024V336.65H207.922ZM223.425 332.69C223.425 333.002 223.407 333.332 223.371 333.68H215.487C215.547 334.652 215.877 335.414 216.477 335.966C217.089 336.506 217.827 336.776 218.691 336.776C219.399 336.776 219.987 336.614 220.455 336.29C220.935 335.954 221.271 335.51 221.463 334.958H223.227C222.963 335.906 222.435 336.68 221.643 337.28C220.851 337.868 219.867 338.162 218.691 338.162C217.755 338.162 216.915 337.952 216.171 337.532C215.439 337.112 214.863 336.518 214.443 335.75C214.023 334.97 213.813 334.07 213.813 333.05C213.813 332.03 214.017 331.136 214.425 330.368C214.833 329.6 215.403 329.012 216.135 328.604C216.879 328.184 217.731 327.974 218.691 327.974C219.627 327.974 220.455 328.178 221.175 328.586C221.895 328.994 222.447 329.558 222.831 330.278C223.227 330.986 223.425 331.79 223.425 332.69ZM221.733 332.348C221.733 331.724 221.595 331.19 221.319 330.746C221.043 330.29 220.665 329.948 220.185 329.72C219.717 329.48 219.195 329.36 218.619 329.36C217.791 329.36 217.083 329.624 216.495 330.152C215.919 330.68 215.589 331.412 215.505 332.348H221.733ZM227.225 329.738C227.513 329.174 227.921 328.736 228.449 328.424C228.989 328.112 229.643 327.956 230.411 327.956V329.648H229.979C228.143 329.648 227.225 330.644 227.225 332.636V338H225.587V328.136H227.225V329.738ZM235.794 338.162C235.038 338.162 234.36 338.036 233.76 337.784C233.16 337.52 232.686 337.16 232.338 336.704C231.99 336.236 231.798 335.702 231.762 335.102H233.454C233.502 335.594 233.73 335.996 234.138 336.308C234.558 336.62 235.104 336.776 235.776 336.776C236.4 336.776 236.892 336.638 237.252 336.362C237.612 336.086 237.792 335.738 237.792 335.318C237.792 334.886 237.6 334.568 237.216 334.364C236.832 334.148 236.238 333.938 235.434 333.734C234.702 333.542 234.102 333.35 233.634 333.158C233.178 332.954 232.782 332.66 232.446 332.276C232.122 331.88 231.96 331.364 231.96 330.728C231.96 330.224 232.11 329.762 232.41 329.342C232.71 328.922 233.136 328.592 233.688 328.352C234.24 328.1 234.87 327.974 235.578 327.974C236.67 327.974 237.552 328.25 238.224 328.802C238.896 329.354 239.256 330.11 239.304 331.07H237.666C237.63 330.554 237.42 330.14 237.036 329.828C236.664 329.516 236.16 329.36 235.524 329.36C234.936 329.36 234.468 329.486 234.12 329.738C233.772 329.99 233.598 330.32 233.598 330.728C233.598 331.052 233.7 331.322 233.904 331.538C234.12 331.742 234.384 331.91 234.696 332.042C235.02 332.162 235.464 332.3 236.028 332.456C236.736 332.648 237.312 332.84 237.756 333.032C238.2 333.212 238.578 333.488 238.89 333.86C239.214 334.232 239.382 334.718 239.394 335.318C239.394 335.858 239.244 336.344 238.944 336.776C238.644 337.208 238.218 337.55 237.666 337.802C237.126 338.042 236.502 338.162 235.794 338.162ZM241.094 333.032C241.094 332.024 241.298 331.142 241.706 330.386C242.114 329.618 242.672 329.024 243.38 328.604C244.1 328.184 244.898 327.974 245.774 327.974C246.638 327.974 247.388 328.16 248.024 328.532C248.66 328.904 249.134 329.372 249.446 329.936V328.136H251.102V338H249.446V336.164C249.122 336.74 248.636 337.22 247.988 337.604C247.352 337.976 246.608 338.162 245.756 338.162C244.88 338.162 244.088 337.946 243.38 337.514C242.672 337.082 242.114 336.476 241.706 335.696C241.298 334.916 241.094 334.028 241.094 333.032ZM249.446 333.05C249.446 332.306 249.296 331.658 248.996 331.106C248.696 330.554 248.288 330.134 247.772 329.846C247.268 329.546 246.71 329.396 246.098 329.396C245.486 329.396 244.928 329.54 244.424 329.828C243.92 330.116 243.518 330.536 243.218 331.088C242.918 331.64 242.768 332.288 242.768 333.032C242.768 333.788 242.918 334.448 243.218 335.012C243.518 335.564 243.92 335.99 244.424 336.29C244.928 336.578 245.486 336.722 246.098 336.722C246.71 336.722 247.268 336.578 247.772 336.29C248.288 335.99 248.696 335.564 248.996 335.012C249.296 334.448 249.446 333.794 249.446 333.05ZM265.732 327.956C266.5 327.956 267.184 328.118 267.784 328.442C268.384 328.754 268.858 329.228 269.206 329.864C269.554 330.5 269.728 331.274 269.728 332.186V338H268.108V332.42C268.108 331.436 267.862 330.686 267.37 330.17C266.89 329.642 266.236 329.378 265.408 329.378C264.556 329.378 263.878 329.654 263.374 330.206C262.87 330.746 262.618 331.532 262.618 332.564V338H260.998V332.42C260.998 331.436 260.752 330.686 260.26 330.17C259.78 329.642 259.126 329.378 258.298 329.378C257.446 329.378 256.768 329.654 256.264 330.206C255.76 330.746 255.508 331.532 255.508 332.564V338H253.87V328.136H255.508V329.558C255.832 329.042 256.264 328.646 256.804 328.37C257.356 328.094 257.962 327.956 258.622 327.956C259.45 327.956 260.182 328.142 260.818 328.514C261.454 328.886 261.928 329.432 262.24 330.152C262.516 329.456 262.972 328.916 263.608 328.532C264.244 328.148 264.952 327.956 265.732 327.956ZM271.803 333.032C271.803 332.024 272.007 331.142 272.415 330.386C272.823 329.618 273.381 329.024 274.089 328.604C274.809 328.184 275.607 327.974 276.483 327.974C277.347 327.974 278.097 328.16 278.733 328.532C279.369 328.904 279.843 329.372 280.155 329.936V328.136H281.811V338H280.155V336.164C279.831 336.74 279.345 337.22 278.697 337.604C278.061 337.976 277.317 338.162 276.465 338.162C275.589 338.162 274.797 337.946 274.089 337.514C273.381 337.082 272.823 336.476 272.415 335.696C272.007 334.916 271.803 334.028 271.803 333.032ZM280.155 333.05C280.155 332.306 280.005 331.658 279.705 331.106C279.405 330.554 278.997 330.134 278.481 329.846C277.977 329.546 277.419 329.396 276.807 329.396C276.195 329.396 275.637 329.54 275.133 329.828C274.629 330.116 274.227 330.536 273.927 331.088C273.627 331.64 273.477 332.288 273.477 333.032C273.477 333.788 273.627 334.448 273.927 335.012C274.227 335.564 274.629 335.99 275.133 336.29C275.637 336.578 276.195 336.722 276.807 336.722C277.419 336.722 277.977 336.578 278.481 336.29C278.997 335.99 279.405 335.564 279.705 335.012C280.005 334.448 280.155 333.794 280.155 333.05ZM294.886 338L291.016 333.644V338H289.378V324.68H291.016V332.51L294.814 328.136H297.1L292.456 333.05L297.118 338H294.886ZM299.488 326.534C299.176 326.534 298.912 326.426 298.696 326.21C298.48 325.994 298.372 325.73 298.372 325.418C298.372 325.106 298.48 324.842 298.696 324.626C298.912 324.41 299.176 324.302 299.488 324.302C299.788 324.302 300.04 324.41 300.244 324.626C300.46 324.842 300.568 325.106 300.568 325.418C300.568 325.73 300.46 325.994 300.244 326.21C300.04 326.426 299.788 326.534 299.488 326.534ZM300.28 328.136V338H298.642V328.136H300.28ZM305.07 329.486V335.3C305.07 335.78 305.172 336.122 305.376 336.326C305.58 336.518 305.934 336.614 306.438 336.614H307.644V338H306.168C305.256 338 304.572 337.79 304.116 337.37C303.66 336.95 303.432 336.26 303.432 335.3V329.486H302.154V328.136H303.432V325.652H305.07V328.136H307.644V329.486H305.07ZM309.016 333.032C309.016 332.024 309.22 331.142 309.628 330.386C310.036 329.618 310.594 329.024 311.302 328.604C312.022 328.184 312.82 327.974 313.696 327.974C314.56 327.974 315.31 328.16 315.946 328.532C316.582 328.904 317.056 329.372 317.368 329.936V328.136H319.024V338H317.368V336.164C317.044 336.74 316.558 337.22 315.91 337.604C315.274 337.976 314.53 338.162 313.678 338.162C312.802 338.162 312.01 337.946 311.302 337.514C310.594 337.082 310.036 336.476 309.628 335.696C309.22 334.916 309.016 334.028 309.016 333.032ZM317.368 333.05C317.368 332.306 317.218 331.658 316.918 331.106C316.618 330.554 316.21 330.134 315.694 329.846C315.19 329.546 314.632 329.396 314.02 329.396C313.408 329.396 312.85 329.54 312.346 329.828C311.842 330.116 311.44 330.536 311.14 331.088C310.84 331.64 310.69 332.288 310.69 333.032C310.69 333.788 310.84 334.448 311.14 335.012C311.44 335.564 311.842 335.99 312.346 336.29C312.85 336.578 313.408 336.722 314.02 336.722C314.632 336.722 315.19 336.578 315.694 336.29C316.21 335.99 316.618 335.564 316.918 335.012C317.218 334.448 317.368 333.794 317.368 333.05ZM339.731 328.136L336.653 338H334.961L332.585 330.17L330.209 338H328.517L325.421 328.136H327.095L329.363 336.416L331.811 328.136H333.485L335.879 336.434L338.111 328.136H339.731ZM350.105 328.136V338H348.467V336.542C348.155 337.046 347.717 337.442 347.153 337.73C346.601 338.006 345.989 338.144 345.317 338.144C344.549 338.144 343.859 337.988 343.247 337.676C342.635 337.352 342.149 336.872 341.789 336.236C341.441 335.6 341.267 334.826 341.267 333.914V328.136H342.887V333.698C342.887 334.67 343.133 335.42 343.625 335.948C344.117 336.464 344.789 336.722 345.641 336.722C346.517 336.722 347.207 336.452 347.711 335.912C348.215 335.372 348.467 334.586 348.467 333.554V328.136H350.105ZM353.752 326.534C353.44 326.534 353.176 326.426 352.96 326.21C352.756 325.994 352.654 325.73 352.654 325.418C352.654 325.106 352.756 324.842 352.96 324.626C353.176 324.41 353.44 324.302 353.752 324.302C354.064 324.302 354.322 324.41 354.526 324.626C354.742 324.842 354.85 325.106 354.85 325.418C354.85 325.73 354.742 325.994 354.526 326.21C354.322 326.426 354.064 326.534 353.752 326.534ZM354.562 340.142C354.562 341.018 354.34 341.66 353.896 342.068C353.452 342.476 352.804 342.68 351.952 342.68H350.998V341.294H351.682C352.138 341.294 352.456 341.204 352.636 341.024C352.828 340.844 352.924 340.538 352.924 340.106V328.136H354.562V340.142ZM366.083 328.136V338H364.445V336.542C364.133 337.046 363.695 337.442 363.131 337.73C362.579 338.006 361.967 338.144 361.295 338.144C360.527 338.144 359.837 337.988 359.225 337.676C358.613 337.352 358.127 336.872 357.767 336.236C357.419 335.6 357.245 334.826 357.245 333.914V328.136H358.865V333.698C358.865 334.67 359.111 335.42 359.603 335.948C360.095 336.464 360.767 336.722 361.619 336.722C362.495 336.722 363.185 336.452 363.689 335.912C364.193 335.372 364.445 334.586 364.445 333.554V328.136H366.083ZM368.237 333.032C368.237 332.024 368.441 331.142 368.849 330.386C369.257 329.618 369.815 329.024 370.523 328.604C371.243 328.184 372.047 327.974 372.935 327.974C373.703 327.974 374.417 328.154 375.077 328.514C375.737 328.862 376.241 329.324 376.589 329.9V324.68H378.245V338H376.589V336.146C376.265 336.734 375.785 337.22 375.149 337.604C374.513 337.976 373.769 338.162 372.917 338.162C372.041 338.162 371.243 337.946 370.523 337.514C369.815 337.082 369.257 336.476 368.849 335.696C368.441 334.916 368.237 334.028 368.237 333.032ZM376.589 333.05C376.589 332.306 376.439 331.658 376.139 331.106C375.839 330.554 375.431 330.134 374.915 329.846C374.411 329.546 373.853 329.396 373.241 329.396C372.629 329.396 372.071 329.54 371.567 329.828C371.063 330.116 370.661 330.536 370.361 331.088C370.061 331.64 369.911 332.288 369.911 333.032C369.911 333.788 370.061 334.448 370.361 335.012C370.661 335.564 371.063 335.99 371.567 336.29C372.071 336.578 372.629 336.722 373.241 336.722C373.853 336.722 374.411 336.578 374.915 336.29C375.431 335.99 375.839 335.564 376.139 335.012C376.439 334.448 376.589 333.794 376.589 333.05ZM386.521 338L382.651 333.644V338H381.013V324.68H382.651V332.51L386.449 328.136H388.735L384.091 333.05L388.753 338H386.521ZM389.665 333.032C389.665 332.024 389.869 331.142 390.277 330.386C390.685 329.618 391.243 329.024 391.951 328.604C392.671 328.184 393.469 327.974 394.345 327.974C395.209 327.974 395.959 328.16 396.595 328.532C397.231 328.904 397.705 329.372 398.017 329.936V328.136H399.673V338H398.017V336.164C397.693 336.74 397.207 337.22 396.559 337.604C395.923 337.976 395.179 338.162 394.327 338.162C393.451 338.162 392.659 337.946 391.951 337.514C391.243 337.082 390.685 336.476 390.277 335.696C389.869 334.916 389.665 334.028 389.665 333.032ZM398.017 333.05C398.017 332.306 397.867 331.658 397.567 331.106C397.267 330.554 396.859 330.134 396.343 329.846C395.839 329.546 395.281 329.396 394.669 329.396C394.057 329.396 393.499 329.54 392.995 329.828C392.491 330.116 392.089 330.536 391.789 331.088C391.489 331.64 391.339 332.288 391.339 333.032C391.339 333.788 391.489 334.448 391.789 335.012C392.089 335.564 392.491 335.99 392.995 336.29C393.499 336.578 394.057 336.722 394.669 336.722C395.281 336.722 395.839 336.578 396.343 336.29C396.859 335.99 397.267 335.564 397.567 335.012C397.867 334.448 398.017 333.794 398.017 333.05ZM407.247 327.956C408.447 327.956 409.419 328.322 410.163 329.054C410.907 329.774 411.279 330.818 411.279 332.186V338H409.659V332.42C409.659 331.436 409.413 330.686 408.921 330.17C408.429 329.642 407.757 329.378 406.905 329.378C406.041 329.378 405.351 329.648 404.835 330.188C404.331 330.728 404.079 331.514 404.079 332.546V338H402.441V328.136H404.079V329.54C404.403 329.036 404.841 328.646 405.393 328.37C405.957 328.094 406.575 327.956 407.247 327.956ZM431.479 325.544V338H429.841V328.712L425.701 338H424.549L420.391 328.694V338H418.753V325.544H420.517L425.125 335.84L429.733 325.544H431.479ZM443.005 328.136V338H441.367V336.542C441.055 337.046 440.617 337.442 440.053 337.73C439.501 338.006 438.889 338.144 438.217 338.144C437.449 338.144 436.759 337.988 436.147 337.676C435.535 337.352 435.049 336.872 434.689 336.236C434.341 335.6 434.167 334.826 434.167 333.914V328.136H435.787V333.698C435.787 334.67 436.033 335.42 436.525 335.948C437.017 336.464 437.689 336.722 438.541 336.722C439.417 336.722 440.107 336.452 440.611 335.912C441.115 335.372 441.367 334.586 441.367 333.554V328.136H443.005ZM445.159 333.032C445.159 332.024 445.363 331.142 445.771 330.386C446.179 329.618 446.737 329.024 447.445 328.604C448.165 328.184 448.969 327.974 449.857 327.974C450.625 327.974 451.339 328.154 451.999 328.514C452.659 328.862 453.163 329.324 453.511 329.9V324.68H455.167V338H453.511V336.146C453.187 336.734 452.707 337.22 452.071 337.604C451.435 337.976 450.691 338.162 449.839 338.162C448.963 338.162 448.165 337.946 447.445 337.514C446.737 337.082 446.179 336.476 445.771 335.696C445.363 334.916 445.159 334.028 445.159 333.032ZM453.511 333.05C453.511 332.306 453.361 331.658 453.061 331.106C452.761 330.554 452.353 330.134 451.837 329.846C451.333 329.546 450.775 329.396 450.163 329.396C449.551 329.396 448.993 329.54 448.489 329.828C447.985 330.116 447.583 330.536 447.283 331.088C446.983 331.64 446.833 332.288 446.833 333.032C446.833 333.788 446.983 334.448 447.283 335.012C447.583 335.564 447.985 335.99 448.489 336.29C448.993 336.578 449.551 336.722 450.163 336.722C450.775 336.722 451.333 336.578 451.837 336.29C452.353 335.99 452.761 335.564 453.061 335.012C453.361 334.448 453.511 333.794 453.511 333.05ZM457.323 333.032C457.323 332.024 457.527 331.142 457.935 330.386C458.343 329.618 458.901 329.024 459.609 328.604C460.329 328.184 461.127 327.974 462.003 327.974C462.867 327.974 463.617 328.16 464.253 328.532C464.889 328.904 465.363 329.372 465.675 329.936V328.136H467.331V338H465.675V336.164C465.351 336.74 464.865 337.22 464.217 337.604C463.581 337.976 462.837 338.162 461.985 338.162C461.109 338.162 460.317 337.946 459.609 337.514C458.901 337.082 458.343 336.476 457.935 335.696C457.527 334.916 457.323 334.028 457.323 333.032ZM465.675 333.05C465.675 332.306 465.525 331.658 465.225 331.106C464.925 330.554 464.517 330.134 464.001 329.846C463.497 329.546 462.939 329.396 462.327 329.396C461.715 329.396 461.157 329.54 460.653 329.828C460.149 330.116 459.747 330.536 459.447 331.088C459.147 331.64 458.997 332.288 458.997 333.032C458.997 333.788 459.147 334.448 459.447 335.012C459.747 335.564 460.149 335.99 460.653 336.29C461.157 336.578 461.715 336.722 462.327 336.722C462.939 336.722 463.497 336.578 464.001 336.29C464.517 335.99 464.925 335.564 465.225 335.012C465.525 334.448 465.675 333.794 465.675 333.05ZM481.18 331.538C481.636 331.61 482.05 331.796 482.422 332.096C482.806 332.396 483.106 332.768 483.322 333.212C483.55 333.656 483.664 334.13 483.664 334.634C483.664 335.27 483.502 335.846 483.178 336.362C482.854 336.866 482.38 337.268 481.756 337.568C481.144 337.856 480.418 338 479.578 338H474.898V325.454H479.398C480.25 325.454 480.976 325.598 481.576 325.886C482.176 326.162 482.626 326.54 482.926 327.02C483.226 327.5 483.376 328.04 483.376 328.64C483.376 329.384 483.172 330.002 482.764 330.494C482.368 330.974 481.84 331.322 481.18 331.538ZM476.536 330.872H479.29C480.058 330.872 480.652 330.692 481.072 330.332C481.492 329.972 481.702 329.474 481.702 328.838C481.702 328.202 481.492 327.704 481.072 327.344C480.652 326.984 480.046 326.804 479.254 326.804H476.536V330.872ZM479.434 336.65C480.25 336.65 480.886 336.458 481.342 336.074C481.798 335.69 482.026 335.156 482.026 334.472C482.026 333.776 481.786 333.23 481.306 332.834C480.826 332.426 480.184 332.222 479.38 332.222H476.536V336.65H479.434ZM494.937 332.69C494.937 333.002 494.919 333.332 494.883 333.68H486.999C487.059 334.652 487.389 335.414 487.989 335.966C488.601 336.506 489.339 336.776 490.203 336.776C490.911 336.776 491.499 336.614 491.967 336.29C492.447 335.954 492.783 335.51 492.975 334.958H494.739C494.475 335.906 493.947 336.68 493.155 337.28C492.363 337.868 491.379 338.162 490.203 338.162C489.267 338.162 488.427 337.952 487.683 337.532C486.951 337.112 486.375 336.518 485.955 335.75C485.535 334.97 485.325 334.07 485.325 333.05C485.325 332.03 485.529 331.136 485.937 330.368C486.345 329.6 486.915 329.012 487.647 328.604C488.391 328.184 489.243 327.974 490.203 327.974C491.139 327.974 491.967 328.178 492.687 328.586C493.407 328.994 493.959 329.558 494.343 330.278C494.739 330.986 494.937 331.79 494.937 332.69ZM493.245 332.348C493.245 331.724 493.107 331.19 492.831 330.746C492.555 330.29 492.177 329.948 491.697 329.72C491.229 329.48 490.707 329.36 490.131 329.36C489.303 329.36 488.595 329.624 488.007 330.152C487.431 330.68 487.101 331.412 487.017 332.348H493.245ZM498.737 329.738C499.025 329.174 499.433 328.736 499.961 328.424C500.501 328.112 501.155 327.956 501.923 327.956V329.648H501.491C499.655 329.648 498.737 330.644 498.737 332.636V338H497.099V328.136H498.737V329.738ZM509.322 338L505.452 333.644V338H503.814V324.68H505.452V332.51L509.25 328.136H511.536L506.892 333.05L511.554 338H509.322ZM517.379 338.162C516.455 338.162 515.615 337.952 514.859 337.532C514.115 337.112 513.527 336.518 513.095 335.75C512.675 334.97 512.465 334.07 512.465 333.05C512.465 332.042 512.681 331.154 513.113 330.386C513.557 329.606 514.157 329.012 514.913 328.604C515.669 328.184 516.515 327.974 517.451 327.974C518.387 327.974 519.233 328.184 519.989 328.604C520.745 329.012 521.339 329.6 521.771 330.368C522.215 331.136 522.437 332.03 522.437 333.05C522.437 334.07 522.209 334.97 521.753 335.75C521.309 336.518 520.703 337.112 519.935 337.532C519.167 337.952 518.315 338.162 517.379 338.162ZM517.379 336.722C517.967 336.722 518.519 336.584 519.035 336.308C519.551 336.032 519.965 335.618 520.277 335.066C520.601 334.514 520.763 333.842 520.763 333.05C520.763 332.258 520.607 331.586 520.295 331.034C519.983 330.482 519.575 330.074 519.071 329.81C518.567 329.534 518.021 329.396 517.433 329.396C516.833 329.396 516.281 329.534 515.777 329.81C515.285 330.074 514.889 330.482 514.589 331.034C514.289 331.586 514.139 332.258 514.139 333.05C514.139 333.854 514.283 334.532 514.571 335.084C514.871 335.636 515.267 336.05 515.759 336.326C516.251 336.59 516.791 336.722 517.379 336.722ZM536.453 327.956C537.221 327.956 537.905 328.118 538.505 328.442C539.105 328.754 539.579 329.228 539.927 329.864C540.275 330.5 540.449 331.274 540.449 332.186V338H538.829V332.42C538.829 331.436 538.583 330.686 538.091 330.17C537.611 329.642 536.957 329.378 536.129 329.378C535.277 329.378 534.599 329.654 534.095 330.206C533.591 330.746 533.339 331.532 533.339 332.564V338H531.719V332.42C531.719 331.436 531.473 330.686 530.981 330.17C530.501 329.642 529.847 329.378 529.019 329.378C528.167 329.378 527.489 329.654 526.985 330.206C526.481 330.746 526.229 331.532 526.229 332.564V338H524.591V328.136H526.229V329.558C526.553 329.042 526.985 328.646 527.525 328.37C528.077 328.094 528.683 327.956 529.343 327.956C530.171 327.956 530.903 328.142 531.539 328.514C532.175 328.886 532.649 329.432 532.961 330.152C533.237 329.456 533.693 328.916 534.329 328.532C534.965 328.148 535.673 327.956 536.453 327.956ZM544.774 329.954C545.098 329.39 545.578 328.922 546.214 328.55C546.862 328.166 547.612 327.974 548.464 327.974C549.34 327.974 550.132 328.184 550.84 328.604C551.56 329.024 552.124 329.618 552.532 330.386C552.94 331.142 553.144 332.024 553.144 333.032C553.144 334.028 552.94 334.916 552.532 335.696C552.124 336.476 551.56 337.082 550.84 337.514C550.132 337.946 549.34 338.162 548.464 338.162C547.624 338.162 546.88 337.976 546.232 337.604C545.596 337.22 545.11 336.746 544.774 336.182V342.68H543.136V328.136H544.774V329.954ZM551.47 333.032C551.47 332.288 551.32 331.64 551.02 331.088C550.72 330.536 550.312 330.116 549.796 329.828C549.292 329.54 548.734 329.396 548.122 329.396C547.522 329.396 546.964 329.546 546.448 329.846C545.944 330.134 545.536 330.56 545.224 331.124C544.924 331.676 544.774 332.318 544.774 333.05C544.774 333.794 544.924 334.448 545.224 335.012C545.536 335.564 545.944 335.99 546.448 336.29C546.964 336.578 547.522 336.722 548.122 336.722C548.734 336.722 549.292 336.578 549.796 336.29C550.312 335.99 550.72 335.564 551.02 335.012C551.32 334.448 551.47 333.788 551.47 333.032ZM564.3 332.69C564.3 333.002 564.282 333.332 564.246 333.68H556.362C556.422 334.652 556.752 335.414 557.352 335.966C557.964 336.506 558.702 336.776 559.566 336.776C560.274 336.776 560.862 336.614 561.33 336.29C561.81 335.954 562.146 335.51 562.338 334.958H564.102C563.838 335.906 563.31 336.68 562.518 337.28C561.726 337.868 560.742 338.162 559.566 338.162C558.63 338.162 557.79 337.952 557.046 337.532C556.314 337.112 555.738 336.518 555.318 335.75C554.898 334.97 554.688 334.07 554.688 333.05C554.688 332.03 554.892 331.136 555.3 330.368C555.708 329.6 556.278 329.012 557.01 328.604C557.754 328.184 558.606 327.974 559.566 327.974C560.502 327.974 561.33 328.178 562.05 328.586C562.77 328.994 563.322 329.558 563.706 330.278C564.102 330.986 564.3 331.79 564.3 332.69ZM562.608 332.348C562.608 331.724 562.47 331.19 562.194 330.746C561.918 330.29 561.54 329.948 561.06 329.72C560.592 329.48 560.07 329.36 559.494 329.36C558.666 329.36 557.958 329.624 557.37 330.152C556.794 330.68 556.464 331.412 556.38 332.348H562.608ZM568.46 329.486V335.3C568.46 335.78 568.562 336.122 568.766 336.326C568.97 336.518 569.324 336.614 569.828 336.614H571.034V338H569.558C568.646 338 567.962 337.79 567.506 337.37C567.05 336.95 566.822 336.26 566.822 335.3V329.486H565.544V328.136H566.822V325.652H568.46V328.136H571.034V329.486H568.46ZM573.865 326.534C573.553 326.534 573.289 326.426 573.073 326.21C572.857 325.994 572.749 325.73 572.749 325.418C572.749 325.106 572.857 324.842 573.073 324.626C573.289 324.41 573.553 324.302 573.865 324.302C574.165 324.302 574.417 324.41 574.621 324.626C574.837 324.842 574.945 325.106 574.945 325.418C574.945 325.73 574.837 325.994 574.621 326.21C574.417 326.426 574.165 326.534 573.865 326.534ZM574.657 328.136V338H573.019V328.136H574.657ZM580.941 338.162C580.185 338.162 579.507 338.036 578.907 337.784C578.307 337.52 577.833 337.16 577.485 336.704C577.137 336.236 576.945 335.702 576.909 335.102H578.601C578.649 335.594 578.877 335.996 579.285 336.308C579.705 336.62 580.251 336.776 580.923 336.776C581.547 336.776 582.039 336.638 582.399 336.362C582.759 336.086 582.939 335.738 582.939 335.318C582.939 334.886 582.747 334.568 582.363 334.364C581.979 334.148 581.385 333.938 580.581 333.734C579.849 333.542 579.249 333.35 578.781 333.158C578.325 332.954 577.929 332.66 577.593 332.276C577.269 331.88 577.107 331.364 577.107 330.728C577.107 330.224 577.257 329.762 577.557 329.342C577.857 328.922 578.283 328.592 578.835 328.352C579.387 328.1 580.017 327.974 580.725 327.974C581.817 327.974 582.699 328.25 583.371 328.802C584.043 329.354 584.403 330.11 584.451 331.07H582.813C582.777 330.554 582.567 330.14 582.183 329.828C581.811 329.516 581.307 329.36 580.671 329.36C580.083 329.36 579.615 329.486 579.267 329.738C578.919 329.99 578.745 330.32 578.745 330.728C578.745 331.052 578.847 331.322 579.051 331.538C579.267 331.742 579.531 331.91 579.843 332.042C580.167 332.162 580.611 332.3 581.175 332.456C581.883 332.648 582.459 332.84 582.903 333.032C583.347 333.212 583.725 333.488 584.037 333.86C584.361 334.232 584.529 334.718 584.541 335.318C584.541 335.858 584.391 336.344 584.091 336.776C583.791 337.208 583.365 337.55 582.813 337.802C582.273 338.042 581.649 338.162 580.941 338.162ZM587.699 326.534C587.387 326.534 587.123 326.426 586.907 326.21C586.691 325.994 586.583 325.73 586.583 325.418C586.583 325.106 586.691 324.842 586.907 324.626C587.123 324.41 587.387 324.302 587.699 324.302C587.999 324.302 588.251 324.41 588.455 324.626C588.671 324.842 588.779 325.106 588.779 325.418C588.779 325.73 588.671 325.994 588.455 326.21C588.251 326.426 587.999 326.534 587.699 326.534ZM588.491 328.136V338H586.853V328.136H588.491ZM592.974 335.732L590.958 340.574H589.86L591.174 335.732H592.974ZM209.668 358.538C210.124 358.61 210.538 358.796 210.91 359.096C211.294 359.396 211.594 359.768 211.81 360.212C212.038 360.656 212.152 361.13 212.152 361.634C212.152 362.27 211.99 362.846 211.666 363.362C211.342 363.866 210.868 364.268 210.244 364.568C209.632 364.856 208.906 365 208.066 365H203.386V352.454H207.886C208.738 352.454 209.464 352.598 210.064 352.886C210.664 353.162 211.114 353.54 211.414 354.02C211.714 354.5 211.864 355.04 211.864 355.64C211.864 356.384 211.66 357.002 211.252 357.494C210.856 357.974 210.328 358.322 209.668 358.538ZM205.024 357.872H207.778C208.546 357.872 209.14 357.692 209.56 357.332C209.98 356.972 210.19 356.474 210.19 355.838C210.19 355.202 209.98 354.704 209.56 354.344C209.14 353.984 208.534 353.804 207.742 353.804H205.024V357.872ZM207.922 363.65C208.738 363.65 209.374 363.458 209.83 363.074C210.286 362.69 210.514 362.156 210.514 361.472C210.514 360.776 210.274 360.23 209.794 359.834C209.314 359.426 208.672 359.222 207.868 359.222H205.024V363.65H207.922ZM223.425 359.69C223.425 360.002 223.407 360.332 223.371 360.68H215.487C215.547 361.652 215.877 362.414 216.477 362.966C217.089 363.506 217.827 363.776 218.691 363.776C219.399 363.776 219.987 363.614 220.455 363.29C220.935 362.954 221.271 362.51 221.463 361.958H223.227C222.963 362.906 222.435 363.68 221.643 364.28C220.851 364.868 219.867 365.162 218.691 365.162C217.755 365.162 216.915 364.952 216.171 364.532C215.439 364.112 214.863 363.518 214.443 362.75C214.023 361.97 213.813 361.07 213.813 360.05C213.813 359.03 214.017 358.136 214.425 357.368C214.833 356.6 215.403 356.012 216.135 355.604C216.879 355.184 217.731 354.974 218.691 354.974C219.627 354.974 220.455 355.178 221.175 355.586C221.895 355.994 222.447 356.558 222.831 357.278C223.227 357.986 223.425 358.79 223.425 359.69ZM221.733 359.348C221.733 358.724 221.595 358.19 221.319 357.746C221.043 357.29 220.665 356.948 220.185 356.72C219.717 356.48 219.195 356.36 218.619 356.36C217.791 356.36 217.083 356.624 216.495 357.152C215.919 357.68 215.589 358.412 215.505 359.348H221.733ZM227.225 356.738C227.513 356.174 227.921 355.736 228.449 355.424C228.989 355.112 229.643 354.956 230.411 354.956V356.648H229.979C228.143 356.648 227.225 357.644 227.225 359.636V365H225.587V355.136H227.225V356.738ZM237.81 365L233.94 360.644V365H232.302V351.68H233.94V359.51L237.738 355.136H240.024L235.38 360.05L240.042 365H237.81ZM245.868 365.162C244.944 365.162 244.104 364.952 243.348 364.532C242.604 364.112 242.016 363.518 241.584 362.75C241.164 361.97 240.954 361.07 240.954 360.05C240.954 359.042 241.17 358.154 241.602 357.386C242.046 356.606 242.646 356.012 243.402 355.604C244.158 355.184 245.004 354.974 245.94 354.974C246.876 354.974 247.722 355.184 248.478 355.604C249.234 356.012 249.828 356.6 250.26 357.368C250.704 358.136 250.926 359.03 250.926 360.05C250.926 361.07 250.698 361.97 250.242 362.75C249.798 363.518 249.192 364.112 248.424 364.532C247.656 364.952 246.804 365.162 245.868 365.162ZM245.868 363.722C246.456 363.722 247.008 363.584 247.524 363.308C248.04 363.032 248.454 362.618 248.766 362.066C249.09 361.514 249.252 360.842 249.252 360.05C249.252 359.258 249.096 358.586 248.784 358.034C248.472 357.482 248.064 357.074 247.56 356.81C247.056 356.534 246.51 356.396 245.922 356.396C245.322 356.396 244.77 356.534 244.266 356.81C243.774 357.074 243.378 357.482 243.078 358.034C242.778 358.586 242.628 359.258 242.628 360.05C242.628 360.854 242.772 361.532 243.06 362.084C243.36 362.636 243.756 363.05 244.248 363.326C244.74 363.59 245.28 363.722 245.868 363.722ZM254.717 351.68V365H253.079V351.68H254.717ZM256.897 360.032C256.897 359.024 257.101 358.142 257.509 357.386C257.917 356.618 258.475 356.024 259.183 355.604C259.903 355.184 260.701 354.974 261.577 354.974C262.441 354.974 263.191 355.16 263.827 355.532C264.463 355.904 264.937 356.372 265.249 356.936V355.136H266.905V365H265.249V363.164C264.925 363.74 264.439 364.22 263.791 364.604C263.155 364.976 262.411 365.162 261.559 365.162C260.683 365.162 259.891 364.946 259.183 364.514C258.475 364.082 257.917 363.476 257.509 362.696C257.101 361.916 256.897 361.028 256.897 360.032ZM265.249 360.05C265.249 359.306 265.099 358.658 264.799 358.106C264.499 357.554 264.091 357.134 263.575 356.846C263.071 356.546 262.513 356.396 261.901 356.396C261.289 356.396 260.731 356.54 260.227 356.828C259.723 357.116 259.321 357.536 259.021 358.088C258.721 358.64 258.571 359.288 258.571 360.032C258.571 360.788 258.721 361.448 259.021 362.012C259.321 362.564 259.723 362.99 260.227 363.29C260.731 363.578 261.289 363.722 261.901 363.722C262.513 363.722 263.071 363.578 263.575 363.29C264.091 362.99 264.499 362.564 264.799 362.012C265.099 361.448 265.249 360.794 265.249 360.05ZM271.311 356.972C271.647 356.384 272.139 355.904 272.787 355.532C273.435 355.16 274.173 354.974 275.001 354.974C275.889 354.974 276.687 355.184 277.395 355.604C278.103 356.024 278.661 356.618 279.069 357.386C279.477 358.142 279.681 359.024 279.681 360.032C279.681 361.028 279.477 361.916 279.069 362.696C278.661 363.476 278.097 364.082 277.377 364.514C276.669 364.946 275.877 365.162 275.001 365.162C274.149 365.162 273.399 364.976 272.751 364.604C272.115 364.232 271.635 363.758 271.311 363.182V365H269.673V351.68H271.311V356.972ZM278.007 360.032C278.007 359.288 277.857 358.64 277.557 358.088C277.257 357.536 276.849 357.116 276.333 356.828C275.829 356.54 275.271 356.396 274.659 356.396C274.059 356.396 273.501 356.546 272.985 356.846C272.481 357.134 272.073 357.56 271.761 358.124C271.461 358.676 271.311 359.318 271.311 360.05C271.311 360.794 271.461 361.448 271.761 362.012C272.073 362.564 272.481 362.99 272.985 363.29C273.501 363.578 274.059 363.722 274.659 363.722C275.271 363.722 275.829 363.578 276.333 363.29C276.849 362.99 277.257 362.564 277.557 362.012C277.857 361.448 278.007 360.788 278.007 360.032ZM286.139 365.162C285.215 365.162 284.375 364.952 283.619 364.532C282.875 364.112 282.287 363.518 281.855 362.75C281.435 361.97 281.225 361.07 281.225 360.05C281.225 359.042 281.441 358.154 281.873 357.386C282.317 356.606 282.917 356.012 283.673 355.604C284.429 355.184 285.275 354.974 286.211 354.974C287.147 354.974 287.993 355.184 288.749 355.604C289.505 356.012 290.099 356.6 290.531 357.368C290.975 358.136 291.197 359.03 291.197 360.05C291.197 361.07 290.969 361.97 290.513 362.75C290.069 363.518 289.463 364.112 288.695 364.532C287.927 364.952 287.075 365.162 286.139 365.162ZM286.139 363.722C286.727 363.722 287.279 363.584 287.795 363.308C288.311 363.032 288.725 362.618 289.037 362.066C289.361 361.514 289.523 360.842 289.523 360.05C289.523 359.258 289.367 358.586 289.055 358.034C288.743 357.482 288.335 357.074 287.831 356.81C287.327 356.534 286.781 356.396 286.193 356.396C285.593 356.396 285.041 356.534 284.537 356.81C284.045 357.074 283.649 357.482 283.349 358.034C283.049 358.586 282.899 359.258 282.899 360.05C282.899 360.854 283.043 361.532 283.331 362.084C283.631 362.636 284.027 363.05 284.519 363.326C285.011 363.59 285.551 363.722 286.139 363.722ZM294.989 356.738C295.277 356.174 295.685 355.736 296.213 355.424C296.753 355.112 297.407 354.956 298.175 354.956V356.648H297.743C295.907 356.648 294.989 357.644 294.989 359.636V365H293.351V355.136H294.989V356.738ZM299.454 360.032C299.454 359.024 299.658 358.142 300.066 357.386C300.474 356.618 301.032 356.024 301.74 355.604C302.46 355.184 303.258 354.974 304.134 354.974C304.998 354.974 305.748 355.16 306.384 355.532C307.02 355.904 307.494 356.372 307.806 356.936V355.136H309.462V365H307.806V363.164C307.482 363.74 306.996 364.22 306.348 364.604C305.712 364.976 304.968 365.162 304.116 365.162C303.24 365.162 302.448 364.946 301.74 364.514C301.032 364.082 300.474 363.476 300.066 362.696C299.658 361.916 299.454 361.028 299.454 360.032ZM307.806 360.05C307.806 359.306 307.656 358.658 307.356 358.106C307.056 357.554 306.648 357.134 306.132 356.846C305.628 356.546 305.07 356.396 304.458 356.396C303.846 356.396 303.288 356.54 302.784 356.828C302.28 357.116 301.878 357.536 301.578 358.088C301.278 358.64 301.128 359.288 301.128 360.032C301.128 360.788 301.278 361.448 301.578 362.012C301.878 362.564 302.28 362.99 302.784 363.29C303.288 363.578 303.846 363.722 304.458 363.722C305.07 363.722 305.628 363.578 306.132 363.29C306.648 362.99 307.056 362.564 307.356 362.012C307.656 361.448 307.806 360.794 307.806 360.05ZM315.722 365.162C314.966 365.162 314.288 365.036 313.688 364.784C313.088 364.52 312.614 364.16 312.266 363.704C311.918 363.236 311.726 362.702 311.69 362.102H313.382C313.43 362.594 313.658 362.996 314.066 363.308C314.486 363.62 315.032 363.776 315.704 363.776C316.328 363.776 316.82 363.638 317.18 363.362C317.54 363.086 317.72 362.738 317.72 362.318C317.72 361.886 317.528 361.568 317.144 361.364C316.76 361.148 316.166 360.938 315.362 360.734C314.63 360.542 314.03 360.35 313.562 360.158C313.106 359.954 312.71 359.66 312.374 359.276C312.05 358.88 311.888 358.364 311.888 357.728C311.888 357.224 312.038 356.762 312.338 356.342C312.638 355.922 313.064 355.592 313.616 355.352C314.168 355.1 314.798 354.974 315.506 354.974C316.598 354.974 317.48 355.25 318.152 355.802C318.824 356.354 319.184 357.11 319.232 358.07H317.594C317.558 357.554 317.348 357.14 316.964 356.828C316.592 356.516 316.088 356.36 315.452 356.36C314.864 356.36 314.396 356.486 314.048 356.738C313.7 356.99 313.526 357.32 313.526 357.728C313.526 358.052 313.628 358.322 313.832 358.538C314.048 358.742 314.312 358.91 314.624 359.042C314.948 359.162 315.392 359.3 315.956 359.456C316.664 359.648 317.24 359.84 317.684 360.032C318.128 360.212 318.506 360.488 318.818 360.86C319.142 361.232 319.31 361.718 319.322 362.318C319.322 362.858 319.172 363.344 318.872 363.776C318.572 364.208 318.146 364.55 317.594 364.802C317.054 365.042 316.43 365.162 315.722 365.162ZM322.48 353.534C322.168 353.534 321.904 353.426 321.688 353.21C321.472 352.994 321.364 352.73 321.364 352.418C321.364 352.106 321.472 351.842 321.688 351.626C321.904 351.41 322.168 351.302 322.48 351.302C322.78 351.302 323.032 351.41 323.236 351.626C323.452 351.842 323.56 352.106 323.56 352.418C323.56 352.73 323.452 352.994 323.236 353.21C323.032 353.426 322.78 353.534 322.48 353.534ZM323.272 355.136V365H321.634V355.136H323.272ZM340.493 365L338.855 363.344C338.243 363.98 337.589 364.454 336.893 364.766C336.197 365.066 335.411 365.216 334.535 365.216C333.671 365.216 332.903 365.06 332.231 364.748C331.571 364.436 331.055 363.992 330.683 363.416C330.323 362.84 330.143 362.168 330.143 361.4C330.143 360.524 330.389 359.756 330.881 359.096C331.385 358.424 332.123 357.896 333.095 357.512C332.711 357.056 332.435 356.636 332.267 356.252C332.099 355.868 332.015 355.448 332.015 354.992C332.015 354.464 332.147 353.99 332.411 353.57C332.687 353.138 333.077 352.802 333.581 352.562C334.085 352.322 334.667 352.202 335.327 352.202C335.975 352.202 336.539 352.328 337.019 352.58C337.499 352.832 337.859 353.186 338.099 353.642C338.339 354.086 338.447 354.584 338.423 355.136H336.785C336.797 354.644 336.659 354.26 336.371 353.984C336.083 353.696 335.711 353.552 335.255 353.552C334.775 353.552 334.385 353.69 334.085 353.966C333.797 354.23 333.653 354.572 333.653 354.992C333.653 355.352 333.749 355.7 333.941 356.036C334.145 356.372 334.481 356.786 334.949 357.278L338.693 361.04L339.017 360.536L340.241 358.484H342.005L340.529 361.04C340.325 361.4 340.085 361.778 339.809 362.174L342.635 365H340.493ZM334.535 363.812C335.183 363.812 335.765 363.686 336.281 363.434C336.809 363.182 337.307 362.792 337.775 362.264L334.085 358.556C332.549 359.144 331.781 360.074 331.781 361.346C331.781 362.054 332.033 362.642 332.537 363.11C333.053 363.578 333.719 363.812 334.535 363.812ZM355.25 358.538C355.706 358.61 356.12 358.796 356.492 359.096C356.876 359.396 357.176 359.768 357.392 360.212C357.62 360.656 357.734 361.13 357.734 361.634C357.734 362.27 357.572 362.846 357.248 363.362C356.924 363.866 356.45 364.268 355.826 364.568C355.214 364.856 354.488 365 353.648 365H348.968V352.454H353.468C354.32 352.454 355.046 352.598 355.646 352.886C356.246 353.162 356.696 353.54 356.996 354.02C357.296 354.5 357.446 355.04 357.446 355.64C357.446 356.384 357.242 357.002 356.834 357.494C356.438 357.974 355.91 358.322 355.25 358.538ZM350.606 357.872H353.36C354.128 357.872 354.722 357.692 355.142 357.332C355.562 356.972 355.772 356.474 355.772 355.838C355.772 355.202 355.562 354.704 355.142 354.344C354.722 353.984 354.116 353.804 353.324 353.804H350.606V357.872ZM353.504 363.65C354.32 363.65 354.956 363.458 355.412 363.074C355.868 362.69 356.096 362.156 356.096 361.472C356.096 360.776 355.856 360.23 355.376 359.834C354.896 359.426 354.254 359.222 353.45 359.222H350.606V363.65H353.504ZM369.007 359.69C369.007 360.002 368.989 360.332 368.953 360.68H361.069C361.129 361.652 361.459 362.414 362.059 362.966C362.671 363.506 363.409 363.776 364.273 363.776C364.981 363.776 365.569 363.614 366.037 363.29C366.517 362.954 366.853 362.51 367.045 361.958H368.809C368.545 362.906 368.017 363.68 367.225 364.28C366.433 364.868 365.449 365.162 364.273 365.162C363.337 365.162 362.497 364.952 361.753 364.532C361.021 364.112 360.445 363.518 360.025 362.75C359.605 361.97 359.395 361.07 359.395 360.05C359.395 359.03 359.599 358.136 360.007 357.368C360.415 356.6 360.985 356.012 361.717 355.604C362.461 355.184 363.313 354.974 364.273 354.974C365.209 354.974 366.037 355.178 366.757 355.586C367.477 355.994 368.029 356.558 368.413 357.278C368.809 357.986 369.007 358.79 369.007 359.69ZM367.315 359.348C367.315 358.724 367.177 358.19 366.901 357.746C366.625 357.29 366.247 356.948 365.767 356.72C365.299 356.48 364.777 356.36 364.201 356.36C363.373 356.36 362.665 356.624 362.077 357.152C361.501 357.68 361.171 358.412 361.087 359.348H367.315ZM372.807 356.738C373.095 356.174 373.503 355.736 374.031 355.424C374.571 355.112 375.225 354.956 375.993 354.956V356.648H375.561C373.725 356.648 372.807 357.644 372.807 359.636V365H371.169V355.136H372.807V356.738ZM383.392 365L379.522 360.644V365H377.884V351.68H379.522V359.51L383.32 355.136H385.606L380.962 360.05L385.624 365H383.392ZM391.45 365.162C390.526 365.162 389.686 364.952 388.93 364.532C388.186 364.112 387.598 363.518 387.166 362.75C386.746 361.97 386.536 361.07 386.536 360.05C386.536 359.042 386.752 358.154 387.184 357.386C387.628 356.606 388.228 356.012 388.984 355.604C389.74 355.184 390.586 354.974 391.522 354.974C392.458 354.974 393.304 355.184 394.06 355.604C394.816 356.012 395.41 356.6 395.842 357.368C396.286 358.136 396.508 359.03 396.508 360.05C396.508 361.07 396.28 361.97 395.824 362.75C395.38 363.518 394.774 364.112 394.006 364.532C393.238 364.952 392.386 365.162 391.45 365.162ZM391.45 363.722C392.038 363.722 392.59 363.584 393.106 363.308C393.622 363.032 394.036 362.618 394.348 362.066C394.672 361.514 394.834 360.842 394.834 360.05C394.834 359.258 394.678 358.586 394.366 358.034C394.054 357.482 393.646 357.074 393.142 356.81C392.638 356.534 392.092 356.396 391.504 356.396C390.904 356.396 390.352 356.534 389.848 356.81C389.356 357.074 388.96 357.482 388.66 358.034C388.36 358.586 388.21 359.258 388.21 360.05C388.21 360.854 388.354 361.532 388.642 362.084C388.942 362.636 389.338 363.05 389.83 363.326C390.322 363.59 390.862 363.722 391.45 363.722ZM403.467 354.956C404.667 354.956 405.639 355.322 406.383 356.054C407.127 356.774 407.499 357.818 407.499 359.186V365H405.879V359.42C405.879 358.436 405.633 357.686 405.141 357.17C404.649 356.642 403.977 356.378 403.125 356.378C402.261 356.378 401.571 356.648 401.055 357.188C400.551 357.728 400.299 358.514 400.299 359.546V365H398.661V355.136H400.299V356.54C400.623 356.036 401.061 355.646 401.613 355.37C402.177 355.094 402.795 354.956 403.467 354.956ZM412.173 356.486V362.3C412.173 362.78 412.275 363.122 412.479 363.326C412.683 363.518 413.037 363.614 413.541 363.614H414.747V365H413.271C412.359 365 411.675 364.79 411.219 364.37C410.763 363.95 410.535 363.26 410.535 362.3V356.486H409.257V355.136H410.535V352.652H412.173V355.136H414.747V356.486H412.173ZM418.37 356.738C418.658 356.174 419.066 355.736 419.594 355.424C420.134 355.112 420.788 354.956 421.556 354.956V356.648H421.124C419.288 356.648 418.37 357.644 418.37 359.636V365H416.732V355.136H418.37V356.738ZM424.293 353.534C423.981 353.534 423.717 353.426 423.501 353.21C423.285 352.994 423.177 352.73 423.177 352.418C423.177 352.106 423.285 351.842 423.501 351.626C423.717 351.41 423.981 351.302 424.293 351.302C424.593 351.302 424.845 351.41 425.049 351.626C425.265 351.842 425.373 352.106 425.373 352.418C425.373 352.73 425.265 352.994 425.049 353.21C424.845 353.426 424.593 353.534 424.293 353.534ZM425.085 355.136V365H423.447V355.136H425.085ZM429.514 356.972C429.85 356.384 430.342 355.904 430.99 355.532C431.638 355.16 432.376 354.974 433.204 354.974C434.092 354.974 434.89 355.184 435.598 355.604C436.306 356.024 436.864 356.618 437.272 357.386C437.68 358.142 437.884 359.024 437.884 360.032C437.884 361.028 437.68 361.916 437.272 362.696C436.864 363.476 436.3 364.082 435.58 364.514C434.872 364.946 434.08 365.162 433.204 365.162C432.352 365.162 431.602 364.976 430.954 364.604C430.318 364.232 429.838 363.758 429.514 363.182V365H427.876V351.68H429.514V356.972ZM436.21 360.032C436.21 359.288 436.06 358.64 435.76 358.088C435.46 357.536 435.052 357.116 434.536 356.828C434.032 356.54 433.474 356.396 432.862 356.396C432.262 356.396 431.704 356.546 431.188 356.846C430.684 357.134 430.276 357.56 429.964 358.124C429.664 358.676 429.514 359.318 429.514 360.05C429.514 360.794 429.664 361.448 429.964 362.012C430.276 362.564 430.684 362.99 431.188 363.29C431.704 363.578 432.262 363.722 432.862 363.722C433.474 363.722 434.032 363.578 434.536 363.29C435.052 362.99 435.46 362.564 435.76 362.012C436.06 361.448 436.21 360.788 436.21 360.032ZM448.788 355.136V365H447.15V363.542C446.838 364.046 446.4 364.442 445.836 364.73C445.284 365.006 444.672 365.144 444 365.144C443.232 365.144 442.542 364.988 441.93 364.676C441.318 364.352 440.832 363.872 440.472 363.236C440.124 362.6 439.95 361.826 439.95 360.914V355.136H441.57V360.698C441.57 361.67 441.816 362.42 442.308 362.948C442.8 363.464 443.472 363.722 444.324 363.722C445.2 363.722 445.89 363.452 446.394 362.912C446.898 362.372 447.15 361.586 447.15 360.554V355.136H448.788ZM455.046 365.162C454.29 365.162 453.612 365.036 453.012 364.784C452.412 364.52 451.938 364.16 451.59 363.704C451.242 363.236 451.05 362.702 451.014 362.102H452.706C452.754 362.594 452.982 362.996 453.39 363.308C453.81 363.62 454.356 363.776 455.028 363.776C455.652 363.776 456.144 363.638 456.504 363.362C456.864 363.086 457.044 362.738 457.044 362.318C457.044 361.886 456.852 361.568 456.468 361.364C456.084 361.148 455.49 360.938 454.686 360.734C453.954 360.542 453.354 360.35 452.886 360.158C452.43 359.954 452.034 359.66 451.698 359.276C451.374 358.88 451.212 358.364 451.212 357.728C451.212 357.224 451.362 356.762 451.662 356.342C451.962 355.922 452.388 355.592 452.94 355.352C453.492 355.1 454.122 354.974 454.83 354.974C455.922 354.974 456.804 355.25 457.476 355.802C458.148 356.354 458.508 357.11 458.556 358.07H456.918C456.882 357.554 456.672 357.14 456.288 356.828C455.916 356.516 455.412 356.36 454.776 356.36C454.188 356.36 453.72 356.486 453.372 356.738C453.024 356.99 452.85 357.32 452.85 357.728C452.85 358.052 452.952 358.322 453.156 358.538C453.372 358.742 453.636 358.91 453.948 359.042C454.272 359.162 454.716 359.3 455.28 359.456C455.988 359.648 456.564 359.84 457.008 360.032C457.452 360.212 457.83 360.488 458.142 360.86C458.466 361.232 458.634 361.718 458.646 362.318C458.646 362.858 458.496 363.344 458.196 363.776C457.896 364.208 457.47 364.55 456.918 364.802C456.378 365.042 455.754 365.162 455.046 365.162ZM461.804 353.534C461.492 353.534 461.228 353.426 461.012 353.21C460.796 352.994 460.688 352.73 460.688 352.418C460.688 352.106 460.796 351.842 461.012 351.626C461.228 351.41 461.492 351.302 461.804 351.302C462.104 351.302 462.356 351.41 462.56 351.626C462.776 351.842 462.884 352.106 462.884 352.418C462.884 352.73 462.776 352.994 462.56 353.21C462.356 353.426 462.104 353.534 461.804 353.534ZM462.596 355.136V365H460.958V355.136H462.596Z" fill="white"/>
<defs>
<clipPath id="clip0_250_4">
<rect width="767" height="810" fill="white"/>
</clipPath>
<clipPath id="clip1_250_4">
<rect width="150.296" height="150.296" fill="white" transform="matrix(0.707107 -0.707107 -0.707107 -0.707107 347.276 641.551)"/>
</clipPath>
</defs>
</svg>
