<svg width="73" height="107" viewBox="0 0 73 107" fill="none" xmlns="http://www.w3.org/2000/svg">
<path d="M0.616 88.272C3.88 85.68 5.368 84.48 5.08 84.672C14.488 76.896 21.88 70.512 27.256 65.52C32.728 60.528 37.336 55.296 41.08 49.824C44.824 44.352 46.696 39.024 46.696 33.84C46.696 29.904 45.784 26.832 43.96 24.624C42.136 22.416 39.4 21.312 35.752 21.312C32.104 21.312 29.224 22.704 27.112 25.488C25.096 28.176 24.088 32.016 24.088 37.008H0.328C0.52 28.848 2.248 22.032 5.512 16.56C8.872 11.088 13.24 7.05599 18.616 4.46399C24.088 1.87199 30.136 0.575993 36.76 0.575993C48.184 0.575993 56.776 3.50399 62.536 9.35999C68.392 15.216 71.32 22.848 71.32 32.256C71.32 42.528 67.816 52.08 60.808 60.912C53.8 69.648 44.872 78.192 34.024 86.544H72.904V106.56H0.616V88.272Z" fill="#001C34" fill-opacity="0.09"/>
</svg>
