<svg width="74" height="109" viewBox="0 0 74 109" fill="none" xmlns="http://www.w3.org/2000/svg">
<path d="M1.344 32.544C1.728 22.272 5.088 14.352 11.424 8.784C17.76 3.216 26.352 0.431994 37.2 0.431994C44.4 0.431994 50.544 1.68 55.632 4.176C60.816 6.67199 64.704 10.08 67.296 14.4C69.984 18.72 71.328 23.568 71.328 28.944C71.328 35.28 69.744 40.464 66.576 44.496C63.408 48.432 59.712 51.12 55.488 52.56V53.136C60.96 54.96 65.28 57.984 68.448 62.208C71.616 66.432 73.2 71.856 73.2 78.48C73.2 84.432 71.808 89.712 69.024 94.32C66.336 98.832 62.352 102.384 57.072 104.976C51.888 107.568 45.696 108.864 38.496 108.864C26.976 108.864 17.76 106.032 10.848 100.368C4.032 94.704 0.432001 86.16 0.0480005 74.736H23.952C24.048 78.96 25.248 82.32 27.552 84.816C29.856 87.216 33.216 88.416 37.632 88.416C41.376 88.416 44.256 87.36 46.272 85.248C48.384 83.04 49.44 80.16 49.44 76.608C49.44 72 47.952 68.688 44.976 66.672C42.096 64.56 37.44 63.504 31.008 63.504H26.4V43.488H31.008C35.904 43.488 39.84 42.672 42.816 41.04C45.888 39.312 47.424 36.288 47.424 31.968C47.424 28.512 46.464 25.824 44.544 23.904C42.624 21.984 39.984 21.024 36.624 21.024C32.976 21.024 30.24 22.128 28.416 24.336C26.688 26.544 25.68 29.28 25.392 32.544H1.344Z" fill="#001C34" fill-opacity="0.09"/>
</svg>
