<svg width="125" height="125" viewBox="0 0 125 125" fill="none" xmlns="http://www.w3.org/2000/svg">
<g clip-path="url(#clip0_34_87)">
<path d="M37.0949 27.0821C37.032 28.3443 37.2095 29.606 37.0264 30.8685C35.1991 41.9306 38.6032 51.7192 44.1725 60.7819C46.0888 63.9028 49.0274 66.7209 52.1481 68.7575C60.9695 74.6878 70.7576 78.3323 81.3928 79.3305C84.4572 79.6243 87.6431 79.3168 90.8301 78.5285C89.9297 78.1099 88.9691 77.6313 88.0082 77.2726C85.246 76.1969 82.4236 75.1814 79.722 73.9254C78.5813 73.387 77.5617 72.3674 76.6625 71.3477C76.3027 70.9879 76.3052 69.9063 76.6065 69.4848C76.908 69.0636 77.9304 68.7608 78.2903 69.0003C84.9537 72.5317 92.4028 73.9577 99.6101 75.9851C102.133 76.7006 102.911 77.9611 102.005 80.307C99.708 86.0814 96.2113 91.1375 91.6945 95.4144C91.574 95.5349 91.1535 95.4757 90.4323 95.4773C88.2192 90.614 93.1534 87.8386 94.4863 83.0279C93.3436 83.3308 92.4416 83.6334 91.5999 83.7554C74.7082 85.5354 59.7548 80.4599 46.3143 70.6333C44.2742 69.1955 42.4757 67.156 40.9778 65.0559C35.5259 57.3152 32.4198 48.6678 32.2003 39.1727C32.1469 36.1078 32.9952 32.9808 33.723 29.9742C33.966 28.7717 34.9899 27.7478 35.6533 26.7247C36.1338 26.8438 36.6143 26.9629 37.0949 27.0821Z" fill="#3C5190"/>
</g>
<defs>
<clipPath id="clip0_34_87">
<rect width="88.215" height="88.215" fill="white" transform="translate(62.3774) rotate(45)"/>
</clipPath>
</defs>
</svg>
