<svg width="82" height="110" viewBox="0 0 82 110" fill="none" xmlns="http://www.w3.org/2000/svg">
<g clip-path="url(#clip0_14_315)">
<path d="M44.4881 10.465C45.2736 11.5084 45.8531 12.6907 46.7416 13.6647C54.7174 22.0696 57.4793 32.4174 57.9681 43.3993C58.1377 47.1802 57.2573 51.2947 55.7679 54.8461C51.6585 65.0333 45.397 73.8254 36.8768 80.8444C34.4254 82.8721 31.5215 84.4559 28.3379 85.6289C28.8656 84.7488 29.4099 83.7825 30.0241 82.9186C31.7637 80.3971 33.5898 77.8922 35.173 75.2516C35.8368 74.1297 36.1181 72.6664 36.2963 71.2727C36.3956 70.7563 35.7664 69.8324 35.2643 69.6464C34.7621 69.4609 33.712 69.7945 33.5429 70.208C29.8892 77.0919 24.3428 82.63 19.3519 88.5425C17.6086 90.6169 17.6731 92.1467 19.8086 93.6281C25.1207 97.237 31.0432 99.5358 37.3868 100.577C37.5597 100.61 37.8852 100.315 38.5031 99.8987C37.5774 94.455 31.7472 94.9408 27.8181 91.5977C28.9713 91.1944 29.9184 90.9305 30.7092 90.547C46.1927 82.278 56.0437 69.2675 61.8463 53.0693C62.7583 50.6564 63.1147 47.8691 63.1788 45.204C63.356 35.4211 61.0007 26.2224 55.6843 17.9717C53.9533 15.3186 51.4149 13.135 49.0494 10.9847C48.1444 10.0968 46.6749 9.81432 45.5143 9.32351C45.1722 9.70399 44.8302 10.0845 44.4881 10.465Z" fill="#3C5190"/>
</g>
<defs>
<clipPath id="clip0_14_315">
<rect width="99.0289" height="62.5384" fill="white" transform="matrix(-0.188752 0.982025 0.982025 0.188752 19.6392 0.473633)"/>
</clipPath>
</defs>
</svg>
