<svg width="109" height="109" viewBox="0 0 109 109" fill="none" xmlns="http://www.w3.org/2000/svg">
<g clip-path="url(#clip0_31_50)">
<path d="M49.7729 10.812C49.0873 11.8737 48.6102 13.0551 47.8204 14.0569C40.7069 22.7234 38.7606 32.9026 39.0524 43.5357C39.1515 47.1966 40.2873 51.1065 41.9716 54.4306C46.646 63.977 53.3005 72.0274 62.0118 78.2094C64.5187 79.9961 67.4316 81.3227 70.5857 82.2336C70.0152 81.4208 69.4227 80.526 68.7698 79.735C66.9156 77.4223 64.979 75.1316 63.2674 72.6931C62.5487 71.6565 62.1755 70.2637 61.9066 68.931C61.7749 68.4395 62.3179 67.504 62.7896 67.2896C63.2614 67.0756 64.2981 67.3246 64.4901 67.712C68.495 74.1019 74.2332 79.0615 79.4612 84.4209C81.2879 86.3018 81.332 87.7827 79.3739 89.361C74.4978 93.2135 68.9415 95.8439 62.8914 97.2894C62.7268 97.3335 62.3922 97.072 61.7668 96.7127C62.2819 91.3944 67.9427 91.458 71.5024 87.9582C70.3613 87.6492 69.4289 87.4602 68.639 87.1451C53.1203 80.2407 42.708 68.3686 35.9815 53.1383C34.9336 50.8729 34.3958 48.2075 34.1487 45.6398C33.2976 36.2102 34.9313 27.1683 39.4887 18.8355C40.975 16.1545 43.2731 13.8706 45.4066 11.6308C46.2184 10.7109 47.6171 10.3361 48.7031 9.78169C49.0597 10.1251 49.4163 10.4686 49.7729 10.812Z" fill="white"/>
</g>
<defs>
<clipPath id="clip0_31_50">
<rect width="88.215" height="88.215" fill="white" transform="translate(85.209) rotate(75)"/>
</clipPath>
</defs>
</svg>
