<svg width="89" height="89" viewBox="0 0 89 89" fill="none" xmlns="http://www.w3.org/2000/svg">
<g clip-path="url(#clip0_31_52)">
<path d="M37.0271 86.9428C37.9641 86.0947 38.7307 85.077 39.7529 84.3138C48.8671 77.7837 53.3816 68.4551 55.8519 58.1088C56.7036 54.547 56.6185 50.4763 55.8519 46.8296C53.8075 36.3986 49.4634 26.9002 42.649 18.6742C40.6899 16.2996 38.2196 14.2642 35.4087 12.5681C35.7494 13.5008 36.0902 14.5184 36.516 15.4515C37.7086 18.1653 38.9863 20.8791 40.0084 23.6776C40.4343 24.8649 40.4343 26.3068 40.3491 27.6637C40.3491 28.1725 39.5825 28.9356 39.0714 29.0206C38.5603 29.1052 37.6234 28.5963 37.5382 28.1725C35.3235 20.9637 31.0646 14.688 27.4018 8.15813C26.1241 5.86855 26.4648 4.42664 28.7647 3.40897C34.4717 0.949768 40.5195 -0.152916 46.7376 0.016701C46.908 0.016701 47.1635 0.355919 47.6746 0.864762C45.8006 5.86855 40.3491 4.34204 36.005 6.80123C37.0271 7.39508 37.8789 7.81891 38.5604 8.32775C51.7632 19.0134 58.748 33.1759 61.3034 49.6282C61.7293 52.0876 61.5589 54.8014 61.133 57.3455C59.5146 66.6741 55.5963 74.9851 49.0375 81.8544C46.908 84.0594 44.097 85.6707 41.4565 87.282C40.4343 87.9604 38.9863 87.9604 37.7938 88.2148C37.5382 87.7908 37.2827 87.3668 37.0271 86.9428Z" fill="white"/>
</g>
<defs>
<clipPath id="clip0_31_52">
<rect width="88.215" height="88.215" fill="white" transform="translate(0 88.2148) rotate(-90)"/>
</clipPath>
</defs>
</svg>
