<svg width="62" height="18" viewBox="0 0 62 18" fill="none" xmlns="http://www.w3.org/2000/svg">
<g clip-path="url(#clip0_255_2402)">
<path fill-rule="evenodd" clip-rule="evenodd" d="M0.00390625 17.0333H17.0626V-0.00585938H0.00390625V17.0333Z" fill="white"/>
<path fill-rule="evenodd" clip-rule="evenodd" d="M6.83812 11.4934L8.64677 10.0279C8.34678 9.64884 8.06068 9.2581 7.78781 8.86316C5.68789 5.82568 4.45079 2.72927 5.34721 -0.00585938H0.00390625V2.94778L6.83812 11.4934Z" fill="#E94D11"/>
<path fill-rule="evenodd" clip-rule="evenodd" d="M9.69745 7.07621C9.80983 6.11314 10.0992 4.29253 11.8655 2.94325C13.3952 1.77461 15.3052 1.55092 17.0002 2.27153V-0.00585938H7.56879C6.94588 2.76844 8.58339 5.81467 9.69745 7.07621Z" fill="#E94D11"/>
<path fill-rule="evenodd" clip-rule="evenodd" d="M11.9834 4.29865L11.977 4.30383C10.2029 5.74796 10.6398 8.01531 12.2886 10.0506C13.5634 11.6242 15.2662 12.7258 17.0009 11.8906V5.18695C15.4428 3.58808 13.5725 3.00441 11.9834 4.29865Z" fill="#E94D11"/>
<path fill-rule="evenodd" clip-rule="evenodd" d="M0.00390625 6.44385V17.0331H0.00519792L5.14797 12.8639L0.00390625 6.44385Z" fill="#E94D11"/>
<path fill-rule="evenodd" clip-rule="evenodd" d="M9.35542 10.8701C8.85393 11.2867 8.22812 11.7992 7.5332 12.3622L8.20035 13.1961C9.1691 14.4078 10.5799 16.5022 12.3321 15.9357L12.3966 16.0154L11.1528 17.0328H17.0005V13.0009C13.9915 14.6415 11.4069 13.1485 9.35542 10.8701Z" fill="#E94D11"/>
<path fill-rule="evenodd" clip-rule="evenodd" d="M6.53217 14.593L5.8408 13.73C4.42481 14.8708 2.92938 16.0682 1.7207 17.0329H8.26526C7.83966 16.1271 7.06692 15.2609 6.53217 14.593Z" fill="#E94D11"/>
<path fill-rule="evenodd" clip-rule="evenodd" d="M31.1612 7.11377C32.7257 6.83893 33.7429 5.48124 33.7429 3.74738C33.7429 1.44506 31.7544 -0.00585938 28.346 -0.00585938H21.6035V0.0715103C22.9804 0.829668 22.9494 2.0514 22.9494 3.21583V13.7818C22.9494 14.9715 22.9804 16.2062 21.6035 16.9504V17.0278H24.8501C28.0231 17.0278 30.4521 17.0818 32.2707 16.2259C34.1992 15.3175 35.3707 13.6886 35.3707 11.6957C35.3707 9.1584 33.4846 7.6055 31.1612 7.11377ZM25.5941 1.56387L27.7263 1.60045C29.3086 1.60045 30.9277 2.37609 30.9277 4.16304C30.9277 6.28536 29.4972 6.85479 27.4557 6.85479L25.5941 6.85867V1.56387ZM27.6505 15.2751L25.5941 15.2784V8.46725L27.8035 8.45883C30.3785 8.45883 32.5032 9.41802 32.5032 11.9285C32.5032 14.3891 30.2729 15.2751 27.6505 15.2751Z" fill="#006383"/>
<path fill-rule="evenodd" clip-rule="evenodd" d="M40.5368 13.785C40.5368 15.2356 40.5106 16.2715 41.8791 17.0734V17.1511H37.3086V17.0734C38.6784 16.2715 38.6545 15.2356 38.6545 13.785V3.43434C38.6545 1.98471 38.6784 0.84812 37.3109 0.0715103V-0.00585938H41.1051V0.0203622C41.2081 0.331136 41.3731 0.501414 41.4929 0.667159C41.6115 0.832582 41.8536 1.18479 41.8536 1.18479L50.5549 12.9443V3.33398C50.5549 1.88436 50.5814 0.84812 49.2116 0.0715103V-0.00585938H53.7573V0.0715103C52.4143 0.84812 52.4143 1.88436 52.4143 3.33398V17.9954C51.5873 17.6655 49.2707 15.7358 47.6232 13.5141C44.6691 9.52938 40.5368 3.99567 40.5368 3.99567V13.785Z" fill="#006383"/>
<path fill-rule="evenodd" clip-rule="evenodd" d="M57.9938 3.08051C57.9938 1.89018 57.9763 0.830639 56.6562 0.0715103V-0.00585938H62.0031V0.0715103C60.6798 0.808302 60.6678 1.91576 60.6678 3.08051V13.9712C60.6678 15.134 60.6375 16.3085 62.0031 17.0705V17.1475H56.6562V17.0705C58.0303 16.3007 57.9938 15.1431 57.9938 13.9789V3.08051Z" fill="#006383"/>
</g>
<defs>
<clipPath id="clip0_255_2402">
<rect width="62" height="18" fill="white"/>
</clipPath>
</defs>
</svg>
