<svg width="300" height="91" viewBox="0 0 300 91" fill="none" xmlns="http://www.w3.org/2000/svg">
<path d="M298.701 5.94255C299.019 7.12996 298.494 8.63913 296.898 10.4936C295.319 12.3292 292.783 14.3914 289.358 16.6375C282.514 21.1259 272.224 26.2814 259.241 31.777C233.282 42.7652 196.637 55.0805 155.459 66.114C114.281 77.1476 76.3872 84.8051 48.4123 88.2683C34.4211 90.0004 22.9319 90.6806 14.7605 90.2157C10.6712 89.983 7.44405 89.465 5.15834 88.6651C2.84905 87.857 1.63972 86.8126 1.32155 85.6252C1.00338 84.4377 1.52848 82.9286 3.12431 81.0741C4.70385 79.2385 7.23967 77.1763 10.6647 74.9302C17.5089 70.4418 27.799 65.2863 40.7817 59.7907C66.7403 48.8025 103.386 36.4872 144.564 25.4537C185.742 14.4201 223.635 6.76258 251.61 3.29938C265.602 1.56731 277.091 0.887106 285.262 1.35201C289.351 1.58466 292.579 2.10267 294.864 2.90256C297.174 3.71069 298.383 4.75513 298.701 5.94255Z" stroke="#DD4C44"/>
</svg>
