<svg width="263" height="93" viewBox="0 0 263 93" fill="none" xmlns="http://www.w3.org/2000/svg">
<path d="M261.334 81.4274C260.827 83.3211 259.479 84.9843 257.293 86.4044C255.104 87.8266 252.103 88.985 248.359 89.8674C240.871 91.632 230.515 92.2693 218.013 91.7911C193.018 90.8351 159.558 85.4252 123.565 75.7807C87.5709 66.1362 55.8887 54.0913 33.7643 42.4218C22.6985 36.5851 14.0487 30.8552 8.4463 25.583C5.6448 22.9467 3.62514 20.443 2.44057 18.1169C1.25781 15.7943 0.922099 13.6799 1.4295 11.7862C1.93691 9.89259 3.28484 8.22934 5.47044 6.80929C7.65937 5.38706 10.6603 4.22869 14.4046 3.34627C21.8925 1.58163 32.2484 0.944348 44.7501 1.42254C69.745 2.37861 103.205 7.78848 139.199 17.433C175.193 27.0774 206.875 39.1224 228.999 50.7919C240.065 56.6286 248.715 62.3585 254.317 67.6306C257.119 70.267 259.138 72.7706 260.323 75.0968C261.506 77.4194 261.841 79.5338 261.334 81.4274Z" stroke="#DD4C44"/>
</svg>
