<svg width="288" height="41" viewBox="0 0 288 41" fill="none" xmlns="http://www.w3.org/2000/svg">
<rect x="20.1223" y="16.3494" width="267.878" height="7.54585" fill="#3C5190"/>
<path d="M18.3516 9.5516C18.7156 7.58818 21.5289 7.58818 21.8929 9.5516C22.1533 10.9561 23.8669 11.5129 24.9031 10.5297C26.3516 9.15516 28.6276 10.8088 27.768 12.6112C27.1531 13.9005 28.2122 15.3582 29.6284 15.1718C31.6082 14.9112 32.4776 17.5868 30.7227 18.5397C29.4674 19.2214 29.4674 21.0232 30.7227 21.7048C32.4776 22.6577 31.6082 25.3333 29.6284 25.0728C28.2122 24.8864 27.1531 26.3441 27.768 27.6334C28.6276 29.4357 26.3516 31.0894 24.9031 29.7149C23.8669 28.7316 22.1533 29.2884 21.8929 30.6929C21.5289 32.6564 18.7156 32.6564 18.3516 30.6929C18.0913 29.2884 16.3776 28.7316 15.3415 29.7149C13.8929 31.0894 11.6169 29.4357 12.4765 27.6334C13.0914 26.3441 12.0323 24.8864 10.6161 25.0728C8.63632 25.3333 7.76696 22.6577 9.52181 21.7048C10.7771 21.0232 10.7771 19.2214 9.52181 18.5397C7.76696 17.5868 8.63632 14.9112 10.6161 15.1718C12.0323 15.3582 13.0914 13.9005 12.4765 12.6112C11.6169 10.8088 13.8929 9.15516 15.3415 10.5297C16.3776 11.5129 18.0913 10.9561 18.3516 9.5516Z" fill="#DD4C44"/>
</svg>
