<svg width="1440" height="492" viewBox="0 0 1440 492" fill="none" xmlns="http://www.w3.org/2000/svg">
<rect x="-13.0005" y="57.0005" width="1440" height="417" fill="#3C5190"/>
<path d="M418.685 125.728V151H412.529V135.844L406.877 151H401.909L396.221 135.808V151H390.065V125.728H397.337L404.429 143.224L411.449 125.728H418.685ZM442.948 130.912V151H436.792V148.264C436.168 149.152 435.316 149.872 434.236 150.424C433.18 150.952 432.004 151.216 430.708 151.216C429.172 151.216 427.816 150.88 426.64 150.208C425.464 149.512 424.552 148.516 423.904 147.22C423.256 145.924 422.932 144.4 422.932 142.648V130.912H429.052V141.82C429.052 143.164 429.4 144.208 430.096 144.952C430.792 145.696 431.728 146.068 432.904 146.068C434.104 146.068 435.052 145.696 435.748 144.952C436.444 144.208 436.792 143.164 436.792 141.82V130.912H442.948ZM446.146 140.92C446.146 138.856 446.53 137.044 447.298 135.484C448.09 133.924 449.158 132.724 450.502 131.884C451.846 131.044 453.346 130.624 455.002 130.624C456.322 130.624 457.522 130.9 458.602 131.452C459.706 132.004 460.57 132.748 461.194 133.684V124.36H467.35V151H461.194V148.12C460.618 149.08 459.79 149.848 458.71 150.424C457.654 151 456.418 151.288 455.002 151.288C453.346 151.288 451.846 150.868 450.502 150.028C449.158 149.164 448.09 147.952 447.298 146.392C446.53 144.808 446.146 142.984 446.146 140.92ZM461.194 140.956C461.194 139.42 460.762 138.208 459.898 137.32C459.058 136.432 458.026 135.988 456.802 135.988C455.578 135.988 454.534 136.432 453.67 137.32C452.83 138.184 452.41 139.384 452.41 140.92C452.41 142.456 452.83 143.68 453.67 144.592C454.534 145.48 455.578 145.924 456.802 145.924C458.026 145.924 459.058 145.48 459.898 144.592C460.762 143.704 461.194 142.492 461.194 140.956ZM470.58 140.92C470.58 138.856 470.964 137.044 471.732 135.484C472.524 133.924 473.592 132.724 474.936 131.884C476.28 131.044 477.78 130.624 479.436 130.624C480.852 130.624 482.088 130.912 483.144 131.488C484.224 132.064 485.052 132.82 485.628 133.756V130.912H491.784V151H485.628V148.156C485.028 149.092 484.188 149.848 483.108 150.424C482.052 151 480.816 151.288 479.4 151.288C477.768 151.288 476.28 150.868 474.936 150.028C473.592 149.164 472.524 147.952 471.732 146.392C470.964 144.808 470.58 142.984 470.58 140.92ZM485.628 140.956C485.628 139.42 485.196 138.208 484.332 137.32C483.492 136.432 482.46 135.988 481.236 135.988C480.012 135.988 478.968 136.432 478.104 137.32C477.264 138.184 476.844 139.384 476.844 140.92C476.844 142.456 477.264 143.68 478.104 144.592C478.968 145.48 480.012 145.924 481.236 145.924C482.46 145.924 483.492 145.48 484.332 144.592C485.196 143.704 485.628 142.492 485.628 140.956ZM519.166 138.04C520.63 138.352 521.806 139.084 522.694 140.236C523.582 141.364 524.026 142.66 524.026 144.124C524.026 146.236 523.282 147.916 521.794 149.164C520.33 150.388 518.278 151 515.638 151H503.866V125.728H515.242C517.81 125.728 519.814 126.316 521.254 127.492C522.718 128.668 523.45 130.264 523.45 132.28C523.45 133.768 523.054 135.004 522.262 135.988C521.494 136.972 520.462 137.656 519.166 138.04ZM510.022 135.952H514.054C515.062 135.952 515.83 135.736 516.358 135.304C516.91 134.848 517.186 134.188 517.186 133.324C517.186 132.46 516.91 131.8 516.358 131.344C515.83 130.888 515.062 130.66 514.054 130.66H510.022V135.952ZM514.558 146.032C515.59 146.032 516.382 145.804 516.934 145.348C517.51 144.868 517.798 144.184 517.798 143.296C517.798 142.408 517.498 141.712 516.898 141.208C516.322 140.704 515.518 140.452 514.486 140.452H510.022V146.032H514.558ZM546.533 140.632C546.533 141.208 546.497 141.808 546.425 142.432H532.493C532.589 143.68 532.985 144.64 533.681 145.312C534.401 145.96 535.277 146.284 536.309 146.284C537.845 146.284 538.913 145.636 539.513 144.34H546.065C545.729 145.66 545.117 146.848 544.229 147.904C543.365 148.96 542.273 149.788 540.953 150.388C539.633 150.988 538.157 151.288 536.525 151.288C534.557 151.288 532.805 150.868 531.269 150.028C529.733 149.188 528.533 147.988 527.669 146.428C526.805 144.868 526.373 143.044 526.373 140.956C526.373 138.868 526.793 137.044 527.633 135.484C528.497 133.924 529.697 132.724 531.233 131.884C532.769 131.044 534.533 130.624 536.525 130.624C538.469 130.624 540.197 131.032 541.709 131.848C543.221 132.664 544.397 133.828 545.237 135.34C546.101 136.852 546.533 138.616 546.533 140.632ZM540.233 139.012C540.233 137.956 539.873 137.116 539.153 136.492C538.433 135.868 537.533 135.556 536.453 135.556C535.421 135.556 534.545 135.856 533.825 136.456C533.129 137.056 532.697 137.908 532.529 139.012H540.233ZM555.936 134.26C556.656 133.156 557.556 132.292 558.636 131.668C559.716 131.02 560.916 130.696 562.236 130.696V137.212H560.544C559.008 137.212 557.856 137.548 557.088 138.22C556.32 138.868 555.936 140.02 555.936 141.676V151H549.78V130.912H555.936V134.26ZM577.455 151L571.335 142.576V151H565.179V124.36H571.335V139.084L577.419 130.912H585.015L576.663 140.992L585.087 151H577.455ZM596.577 151.288C594.609 151.288 592.833 150.868 591.249 150.028C589.689 149.188 588.453 147.988 587.541 146.428C586.653 144.868 586.209 143.044 586.209 140.956C586.209 138.892 586.665 137.08 587.577 135.52C588.489 133.936 589.737 132.724 591.321 131.884C592.905 131.044 594.681 130.624 596.649 130.624C598.617 130.624 600.393 131.044 601.977 131.884C603.561 132.724 604.809 133.936 605.721 135.52C606.633 137.08 607.089 138.892 607.089 140.956C607.089 143.02 606.621 144.844 605.685 146.428C604.773 147.988 603.513 149.188 601.905 150.028C600.321 150.868 598.545 151.288 596.577 151.288ZM596.577 145.96C597.753 145.96 598.749 145.528 599.565 144.664C600.405 143.8 600.825 142.564 600.825 140.956C600.825 139.348 600.417 138.112 599.601 137.248C598.809 136.384 597.825 135.952 596.649 135.952C595.449 135.952 594.453 136.384 593.661 137.248C592.869 138.088 592.473 139.324 592.473 140.956C592.473 142.564 592.857 143.8 593.625 144.664C594.417 145.528 595.401 145.96 596.577 145.96ZM635.987 130.696C638.483 130.696 640.463 131.452 641.927 132.964C643.415 134.476 644.159 136.576 644.159 139.264V151H638.039V140.092C638.039 138.796 637.691 137.8 636.995 137.104C636.323 136.384 635.387 136.024 634.187 136.024C632.987 136.024 632.039 136.384 631.343 137.104C630.671 137.8 630.335 138.796 630.335 140.092V151H624.215V140.092C624.215 138.796 623.867 137.8 623.171 137.104C622.499 136.384 621.563 136.024 620.363 136.024C619.163 136.024 618.215 136.384 617.519 137.104C616.847 137.8 616.511 138.796 616.511 140.092V151H610.355V130.912H616.511V133.432C617.135 132.592 617.951 131.932 618.959 131.452C619.967 130.948 621.107 130.696 622.379 130.696C623.891 130.696 625.235 131.02 626.411 131.668C627.611 132.316 628.547 133.24 629.219 134.44C629.915 133.336 630.863 132.436 632.063 131.74C633.263 131.044 634.571 130.696 635.987 130.696ZM654.62 133.756C655.22 132.82 656.048 132.064 657.104 131.488C658.16 130.912 659.396 130.624 660.812 130.624C662.468 130.624 663.968 131.044 665.312 131.884C666.656 132.724 667.712 133.924 668.48 135.484C669.272 137.044 669.668 138.856 669.668 140.92C669.668 142.984 669.272 144.808 668.48 146.392C667.712 147.952 666.656 149.164 665.312 150.028C663.968 150.868 662.468 151.288 660.812 151.288C659.42 151.288 658.184 151 657.104 150.424C656.048 149.848 655.22 149.104 654.62 148.192V160.576H648.464V130.912H654.62V133.756ZM663.404 140.92C663.404 139.384 662.972 138.184 662.108 137.32C661.268 136.432 660.224 135.988 658.976 135.988C657.752 135.988 656.708 136.432 655.844 137.32C655.004 138.208 654.584 139.42 654.584 140.956C654.584 142.492 655.004 143.704 655.844 144.592C656.708 145.48 657.752 145.924 658.976 145.924C660.2 145.924 661.244 145.48 662.108 144.592C662.972 143.68 663.404 142.456 663.404 140.92ZM691.834 140.632C691.834 141.208 691.798 141.808 691.726 142.432H677.794C677.89 143.68 678.286 144.64 678.982 145.312C679.702 145.96 680.578 146.284 681.61 146.284C683.146 146.284 684.214 145.636 684.814 144.34H691.366C691.03 145.66 690.418 146.848 689.53 147.904C688.666 148.96 687.574 149.788 686.254 150.388C684.934 150.988 683.458 151.288 681.826 151.288C679.858 151.288 678.106 150.868 676.57 150.028C675.034 149.188 673.834 147.988 672.97 146.428C672.106 144.868 671.674 143.044 671.674 140.956C671.674 138.868 672.094 137.044 672.934 135.484C673.798 133.924 674.998 132.724 676.534 131.884C678.07 131.044 679.834 130.624 681.826 130.624C683.77 130.624 685.498 131.032 687.01 131.848C688.522 132.664 689.698 133.828 690.538 135.34C691.402 136.852 691.834 138.616 691.834 140.632ZM685.534 139.012C685.534 137.956 685.174 137.116 684.454 136.492C683.734 135.868 682.834 135.556 681.754 135.556C680.722 135.556 679.846 135.856 679.126 136.456C678.43 137.056 677.998 137.908 677.83 139.012H685.534ZM706.277 145.78V151H703.145C700.913 151 699.173 150.46 697.925 149.38C696.677 148.276 696.053 146.488 696.053 144.016V136.024H693.605V130.912H696.053V126.016H702.209V130.912H706.241V136.024H702.209V144.088C702.209 144.688 702.353 145.12 702.641 145.384C702.929 145.648 703.409 145.78 704.081 145.78H706.277ZM712.802 128.824C711.722 128.824 710.834 128.512 710.138 127.888C709.466 127.24 709.13 126.448 709.13 125.512C709.13 124.552 709.466 123.76 710.138 123.136C710.834 122.488 711.722 122.164 712.802 122.164C713.858 122.164 714.722 122.488 715.394 123.136C716.09 123.76 716.438 124.552 716.438 125.512C716.438 126.448 716.09 127.24 715.394 127.888C714.722 128.512 713.858 128.824 712.802 128.824ZM715.862 130.912V151H709.706V130.912H715.862ZM728.495 151.288C726.743 151.288 725.183 150.988 723.815 150.388C722.447 149.788 721.367 148.972 720.575 147.94C719.783 146.884 719.339 145.708 719.243 144.412H725.327C725.399 145.108 725.723 145.672 726.299 146.104C726.875 146.536 727.583 146.752 728.423 146.752C729.191 146.752 729.779 146.608 730.187 146.32C730.619 146.008 730.835 145.612 730.835 145.132C730.835 144.556 730.535 144.136 729.935 143.872C729.335 143.584 728.363 143.272 727.019 142.936C725.579 142.6 724.379 142.252 723.419 141.892C722.459 141.508 721.631 140.92 720.935 140.128C720.239 139.312 719.891 138.22 719.891 136.852C719.891 135.7 720.203 134.656 720.827 133.72C721.475 132.76 722.411 132.004 723.635 131.452C724.883 130.9 726.359 130.624 728.063 130.624C730.583 130.624 732.563 131.248 734.003 132.496C735.467 133.744 736.307 135.4 736.523 137.464H730.835C730.739 136.768 730.427 136.216 729.899 135.808C729.395 135.4 728.723 135.196 727.883 135.196C727.163 135.196 726.611 135.34 726.227 135.628C725.843 135.892 725.651 136.264 725.651 136.744C725.651 137.32 725.951 137.752 726.551 138.04C727.175 138.328 728.135 138.616 729.431 138.904C730.919 139.288 732.131 139.672 733.067 140.056C734.003 140.416 734.819 141.016 735.515 141.856C736.235 142.672 736.607 143.776 736.631 145.168C736.631 146.344 736.295 147.4 735.623 148.336C734.975 149.248 734.027 149.968 732.779 150.496C731.555 151.024 730.127 151.288 728.495 151.288ZM743.494 128.824C742.414 128.824 741.526 128.512 740.83 127.888C740.158 127.24 739.822 126.448 739.822 125.512C739.822 124.552 740.158 123.76 740.83 123.136C741.526 122.488 742.414 122.164 743.494 122.164C744.55 122.164 745.414 122.488 746.086 123.136C746.782 123.76 747.13 124.552 747.13 125.512C747.13 126.448 746.782 127.24 746.086 127.888C745.414 128.512 744.55 128.824 743.494 128.824ZM746.554 130.912V151H740.398V130.912H746.554ZM757.639 145.312L753.643 155.644H749.719L751.807 145.312H757.639ZM784.28 138.04C785.744 138.352 786.92 139.084 787.808 140.236C788.696 141.364 789.14 142.66 789.14 144.124C789.14 146.236 788.396 147.916 786.908 149.164C785.444 150.388 783.392 151 780.752 151H768.98V125.728H780.356C782.924 125.728 784.928 126.316 786.368 127.492C787.832 128.668 788.564 130.264 788.564 132.28C788.564 133.768 788.168 135.004 787.376 135.988C786.608 136.972 785.576 137.656 784.28 138.04ZM775.136 135.952H779.168C780.176 135.952 780.944 135.736 781.472 135.304C782.024 134.848 782.3 134.188 782.3 133.324C782.3 132.46 782.024 131.8 781.472 131.344C780.944 130.888 780.176 130.66 779.168 130.66H775.136V135.952ZM779.672 146.032C780.704 146.032 781.496 145.804 782.048 145.348C782.624 144.868 782.912 144.184 782.912 143.296C782.912 142.408 782.612 141.712 782.012 141.208C781.436 140.704 780.632 140.452 779.6 140.452H775.136V146.032H779.672ZM811.646 140.632C811.646 141.208 811.61 141.808 811.538 142.432H797.606C797.702 143.68 798.098 144.64 798.794 145.312C799.514 145.96 800.39 146.284 801.422 146.284C802.958 146.284 804.026 145.636 804.626 144.34H811.178C810.842 145.66 810.23 146.848 809.342 147.904C808.478 148.96 807.386 149.788 806.066 150.388C804.746 150.988 803.27 151.288 801.638 151.288C799.67 151.288 797.918 150.868 796.382 150.028C794.846 149.188 793.646 147.988 792.782 146.428C791.918 144.868 791.486 143.044 791.486 140.956C791.486 138.868 791.906 137.044 792.746 135.484C793.61 133.924 794.81 132.724 796.346 131.884C797.882 131.044 799.646 130.624 801.638 130.624C803.582 130.624 805.31 131.032 806.822 131.848C808.334 132.664 809.51 133.828 810.35 135.34C811.214 136.852 811.646 138.616 811.646 140.632ZM805.346 139.012C805.346 137.956 804.986 137.116 804.266 136.492C803.546 135.868 802.646 135.556 801.566 135.556C800.534 135.556 799.658 135.856 798.938 136.456C798.242 137.056 797.81 137.908 797.642 139.012H805.346ZM821.05 134.26C821.77 133.156 822.67 132.292 823.75 131.668C824.83 131.02 826.03 130.696 827.35 130.696V137.212H825.658C824.122 137.212 822.97 137.548 822.202 138.22C821.434 138.868 821.05 140.02 821.05 141.676V151H814.894V130.912H821.05V134.26ZM842.568 151L836.448 142.576V151H830.292V124.36H836.448V139.084L842.532 130.912H850.128L841.776 140.992L850.2 151H842.568ZM861.69 151.288C859.722 151.288 857.946 150.868 856.362 150.028C854.802 149.188 853.566 147.988 852.654 146.428C851.766 144.868 851.322 143.044 851.322 140.956C851.322 138.892 851.778 137.08 852.69 135.52C853.602 133.936 854.85 132.724 856.434 131.884C858.018 131.044 859.794 130.624 861.762 130.624C863.73 130.624 865.506 131.044 867.09 131.884C868.674 132.724 869.922 133.936 870.834 135.52C871.746 137.08 872.202 138.892 872.202 140.956C872.202 143.02 871.734 144.844 870.798 146.428C869.886 147.988 868.626 149.188 867.018 150.028C865.434 150.868 863.658 151.288 861.69 151.288ZM861.69 145.96C862.866 145.96 863.862 145.528 864.678 144.664C865.518 143.8 865.938 142.564 865.938 140.956C865.938 139.348 865.53 138.112 864.714 137.248C863.922 136.384 862.938 135.952 861.762 135.952C860.562 135.952 859.566 136.384 858.774 137.248C857.982 138.088 857.586 139.324 857.586 140.956C857.586 142.564 857.97 143.8 858.738 144.664C859.53 145.528 860.514 145.96 861.69 145.96ZM881.624 124.36V151H875.468V124.36H881.624ZM884.861 140.92C884.861 138.856 885.245 137.044 886.013 135.484C886.805 133.924 887.873 132.724 889.217 131.884C890.561 131.044 892.061 130.624 893.717 130.624C895.133 130.624 896.369 130.912 897.425 131.488C898.505 132.064 899.333 132.82 899.909 133.756V130.912H906.065V151H899.909V148.156C899.309 149.092 898.469 149.848 897.389 150.424C896.333 151 895.097 151.288 893.681 151.288C892.049 151.288 890.561 150.868 889.217 150.028C887.873 149.164 886.805 147.952 886.013 146.392C885.245 144.808 884.861 142.984 884.861 140.92ZM899.909 140.956C899.909 139.42 899.477 138.208 898.613 137.32C897.773 136.432 896.741 135.988 895.517 135.988C894.293 135.988 893.249 136.432 892.385 137.32C891.545 138.184 891.125 139.384 891.125 140.92C891.125 142.456 891.545 143.68 892.385 144.592C893.249 145.48 894.293 145.924 895.517 145.924C896.741 145.924 897.773 145.48 898.613 144.592C899.477 143.704 899.909 142.492 899.909 140.956ZM916.675 133.756C917.251 132.82 918.079 132.064 919.159 131.488C920.239 130.912 921.475 130.624 922.867 130.624C924.523 130.624 926.023 131.044 927.367 131.884C928.711 132.724 929.767 133.924 930.535 135.484C931.327 137.044 931.723 138.856 931.723 140.92C931.723 142.984 931.327 144.808 930.535 146.392C929.767 147.952 928.711 149.164 927.367 150.028C926.023 150.868 924.523 151.288 922.867 151.288C921.451 151.288 920.215 151.012 919.159 150.46C918.103 149.884 917.275 149.128 916.675 148.192V151H910.519V124.36H916.675V133.756ZM925.459 140.92C925.459 139.384 925.027 138.184 924.163 137.32C923.323 136.432 922.279 135.988 921.031 135.988C919.807 135.988 918.763 136.432 917.899 137.32C917.059 138.208 916.639 139.42 916.639 140.956C916.639 142.492 917.059 143.704 917.899 144.592C918.763 145.48 919.807 145.924 921.031 145.924C922.255 145.924 923.299 145.48 924.163 144.592C925.027 143.68 925.459 142.456 925.459 140.92ZM944.096 151.288C942.128 151.288 940.352 150.868 938.768 150.028C937.208 149.188 935.972 147.988 935.06 146.428C934.172 144.868 933.728 143.044 933.728 140.956C933.728 138.892 934.184 137.08 935.096 135.52C936.008 133.936 937.256 132.724 938.84 131.884C940.424 131.044 942.2 130.624 944.168 130.624C946.136 130.624 947.912 131.044 949.496 131.884C951.08 132.724 952.328 133.936 953.24 135.52C954.152 137.08 954.608 138.892 954.608 140.956C954.608 143.02 954.14 144.844 953.204 146.428C952.292 147.988 951.032 149.188 949.424 150.028C947.84 150.868 946.064 151.288 944.096 151.288ZM944.096 145.96C945.272 145.96 946.268 145.528 947.084 144.664C947.924 143.8 948.344 142.564 948.344 140.956C948.344 139.348 947.936 138.112 947.12 137.248C946.328 136.384 945.344 135.952 944.168 135.952C942.968 135.952 941.972 136.384 941.18 137.248C940.388 138.088 939.992 139.324 939.992 140.956C939.992 142.564 940.376 143.8 941.144 144.664C941.936 145.528 942.92 145.96 944.096 145.96ZM964.03 134.26C964.75 133.156 965.65 132.292 966.73 131.668C967.81 131.02 969.01 130.696 970.33 130.696V137.212H968.638C967.102 137.212 965.95 137.548 965.182 138.22C964.414 138.868 964.03 140.02 964.03 141.676V151H957.874V130.912H964.03V134.26ZM972.049 140.92C972.049 138.856 972.433 137.044 973.201 135.484C973.993 133.924 975.061 132.724 976.405 131.884C977.749 131.044 979.249 130.624 980.905 130.624C982.321 130.624 983.557 130.912 984.613 131.488C985.693 132.064 986.521 132.82 987.097 133.756V130.912H993.253V151H987.097V148.156C986.497 149.092 985.657 149.848 984.577 150.424C983.521 151 982.285 151.288 980.869 151.288C979.237 151.288 977.749 150.868 976.405 150.028C975.061 149.164 973.993 147.952 973.201 146.392C972.433 144.808 972.049 142.984 972.049 140.92ZM987.097 140.956C987.097 139.42 986.665 138.208 985.801 137.32C984.961 136.432 983.929 135.988 982.705 135.988C981.481 135.988 980.437 136.432 979.573 137.32C978.733 138.184 978.313 139.384 978.313 140.92C978.313 142.456 978.733 143.68 979.573 144.592C980.437 145.48 981.481 145.924 982.705 145.924C983.929 145.924 984.961 145.48 985.801 144.592C986.665 143.704 987.097 142.492 987.097 140.956ZM1005.88 151.288C1004.13 151.288 1002.57 150.988 1001.2 150.388C999.83 149.788 998.75 148.972 997.958 147.94C997.166 146.884 996.722 145.708 996.626 144.412H1002.71C1002.78 145.108 1003.11 145.672 1003.68 146.104C1004.26 146.536 1004.97 146.752 1005.81 146.752C1006.57 146.752 1007.16 146.608 1007.57 146.32C1008 146.008 1008.22 145.612 1008.22 145.132C1008.22 144.556 1007.92 144.136 1007.32 143.872C1006.72 143.584 1005.75 143.272 1004.4 142.936C1002.96 142.6 1001.76 142.252 1000.8 141.892C999.842 141.508 999.014 140.92 998.318 140.128C997.622 139.312 997.274 138.22 997.274 136.852C997.274 135.7 997.586 134.656 998.21 133.72C998.858 132.76 999.794 132.004 1001.02 131.452C1002.27 130.9 1003.74 130.624 1005.45 130.624C1007.97 130.624 1009.95 131.248 1011.39 132.496C1012.85 133.744 1013.69 135.4 1013.91 137.464H1008.22C1008.12 136.768 1007.81 136.216 1007.28 135.808C1006.78 135.4 1006.11 135.196 1005.27 135.196C1004.55 135.196 1003.99 135.34 1003.61 135.628C1003.23 135.892 1003.03 136.264 1003.03 136.744C1003.03 137.32 1003.33 137.752 1003.93 138.04C1004.56 138.328 1005.52 138.616 1006.81 138.904C1008.3 139.288 1009.51 139.672 1010.45 140.056C1011.39 140.416 1012.2 141.016 1012.9 141.856C1013.62 142.672 1013.99 143.776 1014.01 145.168C1014.01 146.344 1013.68 147.4 1013.01 148.336C1012.36 149.248 1011.41 149.968 1010.16 150.496C1008.94 151.024 1007.51 151.288 1005.88 151.288ZM1020.88 128.824C1019.8 128.824 1018.91 128.512 1018.21 127.888C1017.54 127.24 1017.2 126.448 1017.2 125.512C1017.2 124.552 1017.54 123.76 1018.21 123.136C1018.91 122.488 1019.8 122.164 1020.88 122.164C1021.93 122.164 1022.8 122.488 1023.47 123.136C1024.16 123.76 1024.51 124.552 1024.51 125.512C1024.51 126.448 1024.16 127.24 1023.47 127.888C1022.8 128.512 1021.93 128.824 1020.88 128.824ZM1023.94 130.912V151H1017.78V130.912H1023.94ZM585.003 205L582.663 202.732C580.335 204.508 577.551 205.396 574.311 205.396C572.367 205.396 570.675 205.084 569.235 204.46C567.795 203.812 566.679 202.912 565.887 201.76C565.119 200.584 564.735 199.216 564.735 197.656C564.735 196.072 565.155 194.644 565.995 193.372C566.859 192.076 568.143 191.02 569.847 190.204C569.223 189.436 568.779 188.704 568.515 188.008C568.251 187.288 568.119 186.508 568.119 185.668C568.119 184.468 568.431 183.376 569.055 182.392C569.679 181.408 570.579 180.64 571.755 180.088C572.955 179.512 574.371 179.224 576.003 179.224C577.659 179.224 579.063 179.524 580.215 180.124C581.367 180.724 582.231 181.528 582.807 182.536C583.383 183.544 583.647 184.648 583.599 185.848H577.803C577.827 185.2 577.659 184.708 577.299 184.372C576.963 184.012 576.507 183.832 575.931 183.832C575.355 183.832 574.875 184 574.491 184.336C574.107 184.672 573.915 185.104 573.915 185.632C573.915 186.136 574.071 186.664 574.383 187.216C574.719 187.768 575.235 188.404 575.931 189.124L582.087 195.136C582.135 195.016 582.195 194.872 582.267 194.704C582.363 194.536 582.459 194.344 582.555 194.128L583.887 191.86H590.043L588.315 194.992C587.667 196.408 586.923 197.752 586.083 199.024L592.167 205H585.003ZM574.599 200.428C576.207 200.428 577.635 199.972 578.883 199.06L573.267 193.624C571.539 194.512 570.675 195.712 570.675 197.224C570.675 198.136 571.023 198.904 571.719 199.528C572.439 200.128 573.399 200.428 574.599 200.428ZM617.323 192.04C618.787 192.352 619.963 193.084 620.851 194.236C621.739 195.364 622.183 196.66 622.183 198.124C622.183 200.236 621.439 201.916 619.951 203.164C618.487 204.388 616.435 205 613.795 205H602.023V179.728H613.399C615.967 179.728 617.971 180.316 619.411 181.492C620.875 182.668 621.607 184.264 621.607 186.28C621.607 187.768 621.211 189.004 620.419 189.988C619.651 190.972 618.619 191.656 617.323 192.04ZM608.179 189.952H612.211C613.219 189.952 613.987 189.736 614.515 189.304C615.067 188.848 615.343 188.188 615.343 187.324C615.343 186.46 615.067 185.8 614.515 185.344C613.987 184.888 613.219 184.66 612.211 184.66H608.179V189.952ZM612.715 200.032C613.747 200.032 614.539 199.804 615.091 199.348C615.667 198.868 615.955 198.184 615.955 197.296C615.955 196.408 615.655 195.712 615.055 195.208C614.479 194.704 613.675 194.452 612.643 194.452H608.179V200.032H612.715ZM644.689 194.632C644.689 195.208 644.653 195.808 644.581 196.432H630.649C630.745 197.68 631.141 198.64 631.837 199.312C632.557 199.96 633.433 200.284 634.465 200.284C636.001 200.284 637.069 199.636 637.669 198.34H644.221C643.885 199.66 643.273 200.848 642.385 201.904C641.521 202.96 640.429 203.788 639.109 204.388C637.789 204.988 636.313 205.288 634.681 205.288C632.713 205.288 630.961 204.868 629.425 204.028C627.889 203.188 626.689 201.988 625.825 200.428C624.961 198.868 624.529 197.044 624.529 194.956C624.529 192.868 624.949 191.044 625.789 189.484C626.653 187.924 627.853 186.724 629.389 185.884C630.925 185.044 632.689 184.624 634.681 184.624C636.625 184.624 638.353 185.032 639.865 185.848C641.377 186.664 642.553 187.828 643.393 189.34C644.257 190.852 644.689 192.616 644.689 194.632ZM638.389 193.012C638.389 191.956 638.029 191.116 637.309 190.492C636.589 189.868 635.689 189.556 634.609 189.556C633.577 189.556 632.701 189.856 631.981 190.456C631.285 191.056 630.853 191.908 630.685 193.012H638.389ZM654.093 188.26C654.813 187.156 655.713 186.292 656.793 185.668C657.873 185.02 659.073 184.696 660.393 184.696V191.212H658.701C657.165 191.212 656.013 191.548 655.245 192.22C654.477 192.868 654.093 194.02 654.093 195.676V205H647.937V184.912H654.093V188.26ZM675.611 205L669.491 196.576V205H663.335V178.36H669.491V193.084L675.575 184.912H683.171L674.819 194.992L683.243 205H675.611ZM694.733 205.288C692.765 205.288 690.989 204.868 689.405 204.028C687.845 203.188 686.609 201.988 685.697 200.428C684.809 198.868 684.365 197.044 684.365 194.956C684.365 192.892 684.821 191.08 685.733 189.52C686.645 187.936 687.893 186.724 689.477 185.884C691.061 185.044 692.837 184.624 694.805 184.624C696.773 184.624 698.549 185.044 700.133 185.884C701.717 186.724 702.965 187.936 703.877 189.52C704.789 191.08 705.245 192.892 705.245 194.956C705.245 197.02 704.777 198.844 703.841 200.428C702.929 201.988 701.669 203.188 700.061 204.028C698.477 204.868 696.701 205.288 694.733 205.288ZM694.733 199.96C695.909 199.96 696.905 199.528 697.721 198.664C698.561 197.8 698.981 196.564 698.981 194.956C698.981 193.348 698.573 192.112 697.757 191.248C696.965 190.384 695.981 189.952 694.805 189.952C693.605 189.952 692.609 190.384 691.817 191.248C691.025 192.088 690.629 193.324 690.629 194.956C690.629 196.564 691.013 197.8 691.781 198.664C692.573 199.528 693.557 199.96 694.733 199.96ZM720.751 184.696C723.103 184.696 724.975 185.464 726.367 187C727.783 188.512 728.491 190.6 728.491 193.264V205H722.371V194.092C722.371 192.748 722.023 191.704 721.327 190.96C720.631 190.216 719.695 189.844 718.519 189.844C717.343 189.844 716.407 190.216 715.711 190.96C715.015 191.704 714.667 192.748 714.667 194.092V205H708.511V184.912H714.667V187.576C715.291 186.688 716.131 185.992 717.187 185.488C718.243 184.96 719.431 184.696 720.751 184.696ZM743.965 199.78V205H740.833C738.601 205 736.861 204.46 735.613 203.38C734.365 202.276 733.741 200.488 733.741 198.016V190.024H731.293V184.912H733.741V180.016H739.897V184.912H743.929V190.024H739.897V198.088C739.897 198.688 740.041 199.12 740.329 199.384C740.617 199.648 741.097 199.78 741.769 199.78H743.965ZM753.55 188.26C754.27 187.156 755.17 186.292 756.25 185.668C757.33 185.02 758.53 184.696 759.85 184.696V191.212H758.158C756.622 191.212 755.47 191.548 754.702 192.22C753.934 192.868 753.55 194.02 753.55 195.676V205H747.394V184.912H753.55V188.26ZM765.888 182.824C764.808 182.824 763.92 182.512 763.224 181.888C762.552 181.24 762.216 180.448 762.216 179.512C762.216 178.552 762.552 177.76 763.224 177.136C763.92 176.488 764.808 176.164 765.888 176.164C766.944 176.164 767.808 176.488 768.48 177.136C769.176 177.76 769.524 178.552 769.524 179.512C769.524 180.448 769.176 181.24 768.48 181.888C767.808 182.512 766.944 182.824 765.888 182.824ZM768.948 184.912V205H762.792V184.912H768.948ZM779.565 187.756C780.141 186.82 780.969 186.064 782.049 185.488C783.129 184.912 784.365 184.624 785.757 184.624C787.413 184.624 788.913 185.044 790.257 185.884C791.601 186.724 792.657 187.924 793.425 189.484C794.217 191.044 794.613 192.856 794.613 194.92C794.613 196.984 794.217 198.808 793.425 200.392C792.657 201.952 791.601 203.164 790.257 204.028C788.913 204.868 787.413 205.288 785.757 205.288C784.341 205.288 783.105 205.012 782.049 204.46C780.993 203.884 780.165 203.128 779.565 202.192V205H773.409V178.36H779.565V187.756ZM788.349 194.92C788.349 193.384 787.917 192.184 787.053 191.32C786.213 190.432 785.169 189.988 783.921 189.988C782.697 189.988 781.653 190.432 780.789 191.32C779.949 192.208 779.529 193.42 779.529 194.956C779.529 196.492 779.949 197.704 780.789 198.592C781.653 199.48 782.697 199.924 783.921 199.924C785.145 199.924 786.189 199.48 787.053 198.592C787.917 197.68 788.349 196.456 788.349 194.92ZM817.679 184.912V205H811.523V202.264C810.899 203.152 810.047 203.872 808.967 204.424C807.911 204.952 806.735 205.216 805.439 205.216C803.903 205.216 802.547 204.88 801.371 204.208C800.195 203.512 799.283 202.516 798.635 201.22C797.987 199.924 797.663 198.4 797.663 196.648V184.912H803.783V195.82C803.783 197.164 804.131 198.208 804.827 198.952C805.523 199.696 806.459 200.068 807.635 200.068C808.835 200.068 809.783 199.696 810.479 198.952C811.175 198.208 811.523 197.164 811.523 195.82V184.912H817.679ZM830.273 205.288C828.521 205.288 826.961 204.988 825.593 204.388C824.225 203.788 823.145 202.972 822.353 201.94C821.561 200.884 821.117 199.708 821.021 198.412H827.105C827.177 199.108 827.501 199.672 828.077 200.104C828.653 200.536 829.361 200.752 830.201 200.752C830.969 200.752 831.557 200.608 831.965 200.32C832.397 200.008 832.613 199.612 832.613 199.132C832.613 198.556 832.313 198.136 831.713 197.872C831.113 197.584 830.141 197.272 828.797 196.936C827.357 196.6 826.157 196.252 825.197 195.892C824.237 195.508 823.409 194.92 822.713 194.128C822.017 193.312 821.669 192.22 821.669 190.852C821.669 189.7 821.981 188.656 822.605 187.72C823.253 186.76 824.189 186.004 825.413 185.452C826.661 184.9 828.137 184.624 829.841 184.624C832.361 184.624 834.341 185.248 835.781 186.496C837.245 187.744 838.085 189.4 838.301 191.464H832.613C832.517 190.768 832.205 190.216 831.677 189.808C831.173 189.4 830.501 189.196 829.661 189.196C828.941 189.196 828.389 189.34 828.005 189.628C827.621 189.892 827.429 190.264 827.429 190.744C827.429 191.32 827.729 191.752 828.329 192.04C828.953 192.328 829.913 192.616 831.209 192.904C832.697 193.288 833.909 193.672 834.845 194.056C835.781 194.416 836.597 195.016 837.293 195.856C838.013 196.672 838.385 197.776 838.409 199.168C838.409 200.344 838.073 201.4 837.401 202.336C836.753 203.248 835.805 203.968 834.557 204.496C833.333 205.024 831.905 205.288 830.273 205.288ZM845.271 182.824C844.191 182.824 843.303 182.512 842.607 181.888C841.935 181.24 841.599 180.448 841.599 179.512C841.599 178.552 841.935 177.76 842.607 177.136C843.303 176.488 844.191 176.164 845.271 176.164C846.327 176.164 847.191 176.488 847.863 177.136C848.559 177.76 848.907 178.552 848.907 179.512C848.907 180.448 848.559 181.24 847.863 181.888C847.191 182.512 846.327 182.824 845.271 182.824ZM848.331 184.912V205H842.175V184.912H848.331Z" fill="white"/>
<path d="M573.478 257.454V258.786H568.024V263.016H572.452V264.348H568.024V270H566.386V257.454H573.478ZM579.758 270.162C578.834 270.162 577.994 269.952 577.238 269.532C576.494 269.112 575.906 268.518 575.474 267.75C575.054 266.97 574.844 266.07 574.844 265.05C574.844 264.042 575.06 263.154 575.492 262.386C575.936 261.606 576.536 261.012 577.292 260.604C578.048 260.184 578.894 259.974 579.83 259.974C580.766 259.974 581.612 260.184 582.368 260.604C583.124 261.012 583.718 261.6 584.15 262.368C584.594 263.136 584.816 264.03 584.816 265.05C584.816 266.07 584.588 266.97 584.132 267.75C583.688 268.518 583.082 269.112 582.314 269.532C581.546 269.952 580.694 270.162 579.758 270.162ZM579.758 268.722C580.346 268.722 580.898 268.584 581.414 268.308C581.93 268.032 582.344 267.618 582.656 267.066C582.98 266.514 583.142 265.842 583.142 265.05C583.142 264.258 582.986 263.586 582.674 263.034C582.362 262.482 581.954 262.074 581.45 261.81C580.946 261.534 580.4 261.396 579.812 261.396C579.212 261.396 578.66 261.534 578.156 261.81C577.664 262.074 577.268 262.482 576.968 263.034C576.668 263.586 576.518 264.258 576.518 265.05C576.518 265.854 576.662 266.532 576.95 267.084C577.25 267.636 577.646 268.05 578.138 268.326C578.63 268.59 579.17 268.722 579.758 268.722ZM588.607 261.738C588.895 261.174 589.303 260.736 589.831 260.424C590.371 260.112 591.025 259.956 591.793 259.956V261.648H591.361C589.525 261.648 588.607 262.644 588.607 264.636V270H586.969V260.136H588.607V261.738ZM602.432 260.136V270H600.794V268.542C600.482 269.046 600.044 269.442 599.48 269.73C598.928 270.006 598.316 270.144 597.644 270.144C596.876 270.144 596.186 269.988 595.574 269.676C594.962 269.352 594.476 268.872 594.116 268.236C593.768 267.6 593.594 266.826 593.594 265.914V260.136H595.214V265.698C595.214 266.67 595.46 267.42 595.952 267.948C596.444 268.464 597.116 268.722 597.968 268.722C598.844 268.722 599.534 268.452 600.038 267.912C600.542 267.372 600.794 266.586 600.794 265.554V260.136H602.432ZM617.06 259.956C617.828 259.956 618.512 260.118 619.112 260.442C619.712 260.754 620.186 261.228 620.534 261.864C620.882 262.5 621.056 263.274 621.056 264.186V270H619.436V264.42C619.436 263.436 619.19 262.686 618.698 262.17C618.218 261.642 617.564 261.378 616.736 261.378C615.884 261.378 615.206 261.654 614.702 262.206C614.198 262.746 613.946 263.532 613.946 264.564V270H612.326V264.42C612.326 263.436 612.08 262.686 611.588 262.17C611.108 261.642 610.454 261.378 609.626 261.378C608.774 261.378 608.096 261.654 607.592 262.206C607.088 262.746 606.836 263.532 606.836 264.564V270H605.198V260.136H606.836V261.558C607.16 261.042 607.592 260.646 608.132 260.37C608.684 260.094 609.29 259.956 609.95 259.956C610.778 259.956 611.51 260.142 612.146 260.514C612.782 260.886 613.256 261.432 613.568 262.152C613.844 261.456 614.3 260.916 614.936 260.532C615.572 260.148 616.28 259.956 617.06 259.956ZM635.346 270L630.18 264.276V270H628.542V257.454H630.18V263.268L635.364 257.454H637.434L631.746 263.736L637.488 270H635.346ZM648.317 264.69C648.317 265.002 648.299 265.332 648.263 265.68H640.379C640.439 266.652 640.769 267.414 641.369 267.966C641.981 268.506 642.719 268.776 643.583 268.776C644.291 268.776 644.879 268.614 645.347 268.29C645.827 267.954 646.163 267.51 646.355 266.958H648.119C647.855 267.906 647.327 268.68 646.535 269.28C645.743 269.868 644.759 270.162 643.583 270.162C642.647 270.162 641.807 269.952 641.063 269.532C640.331 269.112 639.755 268.518 639.335 267.75C638.915 266.97 638.705 266.07 638.705 265.05C638.705 264.03 638.909 263.136 639.317 262.368C639.725 261.6 640.295 261.012 641.027 260.604C641.771 260.184 642.623 259.974 643.583 259.974C644.519 259.974 645.347 260.178 646.067 260.586C646.787 260.994 647.339 261.558 647.723 262.278C648.119 262.986 648.317 263.79 648.317 264.69ZM646.625 264.348C646.625 263.724 646.487 263.19 646.211 262.746C645.935 262.29 645.557 261.948 645.077 261.72C644.609 261.48 644.087 261.36 643.511 261.36C642.683 261.36 641.975 261.624 641.387 262.152C640.811 262.68 640.481 263.412 640.397 264.348H646.625ZM663.619 260.136L660.541 270H658.849L656.473 262.17L654.097 270H652.405L649.309 260.136H650.983L653.251 268.416L655.699 260.136H657.373L659.767 268.434L661.999 260.136H663.619ZM666.091 258.534C665.779 258.534 665.515 258.426 665.299 258.21C665.083 257.994 664.975 257.73 664.975 257.418C664.975 257.106 665.083 256.842 665.299 256.626C665.515 256.41 665.779 256.302 666.091 256.302C666.391 256.302 666.643 256.41 666.847 256.626C667.063 256.842 667.171 257.106 667.171 257.418C667.171 257.73 667.063 257.994 666.847 258.21C666.643 258.426 666.391 258.534 666.091 258.534ZM666.883 260.136V270H665.245V260.136H666.883ZM671.313 261.738C671.601 261.174 672.009 260.736 672.537 260.424C673.077 260.112 673.731 259.956 674.499 259.956V261.648H674.067C672.231 261.648 671.313 262.644 671.313 264.636V270H669.675V260.136H671.313V261.738ZM675.777 265.032C675.777 264.024 675.981 263.142 676.389 262.386C676.797 261.618 677.355 261.024 678.063 260.604C678.783 260.184 679.581 259.974 680.457 259.974C681.321 259.974 682.071 260.16 682.707 260.532C683.343 260.904 683.817 261.372 684.129 261.936V260.136H685.785V270H684.129V268.164C683.805 268.74 683.319 269.22 682.671 269.604C682.035 269.976 681.291 270.162 680.439 270.162C679.563 270.162 678.771 269.946 678.063 269.514C677.355 269.082 676.797 268.476 676.389 267.696C675.981 266.916 675.777 266.028 675.777 265.032ZM684.129 265.05C684.129 264.306 683.979 263.658 683.679 263.106C683.379 262.554 682.971 262.134 682.455 261.846C681.951 261.546 681.393 261.396 680.781 261.396C680.169 261.396 679.611 261.54 679.107 261.828C678.603 262.116 678.201 262.536 677.901 263.088C677.601 263.64 677.451 264.288 677.451 265.032C677.451 265.788 677.601 266.448 677.901 267.012C678.201 267.564 678.603 267.99 679.107 268.29C679.611 268.578 680.169 268.722 680.781 268.722C681.393 268.722 681.951 268.578 682.455 268.29C682.971 267.99 683.379 267.564 683.679 267.012C683.979 266.448 684.129 265.794 684.129 265.05ZM697.301 260.136V270H695.663V268.542C695.351 269.046 694.913 269.442 694.349 269.73C693.797 270.006 693.185 270.144 692.513 270.144C691.745 270.144 691.055 269.988 690.443 269.676C689.831 269.352 689.345 268.872 688.985 268.236C688.637 267.6 688.463 266.826 688.463 265.914V260.136H690.083V265.698C690.083 266.67 690.329 267.42 690.821 267.948C691.313 268.464 691.985 268.722 692.837 268.722C693.713 268.722 694.403 268.452 694.907 267.912C695.411 267.372 695.663 266.586 695.663 265.554V260.136H697.301ZM703.559 270.162C702.803 270.162 702.125 270.036 701.525 269.784C700.925 269.52 700.451 269.16 700.103 268.704C699.755 268.236 699.563 267.702 699.527 267.102H701.219C701.267 267.594 701.495 267.996 701.903 268.308C702.323 268.62 702.869 268.776 703.541 268.776C704.165 268.776 704.657 268.638 705.017 268.362C705.377 268.086 705.557 267.738 705.557 267.318C705.557 266.886 705.365 266.568 704.981 266.364C704.597 266.148 704.003 265.938 703.199 265.734C702.467 265.542 701.867 265.35 701.399 265.158C700.943 264.954 700.547 264.66 700.211 264.276C699.887 263.88 699.725 263.364 699.725 262.728C699.725 262.224 699.875 261.762 700.175 261.342C700.475 260.922 700.901 260.592 701.453 260.352C702.005 260.1 702.635 259.974 703.343 259.974C704.435 259.974 705.317 260.25 705.989 260.802C706.661 261.354 707.021 262.11 707.069 263.07H705.431C705.395 262.554 705.185 262.14 704.801 261.828C704.429 261.516 703.925 261.36 703.289 261.36C702.701 261.36 702.233 261.486 701.885 261.738C701.537 261.99 701.363 262.32 701.363 262.728C701.363 263.052 701.465 263.322 701.669 263.538C701.885 263.742 702.149 263.91 702.461 264.042C702.785 264.162 703.229 264.3 703.793 264.456C704.501 264.648 705.077 264.84 705.521 265.032C705.965 265.212 706.343 265.488 706.655 265.86C706.979 266.232 707.147 266.718 707.159 267.318C707.159 267.858 707.009 268.344 706.709 268.776C706.409 269.208 705.983 269.55 705.431 269.802C704.891 270.042 704.267 270.162 703.559 270.162ZM708.859 265.032C708.859 264.024 709.063 263.142 709.471 262.386C709.879 261.618 710.437 261.024 711.145 260.604C711.865 260.184 712.663 259.974 713.539 259.974C714.403 259.974 715.153 260.16 715.789 260.532C716.425 260.904 716.899 261.372 717.211 261.936V260.136H718.867V270H717.211V268.164C716.887 268.74 716.401 269.22 715.753 269.604C715.117 269.976 714.373 270.162 713.521 270.162C712.645 270.162 711.853 269.946 711.145 269.514C710.437 269.082 709.879 268.476 709.471 267.696C709.063 266.916 708.859 266.028 708.859 265.032ZM717.211 265.05C717.211 264.306 717.061 263.658 716.761 263.106C716.461 262.554 716.053 262.134 715.537 261.846C715.033 261.546 714.475 261.396 713.863 261.396C713.251 261.396 712.693 261.54 712.189 261.828C711.685 262.116 711.283 262.536 710.983 263.088C710.683 263.64 710.533 264.288 710.533 265.032C710.533 265.788 710.683 266.448 710.983 267.012C711.283 267.564 711.685 267.99 712.189 268.29C712.693 268.578 713.251 268.722 713.863 268.722C714.475 268.722 715.033 268.578 715.537 268.29C716.053 267.99 716.461 267.564 716.761 267.012C717.061 266.448 717.211 265.794 717.211 265.05ZM726.532 259.956C727.276 259.956 727.948 260.118 728.548 260.442C729.148 260.754 729.616 261.228 729.952 261.864C730.3 262.5 730.474 263.274 730.474 264.186V270H728.854V264.42C728.854 263.436 728.608 262.686 728.116 262.17C727.624 261.642 726.952 261.378 726.1 261.378C725.236 261.378 724.546 261.648 724.03 262.188C723.526 262.728 723.274 263.514 723.274 264.546V270H721.636V256.68H723.274V261.54C723.598 261.036 724.042 260.646 724.606 260.37C725.182 260.094 725.824 259.956 726.532 259.956ZM732.537 265.032C732.537 264.024 732.741 263.142 733.149 262.386C733.557 261.618 734.115 261.024 734.823 260.604C735.543 260.184 736.341 259.974 737.217 259.974C738.081 259.974 738.831 260.16 739.467 260.532C740.103 260.904 740.577 261.372 740.889 261.936V260.136H742.545V270H740.889V268.164C740.565 268.74 740.079 269.22 739.431 269.604C738.795 269.976 738.051 270.162 737.199 270.162C736.323 270.162 735.531 269.946 734.823 269.514C734.115 269.082 733.557 268.476 733.149 267.696C732.741 266.916 732.537 266.028 732.537 265.032ZM740.889 265.05C740.889 264.306 740.739 263.658 740.439 263.106C740.139 262.554 739.731 262.134 739.215 261.846C738.711 261.546 738.153 261.396 737.541 261.396C736.929 261.396 736.371 261.54 735.867 261.828C735.363 262.116 734.961 262.536 734.661 263.088C734.361 263.64 734.211 264.288 734.211 265.032C734.211 265.788 734.361 266.448 734.661 267.012C734.961 267.564 735.363 267.99 735.867 268.29C736.371 268.578 736.929 268.722 737.541 268.722C738.153 268.722 738.711 268.578 739.215 268.29C739.731 267.99 740.139 267.564 740.439 267.012C740.739 266.448 740.889 265.794 740.889 265.05ZM744.701 265.032C744.701 264.024 744.905 263.142 745.313 262.386C745.721 261.618 746.279 261.024 746.987 260.604C747.707 260.184 748.505 259.974 749.381 259.974C750.245 259.974 750.995 260.16 751.631 260.532C752.267 260.904 752.741 261.372 753.053 261.936V260.136H754.709V270H753.053V268.164C752.729 268.74 752.243 269.22 751.595 269.604C750.959 269.976 750.215 270.162 749.363 270.162C748.487 270.162 747.695 269.946 746.987 269.514C746.279 269.082 745.721 268.476 745.313 267.696C744.905 266.916 744.701 266.028 744.701 265.032ZM753.053 265.05C753.053 264.306 752.903 263.658 752.603 263.106C752.303 262.554 751.895 262.134 751.379 261.846C750.875 261.546 750.317 261.396 749.705 261.396C749.093 261.396 748.535 261.54 748.031 261.828C747.527 262.116 747.125 262.536 746.825 263.088C746.525 263.64 746.375 264.288 746.375 265.032C746.375 265.788 746.525 266.448 746.825 267.012C747.125 267.564 747.527 267.99 748.031 268.29C748.535 268.578 749.093 268.722 749.705 268.722C750.317 268.722 750.875 268.578 751.379 268.29C751.895 267.99 752.303 267.564 752.603 267.012C752.903 266.448 753.053 265.794 753.053 265.05ZM762.283 259.956C763.483 259.956 764.455 260.322 765.199 261.054C765.943 261.774 766.315 262.818 766.315 264.186V270H764.695V264.42C764.695 263.436 764.449 262.686 763.957 262.17C763.465 261.642 762.793 261.378 761.941 261.378C761.077 261.378 760.387 261.648 759.871 262.188C759.367 262.728 759.115 263.514 759.115 264.546V270H757.477V260.136H759.115V261.54C759.439 261.036 759.877 260.646 760.429 260.37C760.993 260.094 761.611 259.956 762.283 259.956ZM782.178 261.126C782.178 262.17 781.818 263.04 781.098 263.736C780.39 264.42 779.304 264.762 777.84 264.762H775.428V270H773.79V257.454H777.84C779.256 257.454 780.33 257.796 781.062 258.48C781.806 259.164 782.178 260.046 782.178 261.126ZM777.84 263.412C778.752 263.412 779.424 263.214 779.856 262.818C780.288 262.422 780.504 261.858 780.504 261.126C780.504 259.578 779.616 258.804 777.84 258.804H775.428V263.412H777.84ZM793.214 264.69C793.214 265.002 793.196 265.332 793.16 265.68H785.276C785.336 266.652 785.666 267.414 786.266 267.966C786.878 268.506 787.616 268.776 788.48 268.776C789.188 268.776 789.776 268.614 790.244 268.29C790.724 267.954 791.06 267.51 791.252 266.958H793.016C792.752 267.906 792.224 268.68 791.432 269.28C790.64 269.868 789.656 270.162 788.48 270.162C787.544 270.162 786.704 269.952 785.96 269.532C785.228 269.112 784.652 268.518 784.232 267.75C783.812 266.97 783.602 266.07 783.602 265.05C783.602 264.03 783.806 263.136 784.214 262.368C784.622 261.6 785.192 261.012 785.924 260.604C786.668 260.184 787.52 259.974 788.48 259.974C789.416 259.974 790.244 260.178 790.964 260.586C791.684 260.994 792.236 261.558 792.62 262.278C793.016 262.986 793.214 263.79 793.214 264.69ZM791.522 264.348C791.522 263.724 791.384 263.19 791.108 262.746C790.832 262.29 790.454 261.948 789.974 261.72C789.506 261.48 788.984 261.36 788.408 261.36C787.58 261.36 786.872 261.624 786.284 262.152C785.708 262.68 785.378 263.412 785.294 264.348H791.522ZM807.238 259.956C808.006 259.956 808.69 260.118 809.29 260.442C809.89 260.754 810.364 261.228 810.712 261.864C811.06 262.5 811.234 263.274 811.234 264.186V270H809.614V264.42C809.614 263.436 809.368 262.686 808.876 262.17C808.396 261.642 807.742 261.378 806.914 261.378C806.062 261.378 805.384 261.654 804.88 262.206C804.376 262.746 804.124 263.532 804.124 264.564V270H802.504V264.42C802.504 263.436 802.258 262.686 801.766 262.17C801.286 261.642 800.632 261.378 799.804 261.378C798.952 261.378 798.274 261.654 797.77 262.206C797.266 262.746 797.014 263.532 797.014 264.564V270H795.376V260.136H797.014V261.558C797.338 261.042 797.77 260.646 798.31 260.37C798.862 260.094 799.468 259.956 800.128 259.956C800.956 259.956 801.688 260.142 802.324 260.514C802.96 260.886 803.434 261.432 803.746 262.152C804.022 261.456 804.478 260.916 805.114 260.532C805.75 260.148 806.458 259.956 807.238 259.956ZM822.669 260.136V270H821.031V268.542C820.719 269.046 820.281 269.442 819.717 269.73C819.165 270.006 818.553 270.144 817.881 270.144C817.113 270.144 816.423 269.988 815.811 269.676C815.199 269.352 814.713 268.872 814.353 268.236C814.005 267.6 813.831 266.826 813.831 265.914V260.136H815.451V265.698C815.451 266.67 815.697 267.42 816.189 267.948C816.681 268.464 817.353 268.722 818.205 268.722C819.081 268.722 819.771 268.452 820.275 267.912C820.779 267.372 821.031 266.586 821.031 265.554V260.136H822.669ZM824.822 265.032C824.822 264.024 825.026 263.142 825.434 262.386C825.842 261.618 826.4 261.024 827.108 260.604C827.828 260.184 828.632 259.974 829.52 259.974C830.288 259.974 831.002 260.154 831.662 260.514C832.322 260.862 832.826 261.324 833.174 261.9V256.68H834.83V270H833.174V268.146C832.85 268.734 832.37 269.22 831.734 269.604C831.098 269.976 830.354 270.162 829.502 270.162C828.626 270.162 827.828 269.946 827.108 269.514C826.4 269.082 825.842 268.476 825.434 267.696C825.026 266.916 824.822 266.028 824.822 265.032ZM833.174 265.05C833.174 264.306 833.024 263.658 832.724 263.106C832.424 262.554 832.016 262.134 831.5 261.846C830.996 261.546 830.438 261.396 829.826 261.396C829.214 261.396 828.656 261.54 828.152 261.828C827.648 262.116 827.246 262.536 826.946 263.088C826.646 263.64 826.496 264.288 826.496 265.032C826.496 265.788 826.646 266.448 826.946 267.012C827.246 267.564 827.648 267.99 828.152 268.29C828.656 268.578 829.214 268.722 829.826 268.722C830.438 268.722 830.996 268.578 831.5 268.29C832.016 267.99 832.424 267.564 832.724 267.012C833.024 266.448 833.174 265.794 833.174 265.05ZM836.986 265.032C836.986 264.024 837.19 263.142 837.598 262.386C838.006 261.618 838.564 261.024 839.272 260.604C839.992 260.184 840.79 259.974 841.666 259.974C842.53 259.974 843.28 260.16 843.916 260.532C844.552 260.904 845.026 261.372 845.338 261.936V260.136H846.994V270H845.338V268.164C845.014 268.74 844.528 269.22 843.88 269.604C843.244 269.976 842.5 270.162 841.648 270.162C840.772 270.162 839.98 269.946 839.272 269.514C838.564 269.082 838.006 268.476 837.598 267.696C837.19 266.916 836.986 266.028 836.986 265.032ZM845.338 265.05C845.338 264.306 845.188 263.658 844.888 263.106C844.588 262.554 844.18 262.134 843.664 261.846C843.16 261.546 842.602 261.396 841.99 261.396C841.378 261.396 840.82 261.54 840.316 261.828C839.812 262.116 839.41 262.536 839.11 263.088C838.81 263.64 838.66 264.288 838.66 265.032C838.66 265.788 838.81 266.448 839.11 267.012C839.41 267.564 839.812 267.99 840.316 268.29C840.82 268.578 841.378 268.722 841.99 268.722C842.602 268.722 843.16 268.578 843.664 268.29C844.18 267.99 844.588 267.564 844.888 267.012C845.188 266.448 845.338 265.794 845.338 265.05Z" fill="white"/>
<path d="M135.55 15.9127C136.157 12.6418 140.843 12.6418 141.45 15.9127L149.473 59.1962C149.907 61.5359 152.762 62.4635 154.488 60.8255L186.421 30.5247C188.834 28.2349 192.626 30.9897 191.194 33.9924L172.244 73.7256C171.219 75.8735 172.984 78.3019 175.343 77.9914L218.987 72.247C222.285 71.8129 223.734 76.2704 220.81 77.8578L182.125 98.8641C180.034 99.9996 180.034 103.001 182.125 104.137L220.81 125.143C223.734 126.731 222.285 131.188 218.987 130.754L175.343 125.01C172.984 124.699 171.219 127.128 172.244 129.275L191.194 169.009C192.626 172.011 188.834 174.766 186.421 172.476L154.488 142.175C152.762 140.537 149.907 141.465 149.473 143.805L141.45 187.088C140.843 190.359 136.157 190.359 135.55 187.088L127.527 143.805C127.093 141.465 124.238 140.537 122.512 142.175L90.5792 172.476C88.166 174.766 84.3743 172.011 85.8064 169.009L104.756 129.275C105.781 127.128 104.016 124.699 101.657 125.01L58.0128 130.754C54.7146 131.188 53.2662 126.731 56.1897 125.143L94.8752 104.137C96.9665 103.001 96.9665 99.9996 94.8752 98.8641L56.1897 77.8578C53.2663 76.2704 54.7145 71.8129 58.0127 72.247L101.657 77.9914C104.016 78.3019 105.781 75.8735 104.756 73.7256L85.8064 33.9924C84.3743 30.9897 88.166 28.2349 90.5792 30.5247L122.512 60.8255C124.238 62.4635 127.093 61.5359 127.527 59.1962L135.55 15.9127Z" fill="#DD4C44"/>
<path d="M1395.93 469.994C1381.89 473.755 1367.12 473.79 1353.06 470.095C1339.01 466.4 1326.17 459.103 1315.8 448.925C1305.42 438.747 1297.89 426.04 1293.93 412.058C1289.97 398.077 1289.73 383.305 1293.23 369.202C1296.73 355.099 1303.84 342.151 1313.87 331.639C1323.9 321.127 1336.5 313.413 1350.43 309.26C1364.35 305.106 1379.12 304.657 1393.27 307.955C1407.42 311.254 1420.47 318.188 1431.12 328.07L1402.71 358.693C1397.38 353.753 1390.86 350.287 1383.79 348.638C1376.71 346.988 1369.33 347.213 1362.37 349.29C1355.41 351.366 1349.11 355.222 1344.09 360.478C1339.08 365.733 1335.52 372.206 1333.77 379.256C1332.03 386.307 1332.15 393.692 1334.13 400.681C1336.1 407.671 1339.87 414.023 1345.06 419.112C1350.24 424.2 1356.66 427.848 1363.69 429.695C1370.71 431.542 1378.1 431.525 1385.11 429.645L1395.93 469.994Z" fill="#E1312D"/>
<g clip-path="url(#clip0_105_9)">
<path d="M293.772 237.813C293.087 238.874 292.61 240.056 291.82 241.057C284.706 249.724 282.76 259.903 283.052 270.536C283.151 274.197 284.287 278.107 285.971 281.431C290.646 290.978 297.3 299.028 306.011 305.21C308.518 306.997 311.431 308.323 314.585 309.234C314.015 308.421 313.422 307.527 312.769 306.735C310.915 304.423 308.979 302.132 307.267 299.694C306.548 298.657 306.175 297.264 305.906 295.932C305.774 295.44 306.317 294.505 306.789 294.29C307.261 294.076 308.298 294.325 308.49 294.712C312.495 301.102 318.233 306.062 323.461 311.421C325.287 313.302 325.332 314.783 323.373 316.361C318.497 320.214 312.941 322.844 306.891 324.29C306.726 324.334 306.392 324.072 305.766 323.713C306.281 318.395 311.942 318.458 315.502 314.959C314.361 314.65 313.428 314.461 312.638 314.146C297.12 307.241 286.708 295.369 279.981 280.139C278.933 277.873 278.395 275.208 278.148 272.64C277.297 263.211 278.931 254.169 283.488 245.836C284.974 243.155 287.273 240.871 289.406 238.631C290.218 237.711 291.617 237.337 292.703 236.782C293.059 237.126 293.416 237.469 293.772 237.813Z" fill="white"/>
</g>
<g clip-path="url(#clip1_105_9)">
<path d="M1113.03 326.943C1113.96 326.095 1114.73 325.078 1115.75 324.314C1124.87 317.784 1129.38 308.456 1131.85 298.109C1132.7 294.547 1132.62 290.477 1131.85 286.83C1129.81 276.399 1125.46 266.901 1118.65 258.675C1116.69 256.3 1114.22 254.265 1111.41 252.569C1111.75 253.501 1112.09 254.519 1112.52 255.452C1113.71 258.166 1114.99 260.88 1116.01 263.678C1116.43 264.865 1116.43 266.307 1116.35 267.664C1116.35 268.173 1115.58 268.936 1115.07 269.021C1114.56 269.106 1113.62 268.597 1113.54 268.173C1111.32 260.964 1107.06 254.689 1103.4 248.159C1102.12 245.869 1102.46 244.427 1104.76 243.409C1110.47 240.95 1116.52 239.848 1122.74 240.017C1122.91 240.017 1123.16 240.356 1123.67 240.865C1121.8 245.869 1116.35 244.343 1112 246.802C1113.03 247.396 1113.88 247.819 1114.56 248.328C1127.76 259.014 1134.75 273.176 1137.3 289.629C1137.73 292.088 1137.56 294.802 1137.13 297.346C1135.51 306.675 1131.6 314.986 1125.04 321.855C1122.91 324.06 1120.1 325.671 1117.46 327.282C1116.43 327.961 1114.99 327.961 1113.79 328.215C1113.54 327.791 1113.28 327.367 1113.03 326.943Z" fill="white"/>
</g>
<defs>
<clipPath id="clip0_105_9">
<rect width="88.215" height="88.215" fill="white" transform="translate(329.208 227) rotate(75)"/>
</clipPath>
<clipPath id="clip1_105_9">
<rect width="88.215" height="88.215" fill="white" transform="translate(1076 328.215) rotate(-90)"/>
</clipPath>
</defs>
</svg>
