<svg width="137" height="168" viewBox="0 0 137 168" fill="none" xmlns="http://www.w3.org/2000/svg">
<path d="M105.927 164.994C91.8917 168.755 77.118 168.789 63.0651 165.094C49.0122 161.399 36.1662 154.102 25.7958 143.924C15.4254 133.746 7.88932 121.039 3.93178 107.058C-0.0257473 93.0767 -0.267804 78.305 3.2295 64.2016C6.72681 50.0982 13.8425 37.151 23.8739 26.6387C33.9052 16.1263 46.5052 8.41252 60.4295 4.25903C74.3538 0.10554 89.1207 -0.343954 103.272 2.95494C117.423 6.25384 130.469 13.187 141.121 23.0697L112.71 53.693C107.384 48.7524 100.863 45.2863 93.788 43.6371C86.7135 41.9879 79.3312 42.2126 72.3701 44.289C65.409 46.3655 59.11 50.2218 54.0951 55.4772C49.0802 60.7325 45.5228 67.2051 43.7745 74.2558C42.0261 81.3064 42.1471 88.6911 44.1255 95.6807C46.104 102.67 49.8715 109.023 55.0559 114.111C60.2403 119.199 66.6623 122.847 73.6877 124.694C80.7131 126.542 88.0988 126.524 95.1155 124.644L105.927 164.994Z" fill="#E1312D"/>
</svg>
