<svg width="97" height="150" viewBox="0 0 97 150" fill="none" xmlns="http://www.w3.org/2000/svg">
<path d="M3.28184 94.5254C-0.729745 79.554 0.0280835 63.7041 5.44976 49.1837C10.8714 34.6633 20.687 22.1954 33.5291 13.5168C46.3712 4.83824 61.6003 0.381156 77.0951 0.766425C92.5899 1.15169 107.579 6.36013 119.974 15.6662C132.369 24.9723 141.552 37.9126 146.246 52.6845C150.939 67.4564 150.908 83.3244 146.158 98.078C141.407 112.832 132.173 125.736 119.742 134.994C107.311 144.252 92.302 149.402 76.8058 149.727L75.9887 110.775C83.3809 110.62 90.5408 108.163 96.4708 103.747C102.401 99.3303 106.806 93.1744 109.072 86.1363C111.338 79.0983 111.353 71.5287 109.114 64.482C106.875 57.4352 102.494 51.2622 96.5814 46.8228C90.6685 42.3835 83.5183 39.8989 76.1267 39.7151C68.7351 39.5313 61.4702 41.6575 55.3441 45.7975C49.2179 49.9375 44.5355 55.8852 41.9492 62.8119C39.3628 69.7387 39.0013 77.2997 40.915 84.4417L3.28184 94.5254Z" fill="#3C5190"/>
</svg>
