<svg width="107" height="149" viewBox="0 0 107 149" fill="none" xmlns="http://www.w3.org/2000/svg">
<path d="M107 74.5C107 89.9996 102.166 105.113 93.1706 117.736C84.1755 130.358 71.4675 139.861 56.8168 144.92C42.1661 149.979 26.3023 150.342 11.4352 145.96C-3.43191 141.577 -16.562 132.667 -26.126 120.47C-35.6899 108.273 -41.2116 93.3968 -41.9218 77.9134C-42.6319 62.4301 -38.4952 47.1108 -30.0879 34.0895C-21.6806 21.0683 -9.4213 10.9934 4.98221 5.26835C19.3857 -0.456674 35.2162 -1.54676 50.2685 2.14995L40.9762 39.9863C33.7957 38.2228 26.244 38.7429 19.373 41.4739C12.502 44.205 6.65383 49.0111 2.64323 55.2227C-1.36738 61.4343 -3.34074 68.7422 -3.00197 76.1283C-2.6632 83.5145 -0.0291557 90.611 4.53322 96.4295C9.0956 102.248 15.3591 106.498 22.4513 108.589C29.5435 110.68 37.1111 110.506 44.1 108.093C51.089 105.679 57.1512 101.146 61.4422 95.125C65.7332 89.1037 68.0393 81.8939 68.0393 74.5H107Z" fill="#3C5190"/>
</svg>
