<svg width="414" height="496" viewBox="0 0 414 496" fill="none" xmlns="http://www.w3.org/2000/svg">
<g clip-path="url(#clip0_223_6)">
<rect width="1440" height="417" transform="translate(-522 47)" fill="white"/>
<rect x="-519.001" y="44" width="1440" height="417" fill="#3C5190"/>
<circle cx="-345.849" cy="413.785" r="413.972" transform="rotate(45 -345.849 413.785)" stroke="white" stroke-opacity="0.27"/>
<circle cx="-208.22" cy="408.87" r="413.972" transform="rotate(45 -208.22 408.87)" stroke="white" stroke-opacity="0.27"/>
<circle cx="-70.5908" cy="403.954" r="413.972" transform="rotate(45 -70.5908 403.954)" stroke="white" stroke-opacity="0.27"/>
<circle cx="67.0381" cy="399.039" r="413.972" transform="rotate(45 67.0381 399.039)" stroke="white" stroke-opacity="0.27"/>
<circle cx="204.667" cy="394.123" r="413.972" transform="rotate(45 204.667 394.123)" stroke="white" stroke-opacity="0.27"/>
<circle cx="342.296" cy="389.207" r="413.972" transform="rotate(45 342.296 389.207)" stroke="white" stroke-opacity="0.27"/>
<circle cx="479.925" cy="384.292" r="413.972" transform="rotate(45 479.925 384.292)" stroke="white" stroke-opacity="0.27"/>
<path d="M103.306 123.152V140H99.2023V129.896L95.4343 140H92.1223L88.3303 129.872V140H84.2263V123.152H89.0743L93.8023 134.816L98.4823 123.152H103.306ZM119.482 126.608V140H115.378V138.176C114.962 138.768 114.394 139.248 113.674 139.616C112.97 139.968 112.186 140.144 111.322 140.144C110.298 140.144 109.394 139.92 108.61 139.472C107.826 139.008 107.218 138.344 106.786 137.48C106.354 136.616 106.138 135.6 106.138 134.432V126.608H110.218V133.88C110.218 134.776 110.45 135.472 110.914 135.968C111.378 136.464 112.002 136.712 112.786 136.712C113.586 136.712 114.218 136.464 114.682 135.968C115.146 135.472 115.378 134.776 115.378 133.88V126.608H119.482ZM121.613 133.28C121.613 131.904 121.869 130.696 122.381 129.656C122.909 128.616 123.621 127.816 124.517 127.256C125.413 126.696 126.413 126.416 127.517 126.416C128.397 126.416 129.197 126.6 129.917 126.968C130.653 127.336 131.229 127.832 131.645 128.456V122.24H135.749V140H131.645V138.08C131.261 138.72 130.709 139.232 129.989 139.616C129.285 140 128.461 140.192 127.517 140.192C126.413 140.192 125.413 139.912 124.517 139.352C123.621 138.776 122.909 137.968 122.381 136.928C121.869 135.872 121.613 134.656 121.613 133.28ZM131.645 133.304C131.645 132.28 131.357 131.472 130.781 130.88C130.221 130.288 129.533 129.992 128.717 129.992C127.901 129.992 127.205 130.288 126.629 130.88C126.069 131.456 125.789 132.256 125.789 133.28C125.789 134.304 126.069 135.12 126.629 135.728C127.205 136.32 127.901 136.616 128.717 136.616C129.533 136.616 130.221 136.32 130.781 135.728C131.357 135.136 131.645 134.328 131.645 133.304ZM137.902 133.28C137.902 131.904 138.158 130.696 138.67 129.656C139.198 128.616 139.91 127.816 140.806 127.256C141.702 126.696 142.702 126.416 143.806 126.416C144.75 126.416 145.574 126.608 146.278 126.992C146.998 127.376 147.55 127.88 147.934 128.504V126.608H152.038V140H147.934V138.104C147.534 138.728 146.974 139.232 146.254 139.616C145.55 140 144.726 140.192 143.782 140.192C142.694 140.192 141.702 139.912 140.806 139.352C139.91 138.776 139.198 137.968 138.67 136.928C138.158 135.872 137.902 134.656 137.902 133.28ZM147.934 133.304C147.934 132.28 147.646 131.472 147.07 130.88C146.51 130.288 145.822 129.992 145.006 129.992C144.19 129.992 143.494 130.288 142.918 130.88C142.358 131.456 142.078 132.256 142.078 133.28C142.078 134.304 142.358 135.12 142.918 135.728C143.494 136.32 144.19 136.616 145.006 136.616C145.822 136.616 146.51 136.32 147.07 135.728C147.646 135.136 147.934 134.328 147.934 133.304ZM170.293 131.36C171.269 131.568 172.053 132.056 172.645 132.824C173.237 133.576 173.533 134.44 173.533 135.416C173.533 136.824 173.037 137.944 172.045 138.776C171.069 139.592 169.701 140 167.941 140H160.093V123.152H167.677C169.389 123.152 170.725 123.544 171.685 124.328C172.661 125.112 173.149 126.176 173.149 127.52C173.149 128.512 172.885 129.336 172.357 129.992C171.845 130.648 171.157 131.104 170.293 131.36ZM164.197 129.968H166.885C167.557 129.968 168.069 129.824 168.421 129.536C168.789 129.232 168.973 128.792 168.973 128.216C168.973 127.64 168.789 127.2 168.421 126.896C168.069 126.592 167.557 126.44 166.885 126.44H164.197V129.968ZM167.221 136.688C167.909 136.688 168.437 136.536 168.805 136.232C169.189 135.912 169.381 135.456 169.381 134.864C169.381 134.272 169.181 133.808 168.781 133.472C168.397 133.136 167.861 132.968 167.173 132.968H164.197V136.688H167.221ZM188.538 133.088C188.538 133.472 188.514 133.872 188.466 134.288H179.178C179.242 135.12 179.506 135.76 179.97 136.208C180.45 136.64 181.034 136.856 181.722 136.856C182.746 136.856 183.458 136.424 183.858 135.56H188.226C188.002 136.44 187.594 137.232 187.002 137.936C186.426 138.64 185.698 139.192 184.818 139.592C183.938 139.992 182.954 140.192 181.866 140.192C180.554 140.192 179.386 139.912 178.362 139.352C177.338 138.792 176.538 137.992 175.962 136.952C175.386 135.912 175.098 134.696 175.098 133.304C175.098 131.912 175.378 130.696 175.938 129.656C176.514 128.616 177.314 127.816 178.338 127.256C179.362 126.696 180.538 126.416 181.866 126.416C183.162 126.416 184.314 126.688 185.322 127.232C186.33 127.776 187.114 128.552 187.674 129.56C188.25 130.568 188.538 131.744 188.538 133.088ZM184.338 132.008C184.338 131.304 184.098 130.744 183.618 130.328C183.138 129.912 182.538 129.704 181.818 129.704C181.13 129.704 180.546 129.904 180.066 130.304C179.602 130.704 179.314 131.272 179.202 132.008H184.338ZM194.807 128.84C195.287 128.104 195.887 127.528 196.607 127.112C197.327 126.68 198.127 126.464 199.007 126.464V130.808H197.879C196.855 130.808 196.087 131.032 195.575 131.48C195.063 131.912 194.807 132.68 194.807 133.784V140H190.703V126.608H194.807V128.84ZM209.152 140L205.072 134.384V140H200.968V122.24H205.072V132.056L209.128 126.608H214.192L208.624 133.328L214.24 140H209.152ZM221.9 140.192C220.588 140.192 219.404 139.912 218.348 139.352C217.308 138.792 216.484 137.992 215.876 136.952C215.284 135.912 214.988 134.696 214.988 133.304C214.988 131.928 215.292 130.72 215.9 129.68C216.508 128.624 217.34 127.816 218.396 127.256C219.452 126.696 220.636 126.416 221.948 126.416C223.26 126.416 224.444 126.696 225.5 127.256C226.556 127.816 227.388 128.624 227.996 129.68C228.604 130.72 228.908 131.928 228.908 133.304C228.908 134.68 228.596 135.896 227.972 136.952C227.364 137.992 226.524 138.792 225.452 139.352C224.396 139.912 223.212 140.192 221.9 140.192ZM221.9 136.64C222.684 136.64 223.348 136.352 223.892 135.776C224.452 135.2 224.732 134.376 224.732 133.304C224.732 132.232 224.46 131.408 223.916 130.832C223.388 130.256 222.732 129.968 221.948 129.968C221.148 129.968 220.484 130.256 219.956 130.832C219.428 131.392 219.164 132.216 219.164 133.304C219.164 134.376 219.42 135.2 219.932 135.776C220.46 136.352 221.116 136.64 221.9 136.64ZM248.174 126.464C249.838 126.464 251.158 126.968 252.134 127.976C253.126 128.984 253.622 130.384 253.622 132.176V140H249.542V132.728C249.542 131.864 249.31 131.2 248.846 130.736C248.398 130.256 247.774 130.016 246.974 130.016C246.174 130.016 245.542 130.256 245.078 130.736C244.63 131.2 244.406 131.864 244.406 132.728V140H240.326V132.728C240.326 131.864 240.094 131.2 239.63 130.736C239.182 130.256 238.558 130.016 237.758 130.016C236.958 130.016 236.326 130.256 235.862 130.736C235.414 131.2 235.19 131.864 235.19 132.728V140H231.086V126.608H235.19V128.288C235.606 127.728 236.15 127.288 236.822 126.968C237.494 126.632 238.254 126.464 239.102 126.464C240.11 126.464 241.006 126.68 241.79 127.112C242.59 127.544 243.214 128.16 243.662 128.96C244.126 128.224 244.758 127.624 245.558 127.16C246.358 126.696 247.23 126.464 248.174 126.464ZM260.596 128.504C260.996 127.88 261.548 127.376 262.252 126.992C262.956 126.608 263.78 126.416 264.724 126.416C265.828 126.416 266.828 126.696 267.724 127.256C268.62 127.816 269.324 128.616 269.836 129.656C270.364 130.696 270.628 131.904 270.628 133.28C270.628 134.656 270.364 135.872 269.836 136.928C269.324 137.968 268.62 138.776 267.724 139.352C266.828 139.912 265.828 140.192 264.724 140.192C263.796 140.192 262.972 140 262.252 139.616C261.548 139.232 260.996 138.736 260.596 138.128V146.384H256.492V126.608H260.596V128.504ZM266.452 133.28C266.452 132.256 266.164 131.456 265.588 130.88C265.028 130.288 264.332 129.992 263.5 129.992C262.684 129.992 261.988 130.288 261.412 130.88C260.852 131.472 260.572 132.28 260.572 133.304C260.572 134.328 260.852 135.136 261.412 135.728C261.988 136.32 262.684 136.616 263.5 136.616C264.316 136.616 265.012 136.32 265.588 135.728C266.164 135.12 266.452 134.304 266.452 133.28ZM285.405 133.088C285.405 133.472 285.381 133.872 285.333 134.288H276.045C276.109 135.12 276.373 135.76 276.837 136.208C277.317 136.64 277.901 136.856 278.589 136.856C279.613 136.856 280.325 136.424 280.725 135.56H285.093C284.869 136.44 284.461 137.232 283.869 137.936C283.293 138.64 282.565 139.192 281.685 139.592C280.805 139.992 279.821 140.192 278.733 140.192C277.421 140.192 276.253 139.912 275.229 139.352C274.205 138.792 273.405 137.992 272.829 136.952C272.253 135.912 271.965 134.696 271.965 133.304C271.965 131.912 272.245 130.696 272.805 129.656C273.381 128.616 274.181 127.816 275.205 127.256C276.229 126.696 277.405 126.416 278.733 126.416C280.029 126.416 281.181 126.688 282.189 127.232C283.197 127.776 283.981 128.552 284.541 129.56C285.117 130.568 285.405 131.744 285.405 133.088ZM281.205 132.008C281.205 131.304 280.965 130.744 280.485 130.328C280.005 129.912 279.405 129.704 278.685 129.704C277.997 129.704 277.413 129.904 276.933 130.304C276.469 130.704 276.181 131.272 276.069 132.008H281.205ZM295.034 136.52V140H292.946C291.458 140 290.298 139.64 289.466 138.92C288.634 138.184 288.218 136.992 288.218 135.344V130.016H286.586V126.608H288.218V123.344H292.322V126.608H295.01V130.016H292.322V135.392C292.322 135.792 292.418 136.08 292.61 136.256C292.802 136.432 293.122 136.52 293.57 136.52H295.034ZM299.384 125.216C298.664 125.216 298.072 125.008 297.608 124.592C297.16 124.16 296.936 123.632 296.936 123.008C296.936 122.368 297.16 121.84 297.608 121.424C298.072 120.992 298.664 120.776 299.384 120.776C300.088 120.776 300.664 120.992 301.112 121.424C301.576 121.84 301.808 122.368 301.808 123.008C301.808 123.632 301.576 124.16 301.112 124.592C300.664 125.008 300.088 125.216 299.384 125.216ZM301.424 126.608V140H297.32V126.608H301.424ZM309.846 140.192C308.678 140.192 307.638 139.992 306.726 139.592C305.814 139.192 305.094 138.648 304.566 137.96C304.038 137.256 303.742 136.472 303.678 135.608H307.734C307.782 136.072 307.998 136.448 308.382 136.736C308.766 137.024 309.238 137.168 309.798 137.168C310.31 137.168 310.702 137.072 310.974 136.88C311.262 136.672 311.406 136.408 311.406 136.088C311.406 135.704 311.206 135.424 310.806 135.248C310.406 135.056 309.758 134.848 308.862 134.624C307.902 134.4 307.102 134.168 306.462 133.928C305.822 133.672 305.27 133.28 304.806 132.752C304.342 132.208 304.11 131.48 304.11 130.568C304.11 129.8 304.318 129.104 304.734 128.48C305.166 127.84 305.79 127.336 306.606 126.968C307.438 126.6 308.422 126.416 309.558 126.416C311.238 126.416 312.558 126.832 313.518 127.664C314.494 128.496 315.054 129.6 315.198 130.976H311.406C311.342 130.512 311.134 130.144 310.782 129.872C310.446 129.6 309.998 129.464 309.438 129.464C308.958 129.464 308.59 129.56 308.334 129.752C308.078 129.928 307.95 130.176 307.95 130.496C307.95 130.88 308.15 131.168 308.55 131.36C308.966 131.552 309.606 131.744 310.47 131.936C311.462 132.192 312.27 132.448 312.894 132.704C313.518 132.944 314.062 133.344 314.526 133.904C315.006 134.448 315.254 135.184 315.27 136.112C315.27 136.896 315.046 137.6 314.598 138.224C314.166 138.832 313.534 139.312 312.702 139.664C311.886 140.016 310.934 140.192 309.846 140.192ZM319.845 125.216C319.125 125.216 318.533 125.008 318.069 124.592C317.621 124.16 317.397 123.632 317.397 123.008C317.397 122.368 317.621 121.84 318.069 121.424C318.533 120.992 319.125 120.776 319.845 120.776C320.549 120.776 321.125 120.992 321.573 121.424C322.037 121.84 322.269 122.368 322.269 123.008C322.269 123.632 322.037 124.16 321.573 124.592C321.125 125.008 320.549 125.216 319.845 125.216ZM321.885 126.608V140H317.781V126.608H321.885ZM329.275 136.208L326.611 143.096H323.995L325.387 136.208H329.275ZM33.4653 167.36C34.4413 167.568 35.2253 168.056 35.8173 168.824C36.4093 169.576 36.7053 170.44 36.7053 171.416C36.7053 172.824 36.2093 173.944 35.2173 174.776C34.2413 175.592 32.8733 176 31.1133 176H23.2653V159.152H30.8493C32.5613 159.152 33.8973 159.544 34.8573 160.328C35.8333 161.112 36.3213 162.176 36.3213 163.52C36.3213 164.512 36.0573 165.336 35.5293 165.992C35.0173 166.648 34.3293 167.104 33.4653 167.36ZM27.3693 165.968H30.0573C30.7293 165.968 31.2413 165.824 31.5933 165.536C31.9613 165.232 32.1453 164.792 32.1453 164.216C32.1453 163.64 31.9613 163.2 31.5933 162.896C31.2413 162.592 30.7293 162.44 30.0573 162.44H27.3693V165.968ZM30.3933 172.688C31.0813 172.688 31.6093 172.536 31.9773 172.232C32.3613 171.912 32.5533 171.456 32.5533 170.864C32.5533 170.272 32.3533 169.808 31.9533 169.472C31.5693 169.136 31.0333 168.968 30.3453 168.968H27.3693V172.688H30.3933ZM51.7097 169.088C51.7097 169.472 51.6857 169.872 51.6377 170.288H42.3497C42.4137 171.12 42.6777 171.76 43.1417 172.208C43.6217 172.64 44.2057 172.856 44.8937 172.856C45.9177 172.856 46.6297 172.424 47.0297 171.56H51.3977C51.1737 172.44 50.7657 173.232 50.1737 173.936C49.5977 174.64 48.8697 175.192 47.9897 175.592C47.1097 175.992 46.1257 176.192 45.0377 176.192C43.7257 176.192 42.5577 175.912 41.5337 175.352C40.5097 174.792 39.7097 173.992 39.1337 172.952C38.5577 171.912 38.2697 170.696 38.2697 169.304C38.2697 167.912 38.5497 166.696 39.1097 165.656C39.6857 164.616 40.4857 163.816 41.5097 163.256C42.5337 162.696 43.7097 162.416 45.0377 162.416C46.3337 162.416 47.4857 162.688 48.4937 163.232C49.5017 163.776 50.2857 164.552 50.8457 165.56C51.4217 166.568 51.7097 167.744 51.7097 169.088ZM47.5097 168.008C47.5097 167.304 47.2697 166.744 46.7897 166.328C46.3097 165.912 45.7097 165.704 44.9897 165.704C44.3017 165.704 43.7177 165.904 43.2377 166.304C42.7737 166.704 42.4857 167.272 42.3737 168.008H47.5097ZM57.9787 164.84C58.4587 164.104 59.0587 163.528 59.7787 163.112C60.4987 162.68 61.2987 162.464 62.1787 162.464V166.808H61.0507C60.0267 166.808 59.2587 167.032 58.7467 167.48C58.2347 167.912 57.9787 168.68 57.9787 169.784V176H53.8747V162.608H57.9787V164.84ZM72.3243 176L68.2443 170.384V176H64.1403V158.24H68.2443V168.056L72.3003 162.608H77.3643L71.7963 169.328L77.4123 176H72.3243ZM85.0723 176.192C83.7603 176.192 82.5763 175.912 81.5203 175.352C80.4803 174.792 79.6563 173.992 79.0483 172.952C78.4563 171.912 78.1603 170.696 78.1603 169.304C78.1603 167.928 78.4643 166.72 79.0723 165.68C79.6803 164.624 80.5123 163.816 81.5683 163.256C82.6243 162.696 83.8083 162.416 85.1203 162.416C86.4323 162.416 87.6163 162.696 88.6723 163.256C89.7283 163.816 90.5603 164.624 91.1683 165.68C91.7763 166.72 92.0803 167.928 92.0803 169.304C92.0803 170.68 91.7683 171.896 91.1443 172.952C90.5363 173.992 89.6963 174.792 88.6243 175.352C87.5683 175.912 86.3843 176.192 85.0723 176.192ZM85.0723 172.64C85.8563 172.64 86.5203 172.352 87.0643 171.776C87.6243 171.2 87.9043 170.376 87.9043 169.304C87.9043 168.232 87.6323 167.408 87.0883 166.832C86.5603 166.256 85.9043 165.968 85.1203 165.968C84.3203 165.968 83.6563 166.256 83.1283 166.832C82.6003 167.392 82.3363 168.216 82.3363 169.304C82.3363 170.376 82.5923 171.2 83.1043 171.776C83.6323 172.352 84.2883 172.64 85.0723 172.64ZM98.3615 158.24V176H94.2575V158.24H98.3615ZM100.52 169.28C100.52 167.904 100.776 166.696 101.288 165.656C101.816 164.616 102.528 163.816 103.424 163.256C104.32 162.696 105.32 162.416 106.424 162.416C107.368 162.416 108.192 162.608 108.896 162.992C109.616 163.376 110.168 163.88 110.552 164.504V162.608H114.656V176H110.552V174.104C110.152 174.728 109.592 175.232 108.872 175.616C108.168 176 107.344 176.192 106.4 176.192C105.312 176.192 104.32 175.912 103.424 175.352C102.528 174.776 101.816 173.968 101.288 172.928C100.776 171.872 100.52 170.656 100.52 169.28ZM110.552 169.304C110.552 168.28 110.264 167.472 109.688 166.88C109.128 166.288 108.44 165.992 107.624 165.992C106.808 165.992 106.112 166.288 105.536 166.88C104.976 167.456 104.696 168.256 104.696 169.28C104.696 170.304 104.976 171.12 105.536 171.728C106.112 172.32 106.808 172.616 107.624 172.616C108.44 172.616 109.128 172.32 109.688 171.728C110.264 171.136 110.552 170.328 110.552 169.304ZM121.729 164.504C122.113 163.88 122.665 163.376 123.385 162.992C124.105 162.608 124.929 162.416 125.857 162.416C126.961 162.416 127.961 162.696 128.857 163.256C129.753 163.816 130.457 164.616 130.969 165.656C131.497 166.696 131.761 167.904 131.761 169.28C131.761 170.656 131.497 171.872 130.969 172.928C130.457 173.968 129.753 174.776 128.857 175.352C127.961 175.912 126.961 176.192 125.857 176.192C124.913 176.192 124.089 176.008 123.385 175.64C122.681 175.256 122.129 174.752 121.729 174.128V176H117.625V158.24H121.729V164.504ZM127.585 169.28C127.585 168.256 127.297 167.456 126.721 166.88C126.161 166.288 125.465 165.992 124.633 165.992C123.817 165.992 123.121 166.288 122.545 166.88C121.985 167.472 121.705 168.28 121.705 169.304C121.705 170.328 121.985 171.136 122.545 171.728C123.121 172.32 123.817 172.616 124.633 172.616C125.449 172.616 126.145 172.32 126.721 171.728C127.297 171.12 127.585 170.304 127.585 169.28ZM140.01 176.192C138.698 176.192 137.514 175.912 136.458 175.352C135.418 174.792 134.594 173.992 133.986 172.952C133.394 171.912 133.098 170.696 133.098 169.304C133.098 167.928 133.402 166.72 134.01 165.68C134.618 164.624 135.45 163.816 136.506 163.256C137.562 162.696 138.746 162.416 140.058 162.416C141.37 162.416 142.554 162.696 143.61 163.256C144.666 163.816 145.498 164.624 146.106 165.68C146.714 166.72 147.018 167.928 147.018 169.304C147.018 170.68 146.706 171.896 146.082 172.952C145.474 173.992 144.634 174.792 143.562 175.352C142.506 175.912 141.322 176.192 140.01 176.192ZM140.01 172.64C140.794 172.64 141.458 172.352 142.002 171.776C142.562 171.2 142.842 170.376 142.842 169.304C142.842 168.232 142.57 167.408 142.026 166.832C141.498 166.256 140.842 165.968 140.058 165.968C139.258 165.968 138.594 166.256 138.066 166.832C137.538 167.392 137.274 168.216 137.274 169.304C137.274 170.376 137.53 171.2 138.042 171.776C138.57 172.352 139.226 172.64 140.01 172.64ZM153.299 164.84C153.779 164.104 154.379 163.528 155.099 163.112C155.819 162.68 156.619 162.464 157.499 162.464V166.808H156.371C155.347 166.808 154.579 167.032 154.067 167.48C153.555 167.912 153.299 168.68 153.299 169.784V176H149.195V162.608H153.299V164.84ZM158.645 169.28C158.645 167.904 158.901 166.696 159.413 165.656C159.941 164.616 160.653 163.816 161.549 163.256C162.445 162.696 163.445 162.416 164.549 162.416C165.493 162.416 166.317 162.608 167.021 162.992C167.741 163.376 168.293 163.88 168.677 164.504V162.608H172.781V176H168.677V174.104C168.277 174.728 167.717 175.232 166.997 175.616C166.293 176 165.469 176.192 164.525 176.192C163.437 176.192 162.445 175.912 161.549 175.352C160.653 174.776 159.941 173.968 159.413 172.928C158.901 171.872 158.645 170.656 158.645 169.28ZM168.677 169.304C168.677 168.28 168.389 167.472 167.813 166.88C167.253 166.288 166.565 165.992 165.749 165.992C164.933 165.992 164.237 166.288 163.661 166.88C163.101 167.456 162.821 168.256 162.821 169.28C162.821 170.304 163.101 171.12 163.661 171.728C164.237 172.32 164.933 172.616 165.749 172.616C166.565 172.616 167.253 172.32 167.813 171.728C168.389 171.136 168.677 170.328 168.677 169.304ZM181.198 176.192C180.03 176.192 178.99 175.992 178.078 175.592C177.166 175.192 176.446 174.648 175.918 173.96C175.39 173.256 175.094 172.472 175.03 171.608H179.086C179.134 172.072 179.35 172.448 179.734 172.736C180.118 173.024 180.59 173.168 181.15 173.168C181.662 173.168 182.054 173.072 182.326 172.88C182.614 172.672 182.758 172.408 182.758 172.088C182.758 171.704 182.558 171.424 182.158 171.248C181.758 171.056 181.11 170.848 180.214 170.624C179.254 170.4 178.454 170.168 177.814 169.928C177.174 169.672 176.622 169.28 176.158 168.752C175.694 168.208 175.462 167.48 175.462 166.568C175.462 165.8 175.67 165.104 176.086 164.48C176.518 163.84 177.142 163.336 177.958 162.968C178.79 162.6 179.774 162.416 180.91 162.416C182.59 162.416 183.91 162.832 184.87 163.664C185.846 164.496 186.406 165.6 186.55 166.976H182.758C182.694 166.512 182.486 166.144 182.134 165.872C181.798 165.6 181.35 165.464 180.79 165.464C180.31 165.464 179.942 165.56 179.686 165.752C179.43 165.928 179.302 166.176 179.302 166.496C179.302 166.88 179.502 167.168 179.902 167.36C180.318 167.552 180.958 167.744 181.822 167.936C182.814 168.192 183.622 168.448 184.246 168.704C184.87 168.944 185.414 169.344 185.878 169.904C186.358 170.448 186.606 171.184 186.622 172.112C186.622 172.896 186.398 173.6 185.95 174.224C185.518 174.832 184.886 175.312 184.054 175.664C183.238 176.016 182.286 176.192 181.198 176.192ZM191.197 161.216C190.477 161.216 189.885 161.008 189.421 160.592C188.973 160.16 188.749 159.632 188.749 159.008C188.749 158.368 188.973 157.84 189.421 157.424C189.885 156.992 190.477 156.776 191.197 156.776C191.901 156.776 192.477 156.992 192.925 157.424C193.389 157.84 193.621 158.368 193.621 159.008C193.621 159.632 193.389 160.16 192.925 160.592C192.477 161.008 191.901 161.216 191.197 161.216ZM193.237 162.608V176H189.133V162.608H193.237ZM214.185 176L212.625 174.488C211.073 175.672 209.217 176.264 207.057 176.264C205.761 176.264 204.633 176.056 203.673 175.64C202.713 175.208 201.969 174.608 201.441 173.84C200.929 173.056 200.673 172.144 200.673 171.104C200.673 170.048 200.953 169.096 201.513 168.248C202.089 167.384 202.945 166.68 204.081 166.136C203.665 165.624 203.369 165.136 203.193 164.672C203.017 164.192 202.929 163.672 202.929 163.112C202.929 162.312 203.137 161.584 203.553 160.928C203.969 160.272 204.569 159.76 205.353 159.392C206.153 159.008 207.097 158.816 208.185 158.816C209.289 158.816 210.225 159.016 210.993 159.416C211.761 159.816 212.337 160.352 212.721 161.024C213.105 161.696 213.281 162.432 213.249 163.232H209.385C209.401 162.8 209.289 162.472 209.049 162.248C208.825 162.008 208.521 161.888 208.137 161.888C207.753 161.888 207.433 162 207.177 162.224C206.921 162.448 206.793 162.736 206.793 163.088C206.793 163.424 206.897 163.776 207.105 164.144C207.329 164.512 207.673 164.936 208.137 165.416L212.241 169.424C212.273 169.344 212.313 169.248 212.361 169.136C212.425 169.024 212.489 168.896 212.553 168.752L213.441 167.24H217.545L216.393 169.328C215.961 170.272 215.465 171.168 214.905 172.016L218.961 176H214.185ZM207.249 172.952C208.321 172.952 209.273 172.648 210.105 172.04L206.361 168.416C205.209 169.008 204.633 169.808 204.633 170.816C204.633 171.424 204.865 171.936 205.329 172.352C205.809 172.752 206.449 172.952 207.249 172.952ZM235.731 167.36C236.707 167.568 237.491 168.056 238.083 168.824C238.675 169.576 238.971 170.44 238.971 171.416C238.971 172.824 238.475 173.944 237.483 174.776C236.507 175.592 235.139 176 233.379 176H225.531V159.152H233.115C234.827 159.152 236.163 159.544 237.123 160.328C238.099 161.112 238.587 162.176 238.587 163.52C238.587 164.512 238.323 165.336 237.795 165.992C237.283 166.648 236.595 167.104 235.731 167.36ZM229.635 165.968H232.323C232.995 165.968 233.507 165.824 233.859 165.536C234.227 165.232 234.411 164.792 234.411 164.216C234.411 163.64 234.227 163.2 233.859 162.896C233.507 162.592 232.995 162.44 232.323 162.44H229.635V165.968ZM232.659 172.688C233.347 172.688 233.875 172.536 234.243 172.232C234.627 171.912 234.819 171.456 234.819 170.864C234.819 170.272 234.619 169.808 234.219 169.472C233.835 169.136 233.299 168.968 232.611 168.968H229.635V172.688H232.659ZM253.975 169.088C253.975 169.472 253.951 169.872 253.903 170.288H244.615C244.679 171.12 244.943 171.76 245.407 172.208C245.887 172.64 246.471 172.856 247.159 172.856C248.183 172.856 248.895 172.424 249.295 171.56H253.663C253.439 172.44 253.031 173.232 252.439 173.936C251.863 174.64 251.135 175.192 250.255 175.592C249.375 175.992 248.391 176.192 247.303 176.192C245.991 176.192 244.823 175.912 243.799 175.352C242.775 174.792 241.975 173.992 241.399 172.952C240.823 171.912 240.535 170.696 240.535 169.304C240.535 167.912 240.815 166.696 241.375 165.656C241.951 164.616 242.751 163.816 243.775 163.256C244.799 162.696 245.975 162.416 247.303 162.416C248.599 162.416 249.751 162.688 250.759 163.232C251.767 163.776 252.551 164.552 253.111 165.56C253.687 166.568 253.975 167.744 253.975 169.088ZM249.775 168.008C249.775 167.304 249.535 166.744 249.055 166.328C248.575 165.912 247.975 165.704 247.255 165.704C246.567 165.704 245.983 165.904 245.503 166.304C245.039 166.704 244.751 167.272 244.639 168.008H249.775ZM260.244 164.84C260.724 164.104 261.324 163.528 262.044 163.112C262.764 162.68 263.564 162.464 264.444 162.464V166.808H263.316C262.292 166.808 261.524 167.032 261.012 167.48C260.5 167.912 260.244 168.68 260.244 169.784V176H256.14V162.608H260.244V164.84ZM274.59 176L270.51 170.384V176H266.406V158.24H270.51V168.056L274.566 162.608H279.63L274.062 169.328L279.678 176H274.59ZM287.338 176.192C286.026 176.192 284.842 175.912 283.786 175.352C282.746 174.792 281.922 173.992 281.314 172.952C280.722 171.912 280.426 170.696 280.426 169.304C280.426 167.928 280.73 166.72 281.338 165.68C281.946 164.624 282.778 163.816 283.834 163.256C284.89 162.696 286.074 162.416 287.386 162.416C288.698 162.416 289.882 162.696 290.938 163.256C291.994 163.816 292.826 164.624 293.434 165.68C294.042 166.72 294.346 167.928 294.346 169.304C294.346 170.68 294.034 171.896 293.41 172.952C292.802 173.992 291.962 174.792 290.89 175.352C289.834 175.912 288.65 176.192 287.338 176.192ZM287.338 172.64C288.122 172.64 288.786 172.352 289.33 171.776C289.89 171.2 290.17 170.376 290.17 169.304C290.17 168.232 289.898 167.408 289.354 166.832C288.826 166.256 288.17 165.968 287.386 165.968C286.586 165.968 285.922 166.256 285.394 166.832C284.866 167.392 284.602 168.216 284.602 169.304C284.602 170.376 284.858 171.2 285.37 171.776C285.898 172.352 286.554 172.64 287.338 172.64ZM304.683 162.464C306.251 162.464 307.499 162.976 308.427 164C309.371 165.008 309.843 166.4 309.843 168.176V176H305.763V168.728C305.763 167.832 305.531 167.136 305.067 166.64C304.603 166.144 303.979 165.896 303.195 165.896C302.411 165.896 301.787 166.144 301.323 166.64C300.859 167.136 300.627 167.832 300.627 168.728V176H296.523V162.608H300.627V164.384C301.043 163.792 301.603 163.328 302.307 162.992C303.011 162.64 303.803 162.464 304.683 162.464ZM320.159 172.52V176H318.071C316.583 176 315.423 175.64 314.591 174.92C313.759 174.184 313.343 172.992 313.343 171.344V166.016H311.711V162.608H313.343V159.344H317.447V162.608H320.135V166.016H317.447V171.392C317.447 171.792 317.543 172.08 317.735 172.256C317.927 172.432 318.247 172.52 318.695 172.52H320.159ZM326.549 164.84C327.029 164.104 327.629 163.528 328.349 163.112C329.069 162.68 329.869 162.464 330.749 162.464V166.808H329.621C328.597 166.808 327.829 167.032 327.317 167.48C326.805 167.912 326.549 168.68 326.549 169.784V176H322.445V162.608H326.549V164.84ZM334.775 161.216C334.055 161.216 333.463 161.008 332.999 160.592C332.551 160.16 332.327 159.632 332.327 159.008C332.327 158.368 332.551 157.84 332.999 157.424C333.463 156.992 334.055 156.776 334.775 156.776C335.479 156.776 336.055 156.992 336.503 157.424C336.967 157.84 337.199 158.368 337.199 159.008C337.199 159.632 336.967 160.16 336.503 160.592C336.055 161.008 335.479 161.216 334.775 161.216ZM336.815 162.608V176H332.711V162.608H336.815ZM343.893 164.504C344.277 163.88 344.829 163.376 345.549 162.992C346.269 162.608 347.093 162.416 348.021 162.416C349.125 162.416 350.125 162.696 351.021 163.256C351.917 163.816 352.621 164.616 353.133 165.656C353.661 166.696 353.925 167.904 353.925 169.28C353.925 170.656 353.661 171.872 353.133 172.928C352.621 173.968 351.917 174.776 351.021 175.352C350.125 175.912 349.125 176.192 348.021 176.192C347.077 176.192 346.253 176.008 345.549 175.64C344.845 175.256 344.293 174.752 343.893 174.128V176H339.789V158.24H343.893V164.504ZM349.749 169.28C349.749 168.256 349.461 167.456 348.885 166.88C348.325 166.288 347.629 165.992 346.797 165.992C345.981 165.992 345.285 166.288 344.709 166.88C344.149 167.472 343.869 168.28 343.869 169.304C343.869 170.328 344.149 171.136 344.709 171.728C345.285 172.32 345.981 172.616 346.797 172.616C347.613 172.616 348.309 172.32 348.885 171.728C349.461 171.12 349.749 170.304 349.749 169.28ZM369.302 162.608V176H365.198V174.176C364.782 174.768 364.214 175.248 363.494 175.616C362.79 175.968 362.006 176.144 361.142 176.144C360.118 176.144 359.214 175.92 358.43 175.472C357.646 175.008 357.038 174.344 356.606 173.48C356.174 172.616 355.958 171.6 355.958 170.432V162.608H360.038V169.88C360.038 170.776 360.27 171.472 360.734 171.968C361.198 172.464 361.822 172.712 362.606 172.712C363.406 172.712 364.038 172.464 364.502 171.968C364.966 171.472 365.198 170.776 365.198 169.88V162.608H369.302ZM377.698 176.192C376.53 176.192 375.49 175.992 374.578 175.592C373.666 175.192 372.946 174.648 372.418 173.96C371.89 173.256 371.594 172.472 371.53 171.608H375.586C375.634 172.072 375.85 172.448 376.234 172.736C376.618 173.024 377.09 173.168 377.65 173.168C378.162 173.168 378.554 173.072 378.826 172.88C379.114 172.672 379.258 172.408 379.258 172.088C379.258 171.704 379.058 171.424 378.658 171.248C378.258 171.056 377.61 170.848 376.714 170.624C375.754 170.4 374.954 170.168 374.314 169.928C373.674 169.672 373.122 169.28 372.658 168.752C372.194 168.208 371.962 167.48 371.962 166.568C371.962 165.8 372.17 165.104 372.586 164.48C373.018 163.84 373.642 163.336 374.458 162.968C375.29 162.6 376.274 162.416 377.41 162.416C379.09 162.416 380.41 162.832 381.37 163.664C382.346 164.496 382.906 165.6 383.05 166.976H379.258C379.194 166.512 378.986 166.144 378.634 165.872C378.298 165.6 377.85 165.464 377.29 165.464C376.81 165.464 376.442 165.56 376.186 165.752C375.93 165.928 375.802 166.176 375.802 166.496C375.802 166.88 376.002 167.168 376.402 167.36C376.818 167.552 377.458 167.744 378.322 167.936C379.314 168.192 380.122 168.448 380.746 168.704C381.37 168.944 381.914 169.344 382.378 169.904C382.858 170.448 383.106 171.184 383.122 172.112C383.122 172.896 382.898 173.6 382.45 174.224C382.018 174.832 381.386 175.312 380.554 175.664C379.738 176.016 378.786 176.192 377.698 176.192ZM387.697 161.216C386.977 161.216 386.385 161.008 385.921 160.592C385.473 160.16 385.249 159.632 385.249 159.008C385.249 158.368 385.473 157.84 385.921 157.424C386.385 156.992 386.977 156.776 387.697 156.776C388.401 156.776 388.977 156.992 389.425 157.424C389.889 157.84 390.121 158.368 390.121 159.008C390.121 159.632 389.889 160.16 389.425 160.592C388.977 161.008 388.401 161.216 387.697 161.216ZM389.737 162.608V176H385.633V162.608H389.737Z" fill="white"/>
<path d="M73.478 248.454V249.786H68.024V254.016H72.452V255.348H68.024V261H66.386V248.454H73.478ZM79.7583 261.162C78.8343 261.162 77.9943 260.952 77.2383 260.532C76.4943 260.112 75.9063 259.518 75.4743 258.75C75.0543 257.97 74.8443 257.07 74.8443 256.05C74.8443 255.042 75.0603 254.154 75.4923 253.386C75.9363 252.606 76.5363 252.012 77.2923 251.604C78.0483 251.184 78.8943 250.974 79.8303 250.974C80.7663 250.974 81.6123 251.184 82.3683 251.604C83.1243 252.012 83.7183 252.6 84.1503 253.368C84.5943 254.136 84.8163 255.03 84.8163 256.05C84.8163 257.07 84.5883 257.97 84.1323 258.75C83.6883 259.518 83.0823 260.112 82.3143 260.532C81.5463 260.952 80.6943 261.162 79.7583 261.162ZM79.7583 259.722C80.3463 259.722 80.8983 259.584 81.4143 259.308C81.9303 259.032 82.3443 258.618 82.6563 258.066C82.9803 257.514 83.1423 256.842 83.1423 256.05C83.1423 255.258 82.9863 254.586 82.6743 254.034C82.3623 253.482 81.9543 253.074 81.4503 252.81C80.9463 252.534 80.4003 252.396 79.8123 252.396C79.2123 252.396 78.6603 252.534 78.1563 252.81C77.6643 253.074 77.2683 253.482 76.9683 254.034C76.6683 254.586 76.5183 255.258 76.5183 256.05C76.5183 256.854 76.6623 257.532 76.9503 258.084C77.2503 258.636 77.6463 259.05 78.1383 259.326C78.6303 259.59 79.1703 259.722 79.7583 259.722ZM88.608 252.738C88.896 252.174 89.304 251.736 89.832 251.424C90.372 251.112 91.026 250.956 91.794 250.956V252.648H91.362C89.526 252.648 88.608 253.644 88.608 255.636V261H86.97V251.136H88.608V252.738ZM102.433 251.136V261H100.795V259.542C100.483 260.046 100.045 260.442 99.4808 260.73C98.9288 261.006 98.3168 261.144 97.6448 261.144C96.8768 261.144 96.1868 260.988 95.5748 260.676C94.9628 260.352 94.4768 259.872 94.1168 259.236C93.7688 258.6 93.5948 257.826 93.5948 256.914V251.136H95.2148V256.698C95.2148 257.67 95.4608 258.42 95.9528 258.948C96.4448 259.464 97.1168 259.722 97.9688 259.722C98.8448 259.722 99.5348 259.452 100.039 258.912C100.543 258.372 100.795 257.586 100.795 256.554V251.136H102.433ZM117.061 250.956C117.829 250.956 118.513 251.118 119.113 251.442C119.713 251.754 120.187 252.228 120.535 252.864C120.883 253.5 121.057 254.274 121.057 255.186V261H119.437V255.42C119.437 254.436 119.191 253.686 118.699 253.17C118.219 252.642 117.565 252.378 116.737 252.378C115.885 252.378 115.207 252.654 114.703 253.206C114.199 253.746 113.947 254.532 113.947 255.564V261H112.327V255.42C112.327 254.436 112.081 253.686 111.589 253.17C111.109 252.642 110.455 252.378 109.627 252.378C108.775 252.378 108.097 252.654 107.593 253.206C107.089 253.746 106.837 254.532 106.837 255.564V261H105.199V251.136H106.837V252.558C107.161 252.042 107.593 251.646 108.133 251.37C108.685 251.094 109.291 250.956 109.951 250.956C110.779 250.956 111.511 251.142 112.147 251.514C112.783 251.886 113.257 252.432 113.569 253.152C113.845 252.456 114.301 251.916 114.937 251.532C115.573 251.148 116.281 250.956 117.061 250.956ZM135.346 261L130.18 255.276V261H128.542V248.454H130.18V254.268L135.364 248.454H137.434L131.746 254.736L137.488 261H135.346ZM148.318 255.69C148.318 256.002 148.3 256.332 148.264 256.68H140.38C140.44 257.652 140.77 258.414 141.37 258.966C141.982 259.506 142.72 259.776 143.584 259.776C144.292 259.776 144.88 259.614 145.348 259.29C145.828 258.954 146.164 258.51 146.356 257.958H148.12C147.856 258.906 147.328 259.68 146.536 260.28C145.744 260.868 144.76 261.162 143.584 261.162C142.648 261.162 141.808 260.952 141.064 260.532C140.332 260.112 139.756 259.518 139.336 258.75C138.916 257.97 138.706 257.07 138.706 256.05C138.706 255.03 138.91 254.136 139.318 253.368C139.726 252.6 140.296 252.012 141.028 251.604C141.772 251.184 142.624 250.974 143.584 250.974C144.52 250.974 145.348 251.178 146.068 251.586C146.788 251.994 147.34 252.558 147.724 253.278C148.12 253.986 148.318 254.79 148.318 255.69ZM146.626 255.348C146.626 254.724 146.488 254.19 146.212 253.746C145.936 253.29 145.558 252.948 145.078 252.72C144.61 252.48 144.088 252.36 143.512 252.36C142.684 252.36 141.976 252.624 141.388 253.152C140.812 253.68 140.482 254.412 140.398 255.348H146.626ZM163.62 251.136L160.542 261H158.85L156.474 253.17L154.098 261H152.406L149.31 251.136H150.984L153.252 259.416L155.7 251.136H157.374L159.768 259.434L162 251.136H163.62ZM166.091 249.534C165.779 249.534 165.515 249.426 165.299 249.21C165.083 248.994 164.975 248.73 164.975 248.418C164.975 248.106 165.083 247.842 165.299 247.626C165.515 247.41 165.779 247.302 166.091 247.302C166.391 247.302 166.643 247.41 166.847 247.626C167.063 247.842 167.171 248.106 167.171 248.418C167.171 248.73 167.063 248.994 166.847 249.21C166.643 249.426 166.391 249.534 166.091 249.534ZM166.883 251.136V261H165.245V251.136H166.883ZM171.313 252.738C171.601 252.174 172.009 251.736 172.537 251.424C173.077 251.112 173.731 250.956 174.499 250.956V252.648H174.067C172.231 252.648 171.313 253.644 171.313 255.636V261H169.675V251.136H171.313V252.738ZM175.778 256.032C175.778 255.024 175.982 254.142 176.39 253.386C176.798 252.618 177.356 252.024 178.064 251.604C178.784 251.184 179.582 250.974 180.458 250.974C181.322 250.974 182.072 251.16 182.708 251.532C183.344 251.904 183.818 252.372 184.13 252.936V251.136H185.786V261H184.13V259.164C183.806 259.74 183.32 260.22 182.672 260.604C182.036 260.976 181.292 261.162 180.44 261.162C179.564 261.162 178.772 260.946 178.064 260.514C177.356 260.082 176.798 259.476 176.39 258.696C175.982 257.916 175.778 257.028 175.778 256.032ZM184.13 256.05C184.13 255.306 183.98 254.658 183.68 254.106C183.38 253.554 182.972 253.134 182.456 252.846C181.952 252.546 181.394 252.396 180.782 252.396C180.17 252.396 179.612 252.54 179.108 252.828C178.604 253.116 178.202 253.536 177.902 254.088C177.602 254.64 177.452 255.288 177.452 256.032C177.452 256.788 177.602 257.448 177.902 258.012C178.202 258.564 178.604 258.99 179.108 259.29C179.612 259.578 180.17 259.722 180.782 259.722C181.394 259.722 181.952 259.578 182.456 259.29C182.972 258.99 183.38 258.564 183.68 258.012C183.98 257.448 184.13 256.794 184.13 256.05ZM197.302 251.136V261H195.664V259.542C195.352 260.046 194.914 260.442 194.35 260.73C193.798 261.006 193.186 261.144 192.514 261.144C191.746 261.144 191.056 260.988 190.444 260.676C189.832 260.352 189.346 259.872 188.986 259.236C188.638 258.6 188.464 257.826 188.464 256.914V251.136H190.084V256.698C190.084 257.67 190.33 258.42 190.822 258.948C191.314 259.464 191.986 259.722 192.838 259.722C193.714 259.722 194.404 259.452 194.908 258.912C195.412 258.372 195.664 257.586 195.664 256.554V251.136H197.302ZM203.56 261.162C202.804 261.162 202.126 261.036 201.526 260.784C200.926 260.52 200.452 260.16 200.104 259.704C199.756 259.236 199.564 258.702 199.528 258.102H201.22C201.268 258.594 201.496 258.996 201.904 259.308C202.324 259.62 202.87 259.776 203.542 259.776C204.166 259.776 204.658 259.638 205.018 259.362C205.378 259.086 205.558 258.738 205.558 258.318C205.558 257.886 205.366 257.568 204.982 257.364C204.598 257.148 204.004 256.938 203.2 256.734C202.468 256.542 201.868 256.35 201.4 256.158C200.944 255.954 200.548 255.66 200.212 255.276C199.888 254.88 199.726 254.364 199.726 253.728C199.726 253.224 199.876 252.762 200.176 252.342C200.476 251.922 200.902 251.592 201.454 251.352C202.006 251.1 202.636 250.974 203.344 250.974C204.436 250.974 205.318 251.25 205.99 251.802C206.662 252.354 207.022 253.11 207.07 254.07H205.432C205.396 253.554 205.186 253.14 204.802 252.828C204.43 252.516 203.926 252.36 203.29 252.36C202.702 252.36 202.234 252.486 201.886 252.738C201.538 252.99 201.364 253.32 201.364 253.728C201.364 254.052 201.466 254.322 201.67 254.538C201.886 254.742 202.15 254.91 202.462 255.042C202.786 255.162 203.23 255.3 203.794 255.456C204.502 255.648 205.078 255.84 205.522 256.032C205.966 256.212 206.344 256.488 206.656 256.86C206.98 257.232 207.148 257.718 207.16 258.318C207.16 258.858 207.01 259.344 206.71 259.776C206.41 260.208 205.984 260.55 205.432 260.802C204.892 261.042 204.268 261.162 203.56 261.162ZM208.86 256.032C208.86 255.024 209.064 254.142 209.472 253.386C209.88 252.618 210.438 252.024 211.146 251.604C211.866 251.184 212.664 250.974 213.54 250.974C214.404 250.974 215.154 251.16 215.79 251.532C216.426 251.904 216.9 252.372 217.212 252.936V251.136H218.868V261H217.212V259.164C216.888 259.74 216.402 260.22 215.754 260.604C215.118 260.976 214.374 261.162 213.522 261.162C212.646 261.162 211.854 260.946 211.146 260.514C210.438 260.082 209.88 259.476 209.472 258.696C209.064 257.916 208.86 257.028 208.86 256.032ZM217.212 256.05C217.212 255.306 217.062 254.658 216.762 254.106C216.462 253.554 216.054 253.134 215.538 252.846C215.034 252.546 214.476 252.396 213.864 252.396C213.252 252.396 212.694 252.54 212.19 252.828C211.686 253.116 211.284 253.536 210.984 254.088C210.684 254.64 210.534 255.288 210.534 256.032C210.534 256.788 210.684 257.448 210.984 258.012C211.284 258.564 211.686 258.99 212.19 259.29C212.694 259.578 213.252 259.722 213.864 259.722C214.476 259.722 215.034 259.578 215.538 259.29C216.054 258.99 216.462 258.564 216.762 258.012C217.062 257.448 217.212 256.794 217.212 256.05ZM226.532 250.956C227.276 250.956 227.948 251.118 228.548 251.442C229.148 251.754 229.616 252.228 229.952 252.864C230.3 253.5 230.474 254.274 230.474 255.186V261H228.854V255.42C228.854 254.436 228.608 253.686 228.116 253.17C227.624 252.642 226.952 252.378 226.1 252.378C225.236 252.378 224.546 252.648 224.03 253.188C223.526 253.728 223.274 254.514 223.274 255.546V261H221.636V247.68H223.274V252.54C223.598 252.036 224.042 251.646 224.606 251.37C225.182 251.094 225.824 250.956 226.532 250.956ZM232.538 256.032C232.538 255.024 232.742 254.142 233.15 253.386C233.558 252.618 234.116 252.024 234.824 251.604C235.544 251.184 236.342 250.974 237.218 250.974C238.082 250.974 238.832 251.16 239.468 251.532C240.104 251.904 240.578 252.372 240.89 252.936V251.136H242.546V261H240.89V259.164C240.566 259.74 240.08 260.22 239.432 260.604C238.796 260.976 238.052 261.162 237.2 261.162C236.324 261.162 235.532 260.946 234.824 260.514C234.116 260.082 233.558 259.476 233.15 258.696C232.742 257.916 232.538 257.028 232.538 256.032ZM240.89 256.05C240.89 255.306 240.74 254.658 240.44 254.106C240.14 253.554 239.732 253.134 239.216 252.846C238.712 252.546 238.154 252.396 237.542 252.396C236.93 252.396 236.372 252.54 235.868 252.828C235.364 253.116 234.962 253.536 234.662 254.088C234.362 254.64 234.212 255.288 234.212 256.032C234.212 256.788 234.362 257.448 234.662 258.012C234.962 258.564 235.364 258.99 235.868 259.29C236.372 259.578 236.93 259.722 237.542 259.722C238.154 259.722 238.712 259.578 239.216 259.29C239.732 258.99 240.14 258.564 240.44 258.012C240.74 257.448 240.89 256.794 240.89 256.05ZM244.702 256.032C244.702 255.024 244.906 254.142 245.314 253.386C245.722 252.618 246.28 252.024 246.988 251.604C247.708 251.184 248.506 250.974 249.382 250.974C250.246 250.974 250.996 251.16 251.632 251.532C252.268 251.904 252.742 252.372 253.054 252.936V251.136H254.71V261H253.054V259.164C252.73 259.74 252.244 260.22 251.596 260.604C250.96 260.976 250.216 261.162 249.364 261.162C248.488 261.162 247.696 260.946 246.988 260.514C246.28 260.082 245.722 259.476 245.314 258.696C244.906 257.916 244.702 257.028 244.702 256.032ZM253.054 256.05C253.054 255.306 252.904 254.658 252.604 254.106C252.304 253.554 251.896 253.134 251.38 252.846C250.876 252.546 250.318 252.396 249.706 252.396C249.094 252.396 248.536 252.54 248.032 252.828C247.528 253.116 247.126 253.536 246.826 254.088C246.526 254.64 246.376 255.288 246.376 256.032C246.376 256.788 246.526 257.448 246.826 258.012C247.126 258.564 247.528 258.99 248.032 259.29C248.536 259.578 249.094 259.722 249.706 259.722C250.318 259.722 250.876 259.578 251.38 259.29C251.896 258.99 252.304 258.564 252.604 258.012C252.904 257.448 253.054 256.794 253.054 256.05ZM262.284 250.956C263.484 250.956 264.456 251.322 265.2 252.054C265.944 252.774 266.316 253.818 266.316 255.186V261H264.696V255.42C264.696 254.436 264.45 253.686 263.958 253.17C263.466 252.642 262.794 252.378 261.942 252.378C261.078 252.378 260.388 252.648 259.872 253.188C259.368 253.728 259.116 254.514 259.116 255.546V261H257.478V251.136H259.116V252.54C259.44 252.036 259.878 251.646 260.43 251.37C260.994 251.094 261.612 250.956 262.284 250.956ZM282.178 252.126C282.178 253.17 281.818 254.04 281.098 254.736C280.39 255.42 279.304 255.762 277.84 255.762H275.428V261H273.79V248.454H277.84C279.256 248.454 280.33 248.796 281.062 249.48C281.806 250.164 282.178 251.046 282.178 252.126ZM277.84 254.412C278.752 254.412 279.424 254.214 279.856 253.818C280.288 253.422 280.504 252.858 280.504 252.126C280.504 250.578 279.616 249.804 277.84 249.804H275.428V254.412H277.84ZM293.214 255.69C293.214 256.002 293.196 256.332 293.16 256.68H285.276C285.336 257.652 285.666 258.414 286.266 258.966C286.878 259.506 287.616 259.776 288.48 259.776C289.188 259.776 289.776 259.614 290.244 259.29C290.724 258.954 291.06 258.51 291.252 257.958H293.016C292.752 258.906 292.224 259.68 291.432 260.28C290.64 260.868 289.656 261.162 288.48 261.162C287.544 261.162 286.704 260.952 285.96 260.532C285.228 260.112 284.652 259.518 284.232 258.75C283.812 257.97 283.602 257.07 283.602 256.05C283.602 255.03 283.806 254.136 284.214 253.368C284.622 252.6 285.192 252.012 285.924 251.604C286.668 251.184 287.52 250.974 288.48 250.974C289.416 250.974 290.244 251.178 290.964 251.586C291.684 251.994 292.236 252.558 292.62 253.278C293.016 253.986 293.214 254.79 293.214 255.69ZM291.522 255.348C291.522 254.724 291.384 254.19 291.108 253.746C290.832 253.29 290.454 252.948 289.974 252.72C289.506 252.48 288.984 252.36 288.408 252.36C287.58 252.36 286.872 252.624 286.284 253.152C285.708 253.68 285.378 254.412 285.294 255.348H291.522ZM307.238 250.956C308.006 250.956 308.69 251.118 309.29 251.442C309.89 251.754 310.364 252.228 310.712 252.864C311.06 253.5 311.234 254.274 311.234 255.186V261H309.614V255.42C309.614 254.436 309.368 253.686 308.876 253.17C308.396 252.642 307.742 252.378 306.914 252.378C306.062 252.378 305.384 252.654 304.88 253.206C304.376 253.746 304.124 254.532 304.124 255.564V261H302.504V255.42C302.504 254.436 302.258 253.686 301.766 253.17C301.286 252.642 300.632 252.378 299.804 252.378C298.952 252.378 298.274 252.654 297.77 253.206C297.266 253.746 297.014 254.532 297.014 255.564V261H295.376V251.136H297.014V252.558C297.338 252.042 297.77 251.646 298.31 251.37C298.862 251.094 299.468 250.956 300.128 250.956C300.956 250.956 301.688 251.142 302.324 251.514C302.96 251.886 303.434 252.432 303.746 253.152C304.022 252.456 304.478 251.916 305.114 251.532C305.75 251.148 306.458 250.956 307.238 250.956ZM322.669 251.136V261H321.031V259.542C320.719 260.046 320.281 260.442 319.717 260.73C319.165 261.006 318.553 261.144 317.881 261.144C317.113 261.144 316.423 260.988 315.811 260.676C315.199 260.352 314.713 259.872 314.353 259.236C314.005 258.6 313.831 257.826 313.831 256.914V251.136H315.451V256.698C315.451 257.67 315.697 258.42 316.189 258.948C316.681 259.464 317.353 259.722 318.205 259.722C319.081 259.722 319.771 259.452 320.275 258.912C320.779 258.372 321.031 257.586 321.031 256.554V251.136H322.669ZM324.823 256.032C324.823 255.024 325.027 254.142 325.435 253.386C325.843 252.618 326.401 252.024 327.109 251.604C327.829 251.184 328.633 250.974 329.521 250.974C330.289 250.974 331.003 251.154 331.663 251.514C332.323 251.862 332.827 252.324 333.175 252.9V247.68H334.831V261H333.175V259.146C332.851 259.734 332.371 260.22 331.735 260.604C331.099 260.976 330.355 261.162 329.503 261.162C328.627 261.162 327.829 260.946 327.109 260.514C326.401 260.082 325.843 259.476 325.435 258.696C325.027 257.916 324.823 257.028 324.823 256.032ZM333.175 256.05C333.175 255.306 333.025 254.658 332.725 254.106C332.425 253.554 332.017 253.134 331.501 252.846C330.997 252.546 330.439 252.396 329.827 252.396C329.215 252.396 328.657 252.54 328.153 252.828C327.649 253.116 327.247 253.536 326.947 254.088C326.647 254.64 326.497 255.288 326.497 256.032C326.497 256.788 326.647 257.448 326.947 258.012C327.247 258.564 327.649 258.99 328.153 259.29C328.657 259.578 329.215 259.722 329.827 259.722C330.439 259.722 330.997 259.578 331.501 259.29C332.017 258.99 332.425 258.564 332.725 258.012C333.025 257.448 333.175 256.794 333.175 256.05ZM336.987 256.032C336.987 255.024 337.191 254.142 337.599 253.386C338.007 252.618 338.565 252.024 339.273 251.604C339.993 251.184 340.791 250.974 341.667 250.974C342.531 250.974 343.281 251.16 343.917 251.532C344.553 251.904 345.027 252.372 345.339 252.936V251.136H346.995V261H345.339V259.164C345.015 259.74 344.529 260.22 343.881 260.604C343.245 260.976 342.501 261.162 341.649 261.162C340.773 261.162 339.981 260.946 339.273 260.514C338.565 260.082 338.007 259.476 337.599 258.696C337.191 257.916 336.987 257.028 336.987 256.032ZM345.339 256.05C345.339 255.306 345.189 254.658 344.889 254.106C344.589 253.554 344.181 253.134 343.665 252.846C343.161 252.546 342.603 252.396 341.991 252.396C341.379 252.396 340.821 252.54 340.317 252.828C339.813 253.116 339.411 253.536 339.111 254.088C338.811 254.64 338.661 255.288 338.661 256.032C338.661 256.788 338.811 257.448 339.111 258.012C339.411 258.564 339.813 258.99 340.317 259.29C340.821 259.578 341.379 259.722 341.991 259.722C342.603 259.722 343.161 259.578 343.665 259.29C344.181 258.99 344.589 258.564 344.889 258.012C345.189 257.448 345.339 256.794 345.339 256.05Z" fill="white"/>
</g>
<path d="M51.5503 15.9123C52.1566 12.6413 56.8434 12.6413 57.4497 15.9123L58.9816 24.1756C59.4153 26.5154 62.2701 27.443 63.9963 25.805L70.0926 20.0202C72.5058 17.7304 76.2975 20.4852 74.8654 23.4878L71.2476 31.0734C70.2232 33.2212 71.9876 35.6497 74.3469 35.3392L82.6791 34.2425C85.9773 33.8084 87.4256 38.2658 84.5022 39.8532L77.1167 43.8636C75.0254 44.9991 75.0254 48.0009 77.1167 49.1364L84.5022 53.1468C87.4256 54.7342 85.9773 59.1916 82.6791 58.7575L74.3469 57.6608C71.9876 57.3503 70.2232 59.7788 71.2476 61.9266L74.8654 69.5122C76.2975 72.5148 72.5058 75.2696 70.0926 72.9798L63.9963 67.195C62.2701 65.557 59.4153 66.4846 58.9816 68.8244L57.4497 77.0877C56.8434 80.3587 52.1566 80.3587 51.5503 77.0877L50.0184 68.8244C49.5847 66.4846 46.7299 65.557 45.0037 67.195L38.9074 72.9798C36.4942 75.2696 32.7025 72.5148 34.1346 69.5122L37.7524 61.9266C38.7768 59.7788 37.0124 57.3503 34.6531 57.6608L26.3209 58.7575C23.0227 59.1916 21.5744 54.7342 24.4978 53.1468L31.8833 49.1364C33.9746 48.0009 33.9746 44.9991 31.8833 43.8636L24.4978 39.8532C21.5744 38.2658 23.0227 33.8084 26.3209 34.2425L34.6531 35.3392C37.0124 35.6497 38.7768 33.2212 37.7524 31.0734L34.1346 23.4878C32.7025 20.4852 36.4942 17.7304 38.9074 20.0202L45.0037 25.805C46.7299 27.443 49.5847 26.5154 50.0184 24.1756L51.5503 15.9123Z" fill="#DD4C44"/>
<path d="M386.623 487.275C381.003 488.781 375.088 488.795 369.46 487.315C363.833 485.836 358.689 482.914 354.537 478.839C350.384 474.763 347.367 469.675 345.782 464.076C344.197 458.478 344.1 452.563 345.501 446.916C346.901 441.268 349.751 436.084 353.767 431.874C357.784 427.665 362.829 424.576 368.405 422.913C373.981 421.25 379.894 421.07 385.56 422.391C391.227 423.712 396.451 426.488 400.716 430.445L389.339 442.708C387.207 440.729 384.595 439.341 381.763 438.681C378.93 438.021 375.974 438.111 373.186 438.942C370.399 439.774 367.877 441.318 365.869 443.422C363.861 445.526 362.436 448.118 361.736 450.942C361.036 453.765 361.084 456.722 361.877 459.521C362.669 462.319 364.177 464.863 366.253 466.901C368.329 468.938 370.901 470.399 373.714 471.138C376.527 471.878 379.485 471.871 382.294 471.118L386.623 487.275Z" fill="#E1312D"/>
<defs>
<clipPath id="clip0_223_6">
<rect width="1440" height="417" fill="white" transform="translate(-522 47)"/>
</clipPath>
</defs>
</svg>
