<svg width="20" height="20" viewBox="0 0 20 20" fill="none" xmlns="http://www.w3.org/2000/svg">
<path d="M8.5921 1.59485C8.88151 0.0336552 11.1185 0.0336552 11.4079 1.59485C11.6149 2.71162 12.9775 3.15435 13.8014 2.37255C14.9532 1.27962 16.7629 2.59449 16.0794 4.02763C15.5905 5.0528 16.4326 6.21188 17.5587 6.06367C19.1329 5.85648 19.8242 7.98398 18.4288 8.74166C17.4307 9.28365 17.4307 10.7164 18.4288 11.2583C19.8242 12.016 19.1329 14.1435 17.5587 13.9363C16.4326 13.7881 15.5905 14.9472 16.0794 15.9724C16.7629 17.4055 14.9532 18.7204 13.8014 17.6275C12.9775 16.8456 11.6149 17.2884 11.4079 18.4051C11.1185 19.9663 8.88151 19.9663 8.5921 18.4052C8.38508 17.2884 7.0225 16.8456 6.19859 17.6275C5.04681 18.7204 3.23705 17.4055 3.92056 15.9724C4.4095 14.9472 3.56738 13.7881 2.44129 13.9363C0.867075 14.1435 0.175809 12.016 1.57116 11.2583C2.5693 10.7164 2.5693 9.28365 1.57116 8.74166C0.175809 7.98398 0.867076 5.85648 2.44129 6.06367C3.56738 6.21188 4.4095 5.0528 3.92056 4.02763C3.23705 2.59449 5.04681 1.27962 6.19859 2.37255C7.0225 3.15435 8.38508 2.71162 8.5921 1.59485Z" fill="#DD4C44"/>
</svg>
