<svg width="83" height="177" viewBox="0 0 83 177" fill="none" xmlns="http://www.w3.org/2000/svg">
<path d="M-4.44975 2.91226C-3.8434 -0.358662 0.843399 -0.358665 1.44975 2.91225L9.47343 46.1957C9.90718 48.5355 12.762 49.463 14.4882 47.8251L46.4208 17.5242C48.834 15.2344 52.6257 17.9892 51.1936 20.9919L32.2436 60.7251C31.2192 62.873 32.9835 65.3014 35.3428 64.9909L78.9872 59.2466C82.2854 58.8125 83.7337 63.2699 80.8103 64.8573L42.1248 85.8636C40.0335 86.9991 40.0335 90.0009 42.1248 91.1364L80.8103 112.143C83.7337 113.73 82.2854 118.188 78.9872 117.753L35.3428 112.009C32.9835 111.699 31.2192 114.127 32.2436 116.275L51.1936 156.008C52.6257 159.011 48.834 161.766 46.4208 159.476L14.4882 129.175C12.762 127.537 9.90718 128.465 9.47343 130.804L1.44975 174.088C0.843399 177.359 -3.8434 177.359 -4.44975 174.088L-12.4734 130.804C-12.9072 128.465 -15.762 127.537 -17.4882 129.175L-49.4208 159.476C-51.834 161.766 -55.6257 159.011 -54.1936 156.008L-35.2436 116.275C-34.2192 114.127 -35.9835 111.699 -38.3428 112.009L-81.9872 117.753C-85.2854 118.188 -86.7338 113.73 -83.8103 112.143L-45.1248 91.1364C-43.0335 90.0009 -43.0335 86.9991 -45.1248 85.8636L-83.8103 64.8573C-86.7337 63.2699 -85.2855 58.8125 -81.9873 59.2466L-38.3428 64.9909C-35.9835 65.3014 -34.2192 62.873 -35.2436 60.7251L-54.1936 20.9919C-55.6257 17.9893 -51.834 15.2344 -49.4208 17.5242L-17.4882 47.8251C-15.762 49.463 -12.9072 48.5355 -12.4734 46.1957L-4.44975 2.91226Z" fill="#DD4C44"/>
</svg>
