<svg width="95" height="177" viewBox="0 0 95 177" fill="none" xmlns="http://www.w3.org/2000/svg">
<path d="M81.5503 2.91226C82.1566 -0.358662 86.8434 -0.358665 87.4497 2.91225L95.4734 46.1957C95.9072 48.5355 98.762 49.463 100.488 47.8251L132.421 17.5242C134.834 15.2344 138.626 17.9892 137.194 20.9919L118.244 60.7251C117.219 62.873 118.984 65.3014 121.343 64.9909L164.987 59.2466C168.285 58.8125 169.734 63.2699 166.81 64.8573L128.125 85.8636C126.034 86.9991 126.034 90.0009 128.125 91.1364L166.81 112.143C169.734 113.73 168.285 118.188 164.987 117.753L121.343 112.009C118.984 111.699 117.219 114.127 118.244 116.275L137.194 156.008C138.626 159.011 134.834 161.766 132.421 159.476L100.488 129.175C98.762 127.537 95.9072 128.465 95.4734 130.804L87.4497 174.088C86.8434 177.359 82.1566 177.359 81.5503 174.088L73.5266 130.804C73.0928 128.465 70.238 127.537 68.5118 129.175L36.5792 159.476C34.166 161.766 30.3743 159.011 31.8064 156.008L50.7564 116.275C51.7808 114.127 50.0165 111.699 47.6572 112.009L4.01275 117.753C0.71455 118.188 -0.733753 113.73 2.1897 112.143L40.8752 91.1364C42.9665 90.0009 42.9665 86.9991 40.8752 85.8636L2.18971 64.8573C-0.733749 63.2699 0.714546 58.8125 4.01275 59.2466L47.6572 64.9909C50.0165 65.3014 51.7808 62.873 50.7564 60.7251L31.8064 20.9919C30.3743 17.9893 34.166 15.2344 36.5792 17.5242L68.5118 47.8251C70.238 49.463 73.0928 48.5355 73.5266 46.1957L81.5503 2.91226Z" fill="#DD4C44"/>
</svg>
