<svg width="127" height="206" viewBox="0 0 127 206" fill="none" xmlns="http://www.w3.org/2000/svg">
<path d="M32.511 189.489C16.1815 173.159 5.35173 152.143 1.53021 129.368C-2.29131 106.594 1.08572 83.1937 11.1909 62.4287C21.2961 41.6636 37.6262 24.5673 57.9064 13.5213C78.1867 2.47535 101.407 -1.97028 124.333 0.803731C147.259 3.57774 168.75 13.4332 185.81 28.9974C202.871 44.5615 214.652 65.0592 219.513 87.6351C224.374 110.211 222.073 133.741 212.929 154.947C203.786 176.154 188.257 193.98 168.504 205.944L138.431 156.292C147.854 150.585 155.262 142.081 159.624 131.965C163.986 121.848 165.084 110.624 162.765 99.8541C160.446 89.0845 154.826 79.3063 146.687 71.8817C138.549 64.457 128.297 59.7556 117.36 58.4323C106.424 57.1089 95.3467 59.2297 85.6723 64.499C75.9979 69.7684 68.2078 77.9239 63.3872 87.8297C58.5667 97.7354 56.9557 108.898 58.7787 119.762C60.6017 130.627 65.768 140.652 73.5577 148.442L32.511 189.489Z" fill="#3C5190"/>
</svg>
