<svg width="148" height="222" viewBox="0 0 148 222" fill="none" xmlns="http://www.w3.org/2000/svg">
<path d="M148 111C148 134.093 140.797 156.612 127.395 175.418C113.993 194.225 95.059 208.383 73.2304 215.921C51.4019 223.458 27.7659 224 5.61487 217.471C-16.5361 210.941 -36.099 197.665 -50.3487 179.492C-64.5984 161.32 -72.8253 139.155 -73.8834 116.086C-74.9415 93.0167 -68.7781 70.192 -56.2518 50.7911C-43.7254 31.3903 -25.4599 16.3794 -3.99966 7.84949C17.4606 -0.680413 41.047 -2.30456 63.4739 3.20328L49.629 59.5769C38.9306 56.9495 27.679 57.7243 17.4416 61.7933C7.20428 65.8624 -1.50906 73.0232 -7.48459 82.2781C-13.4601 91.5331 -16.4003 102.421 -15.8955 113.426C-15.3908 124.431 -11.4663 135.004 -4.66862 143.673C2.12902 152.342 11.4613 158.676 22.0281 161.79C32.595 164.905 43.8702 164.647 54.2833 161.051C64.6963 157.455 73.7286 150.701 80.1219 141.73C86.5152 132.758 89.9512 122.016 89.9512 111H148Z" fill="#3C5190"/>
</svg>
